<svg width="45" height="45" viewBox="0 0 45 45" fill="none" xmlns="http://www.w3.org/2000/svg">
<rect width="45" height="45" rx="22.5" fill="#FF9F1C"/>
<path d="M35.1562 34.6875H33.6621C33.4863 33.8281 33.252 32.9443 32.959 32.0361C32.666 31.1279 31.9336 30.4102 30.7617 29.8828C31.3867 29.4141 31.7285 28.9014 31.7871 28.3447C31.8457 27.7881 31.875 27.2461 31.875 26.7188C31.875 25.9375 31.6016 25.2734 31.0547 24.7266C30.5078 24.1797 29.8438 23.9062 29.0625 23.9062C28.2812 23.9062 27.6172 24.1797 27.0703 24.7266C26.5234 25.2734 26.25 25.9375 26.25 26.7188C26.25 27.2852 26.2842 27.8369 26.3525 28.374C26.4209 28.9111 26.7578 29.4141 27.3633 29.8828C26.9141 30.0781 26.7285 30.1611 26.8066 30.1318C26.8848 30.1025 26.6406 29.8535 26.0742 29.3848C25.8398 29.1895 25.5859 29.0137 25.3125 28.8574C25.0391 28.7012 24.7461 28.5742 24.4336 28.4766L24.4043 28.4473C25.1465 27.9199 25.5664 27.3291 25.6641 26.6748C25.7617 26.0205 25.8105 25.4102 25.8105 24.8438C25.8105 23.9453 25.4883 23.1738 24.8438 22.5293C24.1992 21.8848 23.4277 21.5625 22.5293 21.5625C21.6113 21.5625 20.835 21.8848 20.2002 22.5293C19.5654 23.1738 19.248 23.9453 19.248 24.8438C19.248 25.3711 19.2871 25.9668 19.3652 26.6309C19.4434 27.2949 19.873 27.9004 20.6543 28.4473C20.166 28.623 19.7119 28.8574 19.292 29.1504C18.8721 29.4434 18.5059 29.7754 18.1934 30.1465V30.1758C18.1152 30.1172 18.0371 30.0684 17.959 30.0293C17.8809 29.9902 17.793 29.9512 17.6953 29.9121V29.8828C18.2812 29.4141 18.6035 28.8965 18.6621 28.3301C18.7207 27.7637 18.75 27.2266 18.75 26.7188C18.75 25.9375 18.4766 25.2734 17.9297 24.7266C17.3828 24.1797 16.7188 23.9062 15.9375 23.9062C15.1562 23.9062 14.4922 24.1797 13.9453 24.7266C13.3984 25.2734 13.125 25.9375 13.125 26.7188C13.125 27.2852 13.1592 27.8369 13.2275 28.374C13.2959 28.9111 13.6328 29.4141 14.2383 29.8828C13.0664 30.4102 12.334 31.1377 12.041 32.0654C11.748 32.9932 11.5137 33.8672 11.3379 34.6875H9.84375C9.70703 34.6875 9.59473 34.7314 9.50684 34.8193C9.41895 34.9072 9.375 35.0195 9.375 35.1562C9.375 35.293 9.41895 35.4053 9.50684 35.4932C9.59473 35.5811 9.70703 35.625 9.84375 35.625H35.1562C35.293 35.625 35.4053 35.5811 35.4932 35.4932C35.5811 35.4053 35.625 35.293 35.625 35.1562C35.625 35.0195 35.5811 34.9072 35.4932 34.8193C35.4053 34.7314 35.293 34.6875 35.1562 34.6875ZM27.1875 27.6562V26.7188C27.1875 26.1914 27.3682 25.7471 27.7295 25.3857C28.0908 25.0244 28.5352 24.8438 29.0625 24.8438C29.5898 24.8438 30.0342 25.0244 30.3955 25.3857C30.7568 25.7471 30.9375 26.1914 30.9375 26.7188V27.6562C30.9375 28.1836 30.7568 28.6279 30.3955 28.9893C30.0342 29.3506 29.5898 29.5312 29.0625 29.5312C28.5352 29.5312 28.0908 29.3506 27.7295 28.9893C27.3682 28.6279 27.1875 28.1836 27.1875 27.6562ZM20.1562 25.7812V24.8438C20.1562 24.1992 20.3857 23.6475 20.8447 23.1885C21.3037 22.7295 21.8555 22.5 22.5 22.5C23.1445 22.5 23.6963 22.7295 24.1553 23.1885C24.6143 23.6475 24.8438 24.1992 24.8438 24.8438V25.7812C24.8438 26.4258 24.6143 26.9775 24.1553 27.4365C23.6963 27.8955 23.1445 28.125 22.5 28.125C21.8555 28.125 21.3037 27.8955 20.8447 27.4365C20.3857 26.9775 20.1562 26.4258 20.1562 25.7812ZM14.0625 27.6562V26.7188C14.0625 26.1914 14.2432 25.7471 14.6045 25.3857C14.9658 25.0244 15.4102 24.8438 15.9375 24.8438C16.4648 24.8438 16.9092 25.0244 17.2705 25.3857C17.6318 25.7471 17.8125 26.1914 17.8125 26.7188V27.6562C17.8125 28.1836 17.6318 28.6279 17.2705 28.9893C16.9092 29.3506 16.4648 29.5312 15.9375 29.5312C15.4102 29.5312 14.9658 29.3506 14.6045 28.9893C14.2432 28.6279 14.0625 28.1836 14.0625 27.6562ZM12.5684 33.3398C12.7051 32.5195 13.0908 31.8408 13.7256 31.3037C14.3604 30.7666 15.0977 30.498 15.9375 30.498C16.25 30.498 16.5479 30.5371 16.8311 30.6152C17.1143 30.6934 17.373 30.8008 17.6074 30.9375C17.2754 31.4844 17.0508 32.041 16.9336 32.6074C16.8164 33.1738 16.6699 33.8672 16.4941 34.6875H14.1797L14.5312 33.3984C14.5312 33.3789 14.5312 33.3594 14.5312 33.3398C14.5312 33.3203 14.5312 33.3008 14.5312 33.2812C14.5312 33.1445 14.4873 33.0322 14.3994 32.9443C14.3115 32.8564 14.1992 32.8125 14.0625 32.8125C13.9453 32.8125 13.8428 32.8467 13.7549 32.915C13.667 32.9834 13.6133 33.0664 13.5938 33.1641L13.2422 34.6875H12.3047L12.5684 33.3398ZM26.1914 34.6875L25.7227 32.6953C25.7031 32.5977 25.6494 32.5146 25.5615 32.4463C25.4736 32.3779 25.3809 32.3438 25.2832 32.3438C25.1465 32.3438 25.0342 32.3926 24.9463 32.4902C24.8584 32.5879 24.8145 32.6953 24.8145 32.8125C24.8145 32.832 24.8145 32.8516 24.8145 32.8711C24.8145 32.8906 24.8145 32.9102 24.8145 32.9297L25.2246 34.6875H19.8047L20.1562 32.9004C20.1562 32.8809 20.1562 32.8662 20.1562 32.8564C20.1562 32.8467 20.1562 32.832 20.1562 32.8125C20.1562 32.6758 20.1123 32.5635 20.0244 32.4756C19.9365 32.3877 19.8242 32.3438 19.6875 32.3438C19.5703 32.3438 19.4678 32.3779 19.3799 32.4463C19.292 32.5146 19.2383 32.6074 19.2188 32.7246L18.8379 34.6875H17.4609C17.5391 34.1992 17.627 33.75 17.7246 33.3398C17.8223 32.9297 17.9297 32.5293 18.0469 32.1387L17.9883 32.3145C18.3203 31.3574 18.8965 30.5762 19.7168 29.9707C20.5371 29.3652 21.4648 29.0625 22.5 29.0625C23.3008 29.0625 24.0381 29.2432 24.7119 29.6045C25.3857 29.9658 25.9375 30.4492 26.3672 31.0547C26.7383 31.5625 26.9824 32.0752 27.0996 32.5928C27.2168 33.1104 27.3633 33.8086 27.5391 34.6875H26.1914ZM31.7578 34.6875L31.4062 33.1641C31.3867 33.0664 31.333 32.9883 31.2451 32.9297C31.1572 32.8711 31.0645 32.8418 30.9668 32.8418C30.8301 32.8418 30.7178 32.8857 30.6299 32.9736C30.542 33.0615 30.498 33.1738 30.498 33.3105C30.498 33.3105 30.498 33.3203 30.498 33.3398C30.498 33.3594 30.498 33.3789 30.498 33.3984L30.8203 34.6875H28.5059C28.3105 33.75 28.1494 33.0127 28.0225 32.4756C27.8955 31.9385 27.6855 31.4258 27.3926 30.9375C27.6465 30.8008 27.915 30.6934 28.1982 30.6152C28.4814 30.5371 28.7695 30.498 29.0625 30.498C29.9023 30.498 30.6396 30.7666 31.2744 31.3037C31.9092 31.8408 32.2949 32.5195 32.4316 33.3398L32.6953 34.6875H31.7578ZM32.3438 9.375H12.6562C11.7578 9.375 10.9863 9.69727 10.3418 10.3418C9.69727 10.9863 9.375 11.7578 9.375 12.6562V15.4688C9.375 16.3672 9.69727 17.1387 10.3418 17.7832C10.9863 18.4277 11.7578 18.75 12.6562 18.75H14.2383L15.5273 21.2988C15.5664 21.377 15.6201 21.4404 15.6885 21.4893C15.7568 21.5381 15.8398 21.5625 15.9375 21.5625C16.0352 21.5625 16.1182 21.5381 16.1865 21.4893C16.2549 21.4404 16.3086 21.377 16.3477 21.2988L17.6367 18.75H21.2695L22.0898 20.3613C22.1289 20.4395 22.1826 20.5029 22.251 20.5518C22.3193 20.6006 22.4023 20.625 22.5 20.625C22.5977 20.625 22.6807 20.6006 22.749 20.5518C22.8174 20.5029 22.8711 20.4395 22.9102 20.3613L23.7305 18.75H27.3633L28.6523 21.2988C28.6914 21.377 28.7451 21.4404 28.8135 21.4893C28.8818 21.5381 28.9648 21.5625 29.0625 21.5625C29.1602 21.5625 29.2432 21.5381 29.3115 21.4893C29.3799 21.4404 29.4336 21.377 29.4727 21.2988L30.7617 18.75H32.3438C33.2422 18.75 34.0137 18.4277 34.6582 17.7832C35.3027 17.1387 35.625 16.3672 35.625 15.4688V12.6562C35.625 11.7578 35.3027 10.9863 34.6582 10.3418C34.0137 9.69727 33.2422 9.375 32.3438 9.375ZM34.6875 15.4688C34.6875 16.1133 34.458 16.665 33.999 17.124C33.54 17.583 32.9883 17.8125 32.3438 17.8125H30.4688C30.2734 17.8125 30.1221 17.9248 30.0146 18.1494C29.9072 18.374 29.5898 19.0039 29.0625 20.0391C28.5352 18.9844 28.2178 18.3496 28.1104 18.1348C28.0029 17.9199 27.8516 17.8125 27.6562 17.8125C25.3125 17.8125 23.9746 17.8125 23.6426 17.8125C23.3105 17.8125 23.1055 17.9004 23.0273 18.0762L22.5 19.1016L21.9727 18.0762C21.8945 17.9004 21.6797 17.8125 21.3281 17.8125C20.9766 17.8125 19.6484 17.8125 17.3438 17.8125C17.1484 17.8125 16.9971 17.9248 16.8896 18.1494C16.7822 18.374 16.4648 19.0039 15.9375 20.0391C15.4102 18.9844 15.0928 18.3496 14.9854 18.1348C14.8779 17.9199 14.7266 17.8125 14.5312 17.8125H12.6562C12.0117 17.8125 11.46 17.583 11.001 17.124C10.542 16.665 10.3125 16.1133 10.3125 15.4688V12.6562C10.3125 12.0117 10.542 11.46 11.001 11.001C11.46 10.542 12.0117 10.3125 12.6562 10.3125H32.3438C32.9883 10.3125 33.54 10.542 33.999 11.001C34.458 11.46 34.6875 12.0117 34.6875 12.6562V15.4688ZM17.8711 12.9785L16.8164 12.7734L16.3184 11.8359C16.2793 11.7578 16.2207 11.6943 16.1426 11.6455C16.0645 11.5967 15.9863 11.5723 15.9082 11.5723C15.8105 11.5723 15.7275 11.5967 15.6592 11.6455C15.5908 11.6943 15.5371 11.7578 15.498 11.8359L14.9707 12.7734C14.4238 12.8711 14.0674 12.9395 13.9014 12.9785C13.7354 13.0176 13.623 13.1152 13.5645 13.2715C13.5059 13.4473 13.54 13.6035 13.667 13.7402C13.7939 13.877 14.0332 14.1406 14.3848 14.5312C14.3262 15.0781 14.2871 15.4346 14.2676 15.6006C14.248 15.7666 14.3066 15.8984 14.4434 15.9961C14.5996 16.1133 14.7607 16.1328 14.9268 16.0547C15.0928 15.9766 15.4102 15.8301 15.8789 15.6152C16.4062 15.8496 16.7139 15.9863 16.8018 16.0254C16.8896 16.0645 16.9727 16.084 17.0508 16.084C17.1875 16.084 17.2998 16.0352 17.3877 15.9375C17.4756 15.8398 17.5195 15.7324 17.5195 15.6152C17.5195 15.5957 17.5195 15.5811 17.5195 15.5713C17.5195 15.5615 17.5195 15.5566 17.5195 15.5566L17.4023 14.5312L18.1348 13.7402C18.1738 13.7012 18.2031 13.6572 18.2227 13.6084C18.2422 13.5596 18.252 13.4961 18.252 13.418C18.252 13.3008 18.2178 13.2031 18.1494 13.125C18.0811 13.0469 17.9883 12.998 17.8711 12.9785ZM16.4941 14.8535C16.1621 14.6973 15.9619 14.6191 15.8936 14.6191C15.8252 14.6191 15.6348 14.6973 15.3223 14.8535C15.3613 14.4824 15.3711 14.2676 15.3516 14.209C15.332 14.1504 15.1953 13.9844 14.9414 13.7109C15.3125 13.6523 15.5225 13.5986 15.5713 13.5498C15.6201 13.501 15.7227 13.3203 15.8789 13.0078C16.0547 13.3203 16.167 13.501 16.2158 13.5498C16.2646 13.5986 16.4648 13.6523 16.8164 13.7109C16.6016 13.9844 16.4844 14.1504 16.4648 14.209C16.4453 14.2676 16.4551 14.4824 16.4941 14.8535ZM23.4961 12.1875C23.3008 12.1875 23.1201 12.2266 22.9541 12.3047C22.7881 12.3828 22.6367 12.4805 22.5 12.5977C22.3633 12.4609 22.207 12.3535 22.0312 12.2754C21.8555 12.1973 21.6699 12.1582 21.4746 12.1582C21.084 12.1582 20.752 12.2949 20.4785 12.5684C20.2051 12.8418 20.0684 13.1738 20.0684 13.5645C20.0684 13.7598 20.1074 13.9453 20.1855 14.1211C20.2637 14.2969 20.3711 14.4531 20.5078 14.5898L22.1777 16.2598C22.2168 16.2988 22.2656 16.333 22.3242 16.3623C22.3828 16.3916 22.4414 16.4062 22.5 16.4062C22.5781 16.4062 22.6465 16.3916 22.7051 16.3623C22.7637 16.333 22.8125 16.2988 22.8516 16.2598L24.4922 14.5898C24.6289 14.4727 24.7363 14.3262 24.8145 14.1504C24.8926 13.9746 24.9316 13.7891 24.9316 13.5938C24.9316 13.2031 24.7949 12.8711 24.5215 12.5977C24.248 12.3242 23.916 12.1875 23.5254 12.1875C23.5254 12.1875 23.5205 12.1875 23.5107 12.1875C23.501 12.1875 23.4961 12.1875 23.4961 12.1875ZM23.8477 13.9453L22.5 15.2637L21.1816 13.916C21.123 13.877 21.084 13.8281 21.0645 13.7695C21.0449 13.7109 21.0352 13.6523 21.0352 13.5938C21.0352 13.457 21.0791 13.3447 21.167 13.2568C21.2549 13.1689 21.3672 13.125 21.5039 13.125C21.6016 13.125 21.6895 13.1543 21.7676 13.2129C21.8457 13.2715 21.9824 13.3984 22.1777 13.5938C22.2168 13.6328 22.2656 13.667 22.3242 13.6963C22.3828 13.7256 22.4414 13.7402 22.5 13.7402C22.5586 13.7402 22.6172 13.7256 22.6758 13.6963C22.7344 13.667 22.7832 13.6328 22.8223 13.5938L23.1738 13.2715C23.2129 13.2129 23.2617 13.1738 23.3203 13.1543C23.3789 13.1348 23.4375 13.125 23.4961 13.125C23.6328 13.125 23.7451 13.1689 23.833 13.2568C23.9209 13.3447 23.9648 13.457 23.9648 13.5938C23.9648 13.6719 23.9551 13.7354 23.9355 13.7842C23.916 13.833 23.8867 13.8867 23.8477 13.9453ZM30.9961 13.4473L29.9414 13.2422L29.4434 12.3047C29.4043 12.2266 29.3457 12.1631 29.2676 12.1143C29.1895 12.0654 29.1113 12.041 29.0332 12.041C28.9355 12.041 28.8525 12.0654 28.7842 12.1143C28.7158 12.1631 28.6621 12.2266 28.623 12.3047L28.0957 13.2422C27.5488 13.3398 27.1924 13.4082 27.0264 13.4473C26.8604 13.4863 26.748 13.584 26.6895 13.7402C26.6309 13.916 26.665 14.0723 26.792 14.209C26.9189 14.3457 27.1582 14.6094 27.5098 15C27.4512 15.5469 27.4121 15.9033 27.3926 16.0693C27.373 16.2354 27.4316 16.3672 27.5684 16.4648C27.7246 16.582 27.8857 16.6016 28.0518 16.5234C28.2178 16.4453 28.5352 16.2988 29.0039 16.084C29.5312 16.3184 29.8389 16.4551 29.9268 16.4941C30.0146 16.5332 30.0977 16.5527 30.1758 16.5527C30.3125 16.5527 30.4248 16.5039 30.5127 16.4062C30.6006 16.3086 30.6445 16.2012 30.6445 16.084C30.6445 16.0645 30.6445 16.0498 30.6445 16.04C30.6445 16.0303 30.6445 16.0254 30.6445 16.0254L30.5273 15L31.2598 14.209C31.2988 14.1699 31.3281 14.126 31.3477 14.0771C31.3672 14.0283 31.377 13.9648 31.377 13.8867C31.377 13.7695 31.3428 13.6719 31.2744 13.5938C31.2061 13.5156 31.1133 13.4668 30.9961 13.4473ZM29.6191 15.3223C29.2871 15.166 29.0869 15.0879 29.0186 15.0879C28.9502 15.0879 28.7598 15.166 28.4473 15.3223C28.4863 14.9512 28.4961 14.7363 28.4766 14.6777C28.457 14.6191 28.3203 14.4531 28.0664 14.1797C28.4375 14.1211 28.6475 14.0674 28.6963 14.0186C28.7451 13.9697 28.8477 13.7891 29.0039 13.4766C29.1797 13.7891 29.292 13.9697 29.3408 14.0186C29.3896 14.0674 29.5898 14.1211 29.9414 14.1797C29.7266 14.4531 29.6094 14.6191 29.5898 14.6777C29.5703 14.7363 29.5801 14.9512 29.6191 15.3223Z" fill="white"/>
</svg>
