<svg width="250" height="66" viewBox="0 0 250 66" fill="none" xmlns="http://www.w3.org/2000/svg">
<path d="M19.5413 16.3713V42.4168C19.5413 43.1742 20.1552 43.7881 20.9126 43.7881C21.6699 43.7881 22.2839 43.1742 22.2839 42.4168V16.3713C22.2839 15.614 21.6699 15 20.9126 15C20.1552 15 19.5413 15.614 19.5413 16.3713Z" fill="white"/>
<path d="M60.6674 24.5197L67.3036 42.7524C67.5626 43.4641 68.3495 43.831 69.0612 43.572C69.7729 43.313 70.1398 42.526 69.8808 41.8144L63.2447 23.5817C62.9856 22.87 62.1987 22.503 61.487 22.7621C60.7753 23.0211 60.4084 23.808 60.6674 24.5197Z" fill="white"/>
<path d="M67.8782 49.7114L77.0476 24.5189C77.3066 23.8072 76.9396 23.0203 76.228 22.7612C75.5163 22.5022 74.7293 22.8691 74.4703 23.5808L65.301 48.7733C65.042 49.485 65.4089 50.272 66.1206 50.531C66.8323 50.79 67.6192 50.4231 67.8782 49.7114Z" fill="white"/>
<path d="M10.9911 43.758C4.9299 43.758 0 38.8281 0 32.7682C0 26.7083 4.93127 21.7771 10.9911 21.7771C17.051 21.7771 21.9823 26.7083 21.9823 32.7682C21.9823 38.8281 17.051 43.758 10.9911 43.758ZM10.9911 24.4018C6.37801 24.4018 2.62471 28.1551 2.62471 32.7682C2.62471 37.3813 6.37801 41.1333 10.9911 41.1333C15.6043 41.1333 19.3576 37.3813 19.3576 32.7682C19.3576 28.1551 15.6043 24.4018 10.9911 24.4018Z" fill="white"/>
<path d="M29.9688 42.9845C29.7357 42.9845 29.504 42.9228 29.2969 42.8049C28.5797 42.3976 27.9036 41.9067 27.2879 41.3485C25.0636 39.33 23.7581 36.5668 23.6128 33.5677C23.4674 30.5686 24.4986 27.6902 26.5158 25.4659C28.6428 23.121 31.6802 21.7757 34.848 21.7757C37.7044 21.7757 40.4306 22.8508 42.5219 24.8049C46.9389 28.9312 47.268 35.9647 43.2528 40.4846C42.4616 41.376 41.5441 42.1302 40.528 42.7253C40.3264 42.8433 40.0974 42.9064 39.867 42.9064C39.3144 42.9064 38.8248 42.5731 38.6191 42.0589L38.6123 42.0411C38.3668 41.424 38.6123 40.726 39.1951 40.3804C39.9754 39.9183 40.6775 39.3341 41.2808 38.6443C44.2786 35.216 44.0125 29.8939 40.6871 26.7824C39.8917 26.0378 38.9811 25.4604 37.9787 25.0669C36.979 24.6733 35.9258 24.4731 34.8466 24.4731C33.4917 24.4731 32.141 24.7981 30.9411 25.4138C29.9812 25.9061 29.1296 26.5712 28.411 27.3912C25.3776 30.8552 25.6697 36.2061 29.0638 39.319C29.5478 39.7633 30.0799 40.15 30.6449 40.4695C31.1756 40.7685 31.4334 41.3938 31.2716 41.9903C31.1125 42.5759 30.5763 42.9845 29.9675 42.9845H29.9688Z" fill="white"/>
<path d="M37.6236 30.455L33.849 34.6164C33.5238 34.9749 33.5508 35.529 33.9093 35.8542C34.2678 36.1793 34.8219 36.1523 35.1471 35.7939L38.9217 31.6325C39.2469 31.274 39.2199 30.7198 38.8614 30.3947C38.5029 30.0695 37.9488 30.0965 37.6236 30.455Z" fill="#FE9203"/>
<path d="M34.8357 43.7744C35.593 43.7744 36.207 43.1605 36.207 42.4031C36.207 41.6457 35.593 41.0318 34.8357 41.0318C34.0783 41.0318 33.4644 41.6457 33.4644 42.4031C33.4644 43.1605 34.0783 43.7744 34.8357 43.7744Z" fill="#FE9203"/>
<path d="M31.8864 33.6795L33.8367 35.7946C34.1237 36.1058 34.6087 36.1254 34.9199 35.8385C35.2312 35.5515 35.2508 35.0665 34.9638 34.7552L33.0135 32.6402C32.7265 32.329 32.2415 32.3093 31.9303 32.5963C31.619 32.8833 31.5994 33.3683 31.8864 33.6795Z" fill="#FE9203"/>
<path d="M48.4323 39.8895C48.409 39.9265 48.3953 39.9731 48.3953 40.0211C48.3953 40.139 48.4776 40.2405 48.59 40.2666C48.6106 40.2734 48.6325 40.2762 48.6558 40.2762C48.6791 40.2762 48.7011 40.2734 48.723 40.2666H58.554C59.311 40.2666 59.9253 40.8672 59.9253 41.6091C59.9253 42.3496 59.311 42.9516 58.554 42.9516H48.6586C47.412 42.9516 46.3424 42.2111 45.8858 41.1538C45.7774 40.9042 45.7048 40.6368 45.6718 40.3598C45.6677 40.3283 45.665 40.2995 45.6622 40.268C45.654 40.1816 45.6499 40.0965 45.6499 40.0074C45.6499 39.8881 45.6568 39.7702 45.6718 39.655C45.6718 39.6509 45.6718 39.6481 45.6718 39.644C45.7322 39.1599 45.942 38.706 46.245 38.3207L46.6304 37.8311L46.6345 37.827L57.1196 25.7731C57.1196 25.7731 57.1278 25.7635 57.1306 25.758C57.1676 25.7045 57.1827 25.6332 57.1662 25.5619C57.1388 25.4412 57.0181 25.3631 56.892 25.3631H54.3591C54.3194 25.3603 54.281 25.3603 54.2412 25.3603C54.2014 25.3603 54.1631 25.3603 54.1233 25.3631H47.0185C46.2615 25.3631 45.6472 24.7624 45.6472 24.0205C45.6472 23.28 46.2615 22.678 47.0185 22.678H56.9125C58.1358 22.678 59.1876 23.3925 59.6579 24.4169C59.7841 24.6884 59.8664 24.9791 59.902 25.2863C59.9048 25.3123 59.9075 25.3356 59.9103 25.3617C59.9185 25.4481 59.9226 25.5345 59.9226 25.6236C59.9226 25.7402 59.9157 25.8554 59.902 25.9678C59.8472 26.4217 59.6881 26.8427 59.4481 27.2089L59.1217 27.6203L48.4693 39.8387C48.4693 39.8387 48.4638 39.8428 48.4625 39.8456C48.4501 39.8579 48.4392 39.873 48.4309 39.8867H48.4296L48.4323 39.8895Z" fill="white"/>
</svg>
