<svg width="96" height="93" viewBox="0 0 96 93" fill="none" xmlns="http://www.w3.org/2000/svg">
<path d="M10.6862 62.2051L0.185669 65.9439H10.6862V62.2051Z" fill="#331F03"/>
<path d="M44.4665 3.52946C46.4186 1.57954 49.5814 1.57954 51.5335 3.52946L55.9849 7.97579C57.2556 9.245 59.1093 9.73522 60.8413 9.26006L67.0048 7.56914C69.6911 6.83215 72.4617 8.43259 73.1654 11.1278L74.6789 16.9244C75.1418 18.6973 76.5374 20.075 78.3161 20.515L84.3241 22.0011C87.0797 22.6828 88.7158 25.519 87.9262 28.2456L86.3167 33.8038C85.7966 35.5996 86.322 37.5356 87.6785 38.8222L91.9485 42.8723C94.0273 44.844 94.0273 48.156 91.9485 50.1277L87.6785 54.1778C86.322 55.4644 85.7966 57.4004 86.3167 59.1962L87.9262 64.7544C88.7158 67.481 87.0797 70.3172 84.3241 70.9989L78.3161 72.485C76.5374 72.925 75.1418 74.3027 74.6789 76.0756L73.1654 81.8722C72.4617 84.5674 69.6911 86.1679 67.0048 85.4309L60.8413 83.7399C59.1093 83.2648 57.2556 83.755 55.9849 85.0242L51.5335 89.4705C49.5814 91.4205 46.4186 91.4205 44.4665 89.4705L40.0151 85.0242C38.7444 83.755 36.8907 83.2648 35.1587 83.7399L28.9952 85.4309C26.3089 86.1679 23.5383 84.5674 22.8346 81.8722L21.3211 76.0756C20.8582 74.3027 19.4626 72.925 17.6839 72.485L11.6759 70.9989C8.92031 70.3172 7.28425 67.481 8.07381 64.7544L9.68332 59.1962C10.2034 57.4004 9.67802 55.4644 8.3215 54.1778L4.05152 50.1277C1.97269 48.156 1.97269 44.844 4.05152 42.8723L8.32151 38.8222C9.67802 37.5356 10.2034 35.5996 9.68332 33.8038L8.07381 28.2456C7.28425 25.519 8.92031 22.6828 11.6759 22.0011L17.6839 20.515C19.4626 20.075 20.8582 18.6973 21.3211 16.9244L22.8346 11.1278C23.5383 8.4326 26.3089 6.83215 28.9952 7.56914L35.1587 9.26006C36.8907 9.73522 38.7444 9.245 40.0151 7.97579L44.4665 3.52946Z" fill="white"/>
<path d="M44.8196 8.2627C46.5764 6.50794 49.423 6.50811 51.1799 8.2627L54.6858 11.7646C56.0834 13.1607 58.1226 13.7002 60.0276 13.1777L64.8879 11.8447C67.3054 11.1817 69.7983 12.6216 70.4319 15.0469L71.6116 19.5654C72.1207 21.5156 73.6561 23.0316 75.6125 23.5156L80.3079 24.6768C82.7878 25.2902 84.2606 27.843 83.55 30.2969L82.3079 34.5859C81.7359 36.5614 82.3138 38.6912 83.8059 40.1064L87.1057 43.2354C88.9766 45.0099 88.9764 47.991 87.1057 49.7656L83.8059 52.8955C82.3137 54.3108 81.7358 56.4406 82.3079 58.416L83.55 62.7051C84.2603 65.1588 82.7876 67.7107 80.3079 68.3242L75.6125 69.4863C73.6561 69.9704 72.1207 71.4855 71.6116 73.4355L70.4319 77.9541C69.7986 80.3797 67.3055 81.8202 64.8879 81.1572L60.0276 79.8242C58.1225 79.3017 56.0834 79.8403 54.6858 81.2363L51.1799 84.7383C49.423 86.4932 46.5765 86.4932 44.8196 84.7383L41.3137 81.2363C39.916 79.8404 37.877 79.3016 35.9719 79.8242L31.1125 81.1572C28.6948 81.8205 26.201 80.3798 25.5676 77.9541L24.3879 73.4355C23.8787 71.4854 22.3435 69.9703 20.387 69.4863L15.6926 68.3242C13.2127 67.7108 11.7401 65.1589 12.4504 62.7051L13.6926 58.416C14.2646 56.4406 13.6866 54.3108 12.1946 52.8955L8.89478 49.7656C7.02383 47.991 7.02383 45.0099 8.89478 43.2354L12.1946 40.1064C13.6867 38.6912 14.2646 36.5613 13.6926 34.5859L12.4504 30.2969C11.7398 27.8429 13.2126 25.2902 15.6926 24.6768L20.387 23.5156C22.3436 23.0316 23.8788 21.5156 24.3879 19.5654L25.5676 15.0469C26.2011 12.6214 28.695 11.1815 31.1125 11.8447L35.9719 13.1777C37.8771 13.7004 39.916 13.1608 41.3137 11.7646L44.8196 8.2627Z" fill="white" stroke="url(#paint0_linear_1_1995)"/>
<path d="M0 65.9463H96L88.6536 72.5625L96 79.1787H0V65.9463Z" fill="#FF9F1C"/>
<path d="M33.8469 45.312C32.7669 45.312 31.7909 45.052 30.9189 44.532C30.0469 44.004 29.3549 43.304 28.8429 42.432C28.3389 41.56 28.0869 40.604 28.0869 39.564H31.0149C31.0149 40.084 31.1429 40.56 31.3989 40.992C31.6549 41.416 31.9949 41.756 32.4189 42.012C32.8509 42.26 33.3269 42.384 33.8469 42.384C34.3669 42.384 34.8389 42.26 35.2629 42.012C35.6869 41.756 36.0269 41.416 36.2829 40.992C36.5389 40.56 36.6669 40.084 36.6669 39.564C36.6669 39.044 36.5549 38.568 36.3309 38.136C36.1149 37.696 35.7589 37.348 35.2629 37.092C34.7749 36.828 34.1269 36.696 33.3189 36.696H28.9989L30.7749 28.2H39.0309V31.128H33.1509L32.6109 33.768L33.7989 33.78C34.9349 33.82 35.9389 34.096 36.8109 34.608C37.6829 35.12 38.3629 35.808 38.8509 36.672C39.3469 37.528 39.5949 38.492 39.5949 39.564C39.5949 40.348 39.4469 41.088 39.1509 41.784C38.8549 42.48 38.4429 43.092 37.9149 43.62C37.3869 44.148 36.7749 44.564 36.0789 44.868C35.3909 45.164 34.6469 45.312 33.8469 45.312ZM47.5616 45.312C46.5856 45.312 45.6976 45.088 44.8976 44.64C44.0976 44.184 43.4056 43.556 42.8216 42.756C42.2456 41.956 41.8016 41.032 41.4896 39.984C41.1776 38.928 41.0216 37.8 41.0216 36.6C41.0216 35.4 41.1776 34.276 41.4896 33.228C41.8016 32.172 42.2456 31.244 42.8216 30.444C43.4056 29.644 44.0976 29.02 44.8976 28.572C45.6976 28.116 46.5856 27.888 47.5616 27.888C48.5376 27.888 49.4256 28.116 50.2256 28.572C51.0256 29.02 51.7096 29.644 52.2776 30.444C52.8536 31.244 53.2976 32.172 53.6096 33.228C53.9296 34.276 54.0896 35.4 54.0896 36.6C54.0896 37.8 53.9296 38.928 53.6096 39.984C53.2976 41.032 52.8536 41.956 52.2776 42.756C51.7096 43.556 51.0256 44.184 50.2256 44.64C49.4256 45.088 48.5376 45.312 47.5616 45.312ZM47.5616 42.384C48.4176 42.384 49.1256 42.112 49.6856 41.568C50.2456 41.024 50.6616 40.312 50.9336 39.432C51.2056 38.552 51.3416 37.608 51.3416 36.6C51.3416 35.536 51.1976 34.568 50.9096 33.696C50.6216 32.816 50.1976 32.116 49.6376 31.596C49.0776 31.076 48.3856 30.816 47.5616 30.816C46.9136 30.816 46.3496 30.976 45.8696 31.296C45.3976 31.608 45.0056 32.036 44.6936 32.58C44.3816 33.124 44.1496 33.744 43.9976 34.44C43.8456 35.128 43.7696 35.848 43.7696 36.6C43.7696 37.6 43.9056 38.544 44.1776 39.432C44.4576 40.312 44.8776 41.024 45.4376 41.568C46.0056 42.112 46.7136 42.384 47.5616 42.384ZM57.3174 45L67.0134 28.2H70.3974L60.7014 45H57.3174ZM59.3814 35.484C58.7254 35.484 58.1214 35.328 57.5694 35.016C57.0254 34.696 56.5894 34.264 56.2614 33.72C55.9334 33.176 55.7694 32.568 55.7694 31.896C55.7694 31.208 55.9334 30.592 56.2614 30.048C56.5974 29.504 57.0374 29.076 57.5814 28.764C58.1334 28.452 58.7334 28.296 59.3814 28.296C60.0374 28.296 60.6374 28.456 61.1814 28.776C61.7254 29.096 62.1574 29.528 62.4774 30.072C62.8054 30.616 62.9694 31.224 62.9694 31.896C62.9694 32.576 62.8014 33.188 62.4654 33.732C62.1374 34.276 61.7014 34.704 61.1574 35.016C60.6134 35.328 60.0214 35.484 59.3814 35.484ZM59.3814 33.48C59.8134 33.48 60.1854 33.328 60.4974 33.024C60.8094 32.712 60.9654 32.336 60.9654 31.896C60.9654 31.448 60.8094 31.072 60.4974 30.768C60.1854 30.464 59.8134 30.312 59.3814 30.312C58.9414 30.312 58.5614 30.464 58.2414 30.768C57.9294 31.072 57.7734 31.448 57.7734 31.896C57.7734 32.336 57.9294 32.712 58.2414 33.024C58.5614 33.328 58.9414 33.48 59.3814 33.48ZM68.3334 44.916C67.6694 44.916 67.0654 44.752 66.5214 44.424C65.9774 44.088 65.5454 43.648 65.2254 43.104C64.9054 42.552 64.7454 41.96 64.7454 41.328C64.7454 40.64 64.9094 40.024 65.2374 39.48C65.5734 38.936 66.0134 38.508 66.5574 38.196C67.1094 37.876 67.7014 37.716 68.3334 37.716C69.0214 37.716 69.6374 37.884 70.1814 38.22C70.7254 38.556 71.1534 39 71.4654 39.552C71.7854 40.096 71.9454 40.688 71.9454 41.328C71.9454 41.984 71.7814 42.584 71.4534 43.128C71.1334 43.672 70.6974 44.108 70.1454 44.436C69.6014 44.756 68.9974 44.916 68.3334 44.916ZM68.3334 42.912C68.7814 42.912 69.1614 42.756 69.4734 42.444C69.7854 42.132 69.9414 41.76 69.9414 41.328C69.9414 40.88 69.7854 40.5 69.4734 40.188C69.1614 39.876 68.7814 39.72 68.3334 39.72C67.9014 39.72 67.5294 39.876 67.2174 40.188C66.9054 40.5 66.7494 40.88 66.7494 41.328C66.7494 41.76 66.9054 42.132 67.2174 42.444C67.5294 42.756 67.9014 42.912 68.3334 42.912Z" fill="#070C0F"/>
<path d="M41.2562 62.3871C40.5935 62.3871 39.9705 62.2564 39.3872 61.9951C38.8039 61.7291 38.2905 61.3627 37.8472 60.8961C37.4039 60.4294 37.0562 59.8904 36.8042 59.2791C36.5522 58.6631 36.4262 58.0051 36.4262 57.3051C36.4262 56.6051 36.5522 55.9494 36.8042 55.3381C37.0562 54.7221 37.4039 54.1807 37.8472 53.7141C38.2905 53.2474 38.8039 52.8834 39.3872 52.6221C39.9705 52.3561 40.5935 52.2231 41.2562 52.2231C41.9235 52.2231 42.5489 52.3561 43.1322 52.6221C43.7155 52.8834 44.2289 53.2474 44.6722 53.7141C45.1155 54.1807 45.4609 54.7221 45.7082 55.3381C45.9602 55.9494 46.0862 56.6051 46.0862 57.3051C46.0862 58.0051 45.9602 58.6631 45.7082 59.2791C45.4609 59.8904 45.1155 60.4294 44.6722 60.8961C44.2289 61.3627 43.7155 61.7291 43.1322 61.9951C42.5489 62.2564 41.9235 62.3871 41.2562 62.3871ZM41.2562 60.9311C41.7229 60.9311 42.1592 60.8354 42.5652 60.6441C42.9712 60.4527 43.3282 60.1914 43.6362 59.8601C43.9489 59.5241 44.1915 59.1391 44.3642 58.7051C44.5415 58.2664 44.6302 57.7997 44.6302 57.3051C44.6302 56.8104 44.5415 56.3437 44.3642 55.9051C44.1915 55.4664 43.9489 55.0814 43.6362 54.7501C43.3282 54.4141 42.9712 54.1527 42.5652 53.9661C42.1592 53.7747 41.7229 53.6791 41.2562 53.6791C40.7895 53.6791 40.3532 53.7747 39.9472 53.9661C39.5412 54.1574 39.1819 54.4211 38.8692 54.7571C38.5612 55.0884 38.3185 55.4734 38.1412 55.9121C37.9685 56.3461 37.8822 56.8104 37.8822 57.3051C37.8822 57.8044 37.9685 58.2734 38.1412 58.7121C38.3185 59.1461 38.5612 59.5311 38.8692 59.8671C39.1819 60.1984 39.5412 60.4597 39.9472 60.6511C40.3532 60.8377 40.7895 60.9311 41.2562 60.9311ZM47.4113 62.2051V52.4051H53.1863V53.8611H48.8673V56.2271H52.5143V57.6831H48.8673V62.2051H47.4113ZM54.2199 62.2051V52.4051H59.9949V53.8611H55.6759V56.2271H59.3229V57.6831H55.6759V62.2051H54.2199Z" fill="#070C0F" fill-opacity="0.6"/>
<defs>
<linearGradient id="paint0_linear_1_1995" x1="48" y1="4.37988" x2="48" y2="88.6216" gradientUnits="userSpaceOnUse">
<stop stop-color="#666666"/>
<stop offset="0.475962" stop-color="#FF9F1C" stop-opacity="0"/>
<stop offset="1" stop-color="#E3E3E3"/>
</linearGradient>
</defs>
</svg>
