<svg width="867" height="322" viewBox="0 0 867 322" fill="none" xmlns="http://www.w3.org/2000/svg">
<g clip-path="url(#clip0_1_1361)">
<g clip-path="url(#clip1_1_1361)">
<rect width="856" height="356" transform="translate(0 44.7996) rotate(-3)" fill="#0A0F17"/>
<path d="M30.1752 285.856L29.6477 275.79L28.4493 275.853L28.7103 274.717L30.7075 274.613L31.2937 285.797L30.1752 285.856ZM37.3467 285.688C36.6756 285.724 36.0686 285.606 35.5257 285.335C34.9825 285.059 34.5105 284.665 34.1098 284.152C33.7091 283.639 33.3919 283.038 33.1583 282.351C32.9297 281.658 32.7945 280.912 32.7526 280.113C32.7107 279.314 32.7672 278.558 32.9221 277.845C33.0823 277.132 33.3351 276.502 33.6802 275.955C34.0252 275.403 34.4534 274.964 34.9651 274.638C35.4764 274.307 36.0677 274.123 36.7387 274.088C37.4045 274.053 38.009 274.174 38.5522 274.45C39.0951 274.72 39.5642 275.112 39.9596 275.626C40.3548 276.134 40.6666 276.734 40.8952 277.427C41.1291 278.12 41.267 278.866 41.3089 279.665C41.3507 280.464 41.2915 281.22 41.1313 281.933C40.9762 282.641 40.7288 283.271 40.3892 283.823C40.0496 284.374 39.6241 284.816 39.1128 285.147C38.6011 285.473 38.0124 285.653 37.3467 285.688ZM37.2881 284.57C37.9911 284.533 38.5683 284.286 39.0197 283.83C39.4765 283.374 39.8061 282.785 40.0086 282.064C40.2109 281.338 40.2901 280.557 40.2463 279.72C40.2 278.836 40.0332 278.049 39.7461 277.359C39.4639 276.664 39.0725 276.124 38.5716 275.739C38.0758 275.348 37.4844 275.171 36.7974 275.207C36.2541 275.235 35.7866 275.385 35.395 275.657C35.0033 275.928 34.6858 276.289 34.4424 276.74C34.199 277.191 34.0255 277.702 33.9219 278.273C33.8181 278.84 33.7825 279.434 33.8151 280.057C33.8592 280.899 34.0225 281.67 34.3049 282.371C34.587 283.067 34.979 283.617 35.481 284.024C35.9827 284.425 36.585 284.607 37.2881 284.57ZM46.7088 285.198C46.0377 285.233 45.4308 285.115 44.8878 284.845C44.3447 284.569 43.8727 284.174 43.472 283.661C43.0712 283.148 42.7541 282.548 42.5204 281.86C42.2918 281.167 42.1566 280.421 42.1147 279.622C42.0729 278.824 42.1294 278.068 42.2843 277.355C42.4445 276.641 42.6972 276.011 43.0424 275.464C43.3873 274.912 43.8156 274.473 44.3272 274.147C44.8386 273.816 45.4298 273.633 46.1009 273.598C46.7666 273.563 47.3711 273.683 47.9143 273.959C48.4572 274.23 48.9264 274.622 49.3218 275.135C49.7169 275.643 50.0288 276.244 50.2573 276.937C50.4912 277.629 50.6291 278.375 50.671 279.174C50.7129 279.973 50.6537 280.729 50.4935 281.442C50.3383 282.15 50.0909 282.78 49.7513 283.332C49.4118 283.884 48.9863 284.325 48.4749 284.657C47.9633 284.982 47.3746 285.163 46.7088 285.198ZM46.6502 284.079C47.3532 284.042 47.9305 283.796 48.3819 283.34C48.8386 282.883 49.1682 282.294 49.3708 281.573C49.5731 280.847 49.6523 280.066 49.6085 279.23C49.5621 278.346 49.3954 277.559 49.1082 276.869C48.8261 276.173 48.4346 275.633 47.9338 275.248C47.438 274.857 46.8466 274.68 46.1595 274.716C45.6163 274.745 45.1488 274.895 44.7571 275.166C44.3655 275.438 44.0479 275.799 43.8045 276.249C43.5611 276.7 43.3876 277.211 43.2841 277.783C43.1802 278.349 43.1446 278.944 43.1773 279.567C43.2214 280.408 43.3846 281.179 43.667 281.88C43.9492 282.576 44.3412 283.127 44.8432 283.533C45.3448 283.934 45.9472 284.116 46.6502 284.079Z" fill="#97ABCB"/>
<path d="M35.4843 331.06C34.8132 331.095 34.2062 330.977 33.6633 330.707C33.1201 330.431 32.6482 330.036 32.2475 329.523C31.8467 329.01 31.5295 328.41 31.2959 327.722C31.0673 327.029 30.9321 326.284 30.8902 325.485C30.8484 324.686 30.9049 323.93 31.0598 323.217C31.22 322.503 31.4727 321.873 31.8179 321.326C32.1628 320.774 32.5911 320.335 33.1027 320.009C33.6141 319.678 34.2053 319.495 34.8764 319.46C35.5421 319.425 36.1466 319.545 36.6898 319.821C37.2327 320.092 37.7019 320.484 38.0973 320.997C38.4924 321.505 38.8042 322.106 39.0328 322.799C39.2667 323.492 39.4046 324.237 39.4465 325.036C39.4884 325.835 39.4292 326.591 39.269 327.305C39.1138 328.012 38.8664 328.642 38.5268 329.194C38.1873 329.746 37.7618 330.187 37.2504 330.519C36.7388 330.845 36.1501 331.025 35.4843 331.06ZM35.4257 329.941C36.1287 329.905 36.706 329.658 37.1574 329.202C37.6141 328.745 37.9437 328.156 38.1463 327.436C38.3486 326.709 38.4278 325.928 38.384 325.092C38.3376 324.208 38.1709 323.421 37.8837 322.731C37.6016 322.035 37.2101 321.495 36.7093 321.11C36.2135 320.72 35.6221 320.542 34.935 320.578C34.3917 320.607 33.9243 320.757 33.5326 321.028C33.141 321.3 32.8234 321.661 32.58 322.112C32.3366 322.562 32.1631 323.073 32.0596 323.645C31.9557 324.211 31.9201 324.806 31.9528 325.429C31.9969 326.27 32.1601 327.042 32.4425 327.742C32.7247 328.438 33.1167 328.989 33.6186 329.395C34.1203 329.796 34.7227 329.978 35.4257 329.941Z" fill="#97ABCB"/>
<path d="M26.1583 232.137L26.1064 231.146C26.5219 230.718 26.9781 230.251 27.4749 229.745C27.9714 229.233 28.462 228.707 28.9465 228.169C29.436 227.626 29.8807 227.092 30.2806 226.569C30.6801 226.041 30.996 225.546 31.2282 225.086C31.4655 224.619 31.575 224.213 31.5569 223.867C31.5348 223.446 31.4109 223.068 31.185 222.733C30.9642 222.392 30.6753 222.127 30.3182 221.937C29.9661 221.742 29.5797 221.655 29.159 221.677C28.7382 221.699 28.3577 221.826 28.0173 222.058C27.682 222.283 27.4197 222.578 27.2304 222.94C27.0409 223.297 26.9571 223.686 26.9792 224.107L25.8607 224.165C25.8272 223.526 25.9514 222.94 26.2332 222.407C26.5204 221.874 26.9143 221.442 27.415 221.112C27.9154 220.776 28.4772 220.592 29.1004 220.559C29.7235 220.526 30.2988 220.651 30.8263 220.933C31.3591 221.215 31.7909 221.606 32.1215 222.107C32.4575 222.607 32.6421 223.174 32.6753 223.808C32.6952 224.186 32.6157 224.607 32.4371 225.07C32.2635 225.528 32.0189 226.008 31.7034 226.511C31.3877 227.008 31.0296 227.513 30.6292 228.025C30.2288 228.537 29.8092 229.04 29.3704 229.533C28.9313 230.021 28.5042 230.481 28.0889 230.914L33.2019 230.646L33.2605 231.764L26.1583 232.137ZM38.6006 231.693C37.9295 231.728 37.3225 231.61 36.7796 231.34C36.2364 231.064 35.7645 230.669 35.3637 230.156C34.963 229.643 34.6458 229.043 34.4122 228.356C34.1836 227.663 34.0484 226.917 34.0065 226.118C33.9647 225.319 34.0212 224.563 34.1761 223.85C34.3363 223.136 34.589 222.506 34.9342 221.959C35.2791 221.407 35.7074 220.968 36.219 220.642C36.7304 220.311 37.3216 220.128 37.9927 220.093C38.6584 220.058 39.2629 220.178 39.8061 220.454C40.349 220.725 40.8181 221.117 41.2136 221.63C41.6087 222.138 41.9205 222.739 42.1491 223.432C42.383 224.125 42.5209 224.87 42.5628 225.669C42.6047 226.468 42.5455 227.224 42.3853 227.938C42.2301 228.645 41.9827 229.275 41.6431 229.827C41.3035 230.379 40.8781 230.821 40.3667 231.152C39.8551 231.478 39.2664 231.658 38.6006 231.693ZM38.542 230.574C39.245 230.538 39.8222 230.291 40.2737 229.835C40.7304 229.378 41.06 228.79 41.2626 228.069C41.4648 227.342 41.5441 226.561 41.5002 225.725C41.4539 224.841 41.2872 224.054 41 223.364C40.7179 222.668 40.3264 222.128 39.8256 221.743C39.3298 221.353 38.7383 221.175 38.0513 221.211C37.508 221.24 37.0406 221.39 36.6489 221.661C36.2573 221.933 35.9397 222.294 35.6963 222.745C35.4529 223.195 35.2794 223.706 35.1758 224.278C35.072 224.844 35.0364 225.439 35.0691 226.062C35.1132 226.904 35.2764 227.675 35.5588 228.376C35.8409 229.071 36.233 229.622 36.7349 230.028C37.2366 230.429 37.839 230.611 38.542 230.574ZM47.9628 231.202C47.2917 231.237 46.6847 231.12 46.1418 230.849C45.5986 230.573 45.1266 230.179 44.7259 229.666C44.3252 229.153 44.008 228.552 43.7744 227.865C43.5458 227.172 43.4105 226.426 43.3687 225.627C43.3268 224.828 43.3833 224.072 43.5382 223.359C43.6984 222.646 43.9511 222.016 44.2963 221.469C44.6412 220.917 45.0695 220.478 45.5812 220.152C46.0925 219.821 46.6837 219.637 47.3548 219.602C48.0206 219.567 48.625 219.688 49.1682 219.964C49.7111 220.234 50.1803 220.626 50.5757 221.14C50.9708 221.648 51.2827 222.248 51.5113 222.941C51.7452 223.634 51.8831 224.38 51.9249 225.179C51.9668 225.978 51.9076 226.734 51.7474 227.447C51.5922 228.155 51.3449 228.785 51.0053 229.336C50.6657 229.888 50.2402 230.33 49.7289 230.661C49.2172 230.987 48.6285 231.167 47.9628 231.202ZM47.9041 230.084C48.6072 230.047 49.1844 229.8 49.6358 229.344C50.0925 228.888 50.4222 228.299 50.6247 227.578C50.827 226.852 50.9062 226.071 50.8624 225.234C50.8161 224.35 50.6493 223.563 50.3621 222.873C50.08 222.178 49.6885 221.638 49.1877 221.253C48.6919 220.862 48.1005 220.685 47.4134 220.721C46.8702 220.749 46.4027 220.899 46.0111 221.171C45.6194 221.442 45.3019 221.803 45.0585 222.254C44.8151 222.705 44.6416 223.216 44.538 223.787C44.4342 224.354 44.3986 224.948 44.4312 225.571C44.4753 226.413 44.6386 227.184 44.921 227.885C45.2031 228.58 45.5951 229.131 46.0971 229.538C46.5988 229.939 47.2011 230.121 47.9041 230.084Z" fill="#97ABCB"/>
<path d="M26.6341 178.39C25.9523 178.426 25.3453 178.308 24.8131 178.037C24.2805 177.76 23.8546 177.377 23.5351 176.886C23.221 176.395 23.0479 175.844 23.0158 175.231L24.1342 175.173C24.1555 175.577 24.2682 175.945 24.4725 176.276C24.6818 176.602 24.9649 176.857 25.3217 177.041C25.6782 177.22 26.0961 177.297 26.5754 177.272C26.9802 177.25 27.3532 177.132 27.6944 176.917C28.0406 176.696 28.3141 176.411 28.5149 176.064C28.7208 175.712 28.8131 175.333 28.7918 174.928C28.7653 174.422 28.6155 174.008 28.3422 173.686C28.0687 173.359 27.7039 173.124 27.2479 172.983C26.7916 172.836 26.2758 172.777 25.7006 172.807L25.652 171.881C26.4456 171.839 27.0733 171.638 27.535 171.277C28.0018 170.911 28.2181 170.4 28.1837 169.745C28.165 169.388 28.0495 169.069 27.8371 168.786C27.63 168.503 27.3647 168.282 27.0413 168.123C26.7229 167.958 26.3852 167.885 26.0284 167.903C25.6716 167.922 25.3328 168.031 25.012 168.229C24.6964 168.422 24.4424 168.67 24.25 168.974C24.063 169.278 23.9788 169.608 23.9975 169.965L22.879 170.023C22.857 169.602 22.9242 169.204 23.0807 168.827C23.2369 168.445 23.4594 168.105 23.7482 167.807C24.037 167.508 24.3716 167.269 24.752 167.089C25.1325 166.909 25.5357 166.808 25.9618 166.785C26.521 166.756 27.0476 166.867 27.5414 167.119C28.0406 167.371 28.4515 167.72 28.774 168.168C29.0966 168.616 29.2726 169.122 29.3022 169.687C29.331 170.235 29.2158 170.738 28.9567 171.195C28.6976 171.652 28.3331 171.983 27.8632 172.189C28.2859 172.306 28.6458 172.498 28.9429 172.766C29.2397 173.028 29.4696 173.339 29.6326 173.699C29.7957 174.059 29.8883 174.449 29.9103 174.87C29.9424 175.482 29.8119 176.05 29.5189 176.573C29.2258 177.095 28.8236 177.522 28.3123 177.854C27.806 178.179 27.2466 178.358 26.6341 178.39ZM35.3295 177.934C34.6584 177.97 34.0514 177.852 33.5085 177.581C32.9653 177.305 32.4934 176.911 32.0926 176.398C31.6919 175.885 31.3747 175.284 31.1411 174.597C30.9125 173.904 30.7773 173.158 30.7354 172.359C30.6936 171.56 30.7501 170.804 30.905 170.091C31.0652 169.378 31.3179 168.748 31.6631 168.201C32.008 167.649 32.4363 167.21 32.9479 166.884C33.4593 166.553 34.0505 166.37 34.7216 166.334C35.3873 166.299 35.9918 166.42 36.535 166.696C37.0779 166.967 37.547 167.359 37.9424 167.872C38.3376 168.38 38.6494 168.98 38.878 169.673C39.1119 170.366 39.2498 171.112 39.2917 171.911C39.3335 172.71 39.2744 173.466 39.1142 174.179C38.959 174.887 38.7116 175.517 38.372 176.069C38.0324 176.62 37.607 177.062 37.0956 177.393C36.584 177.719 35.9953 177.9 35.3295 177.934ZM35.2709 176.816C35.9739 176.779 36.5511 176.533 37.0025 176.076C37.4593 175.62 37.7889 175.031 37.9915 174.31C38.1937 173.584 38.273 172.803 38.2291 171.966C38.1828 171.082 38.0161 170.295 37.7289 169.605C37.4468 168.91 37.0553 168.37 36.5545 167.985C36.0587 167.594 35.4672 167.417 34.7802 167.453C34.2369 167.481 33.7695 167.631 33.3778 167.903C32.9862 168.174 32.6686 168.535 32.4252 168.986C32.1818 169.437 32.0083 169.948 31.9047 170.519C31.8009 171.086 31.7653 171.68 31.798 172.304C31.8421 173.145 32.0053 173.916 32.2877 174.617C32.5698 175.313 32.9619 175.863 33.4638 176.27C33.9655 176.671 34.5678 176.853 35.2709 176.816ZM44.6917 177.444C44.0206 177.479 43.4136 177.361 42.8707 177.091C42.3275 176.815 41.8555 176.42 41.4548 175.907C41.0541 175.394 40.7369 174.794 40.5032 174.106C40.2747 173.413 40.1394 172.667 40.0976 171.869C40.0557 171.07 40.1122 170.314 40.2671 169.601C40.4273 168.887 40.68 168.257 41.0252 167.71C41.3701 167.158 41.7984 166.719 42.3101 166.393C42.8214 166.062 43.4126 165.879 44.0837 165.844C44.7495 165.809 45.3539 165.929 45.8971 166.205C46.44 166.476 46.9092 166.868 47.3046 167.381C47.6997 167.889 48.0116 168.49 48.2402 169.183C48.4741 169.875 48.612 170.621 48.6538 171.42C48.6957 172.219 48.6365 172.975 48.4763 173.689C48.3211 174.396 48.0738 175.026 47.7342 175.578C47.3946 176.13 46.9691 176.571 46.4578 176.903C45.9461 177.228 45.3574 177.409 44.6917 177.444ZM44.633 176.325C45.3361 176.288 45.9133 176.042 46.3647 175.586C46.8214 175.129 47.1511 174.54 47.3536 173.819C47.5559 173.093 47.6351 172.312 47.5913 171.476C47.545 170.592 47.3782 169.805 47.091 169.115C46.8089 168.419 46.4174 167.879 45.9166 167.494C45.4208 167.103 44.8294 166.926 44.1423 166.962C43.5991 166.991 43.1316 167.141 42.74 167.412C42.3483 167.684 42.0308 168.045 41.7874 168.495C41.5439 168.946 41.3705 169.457 41.2669 170.029C41.163 170.595 41.1275 171.19 41.1601 171.813C41.2042 172.654 41.3675 173.426 41.6499 174.126C41.932 174.822 42.324 175.373 42.826 175.779C43.3276 176.18 43.93 176.362 44.633 176.325Z" fill="#97ABCB"/>
<path d="M25.3465 124.319L25.1819 121.18L20.3565 121.433L20.2971 120.298L24.4727 113.15L25.8788 113.076L26.2418 120.003L27.4161 119.941L27.4748 121.06L26.3004 121.121L26.4649 124.261L25.3465 124.319ZM21.6233 120.229L25.1233 120.061L24.8201 114.734L21.6233 120.229ZM32.901 124.132C32.2299 124.167 31.6229 124.049 31.08 123.779C30.5368 123.503 30.0649 123.108 29.6641 122.595C29.2634 122.082 28.9462 121.482 28.7126 120.794C28.484 120.101 28.3488 119.355 28.3069 118.557C28.265 117.758 28.3216 117.002 28.4764 116.289C28.6367 115.575 28.8894 114.945 29.2346 114.398C29.5795 113.846 30.0077 113.407 30.5194 113.081C31.0308 112.75 31.622 112.567 32.2931 112.532C32.9588 112.497 33.5633 112.617 34.1065 112.893C34.6494 113.164 35.1185 113.556 35.5139 114.069C35.9091 114.577 36.2209 115.178 36.4495 115.871C36.6834 116.563 36.8213 117.309 36.8632 118.108C36.905 118.907 36.8459 119.663 36.6856 120.377C36.5305 121.084 36.2831 121.714 35.9435 122.266C35.6039 122.818 35.1785 123.259 34.6671 123.591C34.1554 123.916 33.5667 124.097 32.901 124.132ZM32.8424 123.013C33.5454 122.976 34.1226 122.73 34.574 122.274C35.0308 121.817 35.3604 121.228 35.563 120.507C35.7652 119.781 35.8444 119 35.8006 118.164C35.7543 117.28 35.5875 116.493 35.3004 115.803C35.0182 115.107 34.6268 114.567 34.1259 114.182C33.6301 113.791 33.0387 113.614 32.3517 113.65C31.8084 113.679 31.341 113.829 30.9493 114.1C30.5576 114.372 30.2401 114.733 29.9967 115.183C29.7533 115.634 29.5798 116.145 29.4762 116.717C29.3724 117.283 29.3368 117.878 29.3694 118.501C29.4136 119.342 29.5768 120.114 29.8592 120.814C30.1413 121.51 30.5334 122.061 31.0353 122.467C31.537 122.868 32.1393 123.05 32.8424 123.013ZM42.2631 123.641C41.5921 123.676 40.9851 123.559 40.4422 123.288C39.899 123.012 39.427 122.617 39.0263 122.104C38.6255 121.591 38.3084 120.991 38.0747 120.304C37.8462 119.611 37.7109 118.865 37.6691 118.066C37.6272 117.267 37.6837 116.511 37.8386 115.798C37.9988 115.085 38.2515 114.454 38.5967 113.908C38.9416 113.355 39.3699 112.916 39.8815 112.591C40.3929 112.259 40.9841 112.076 41.6552 112.041C42.321 112.006 42.9254 112.127 43.4686 112.403C44.0115 112.673 44.4807 113.065 44.8761 113.579C45.2712 114.087 45.5831 114.687 45.8117 115.38C46.0456 116.073 46.1834 116.819 46.2253 117.617C46.2672 118.416 46.208 119.173 46.0478 119.886C45.8926 120.594 45.6452 121.223 45.3057 121.775C44.9661 122.327 44.5406 122.769 44.0292 123.1C43.5176 123.426 42.9289 123.606 42.2631 123.641ZM42.2045 122.523C42.9076 122.486 43.4848 122.239 43.9362 121.783C44.3929 121.326 44.7226 120.738 44.9251 120.017C45.1274 119.291 45.2066 118.509 45.1628 117.673C45.1164 116.789 44.9497 116.002 44.6625 115.312C44.3804 114.617 43.9889 114.076 43.4881 113.691C42.9923 113.301 42.4009 113.123 41.7138 113.159C41.1706 113.188 40.7031 113.338 40.3115 113.609C39.9198 113.881 39.6023 114.242 39.3588 114.693C39.1154 115.144 38.9419 115.655 38.8384 116.226C38.7345 116.792 38.6989 117.387 38.7316 118.01C38.7757 118.852 38.939 119.623 39.2214 120.324C39.5035 121.019 39.8955 121.57 40.3975 121.976C40.8991 122.377 41.5015 122.559 42.2045 122.523Z" fill="#97ABCB"/>
<path d="M30.9341 64.9337L31.0873 67.8577L25.9584 68.1265L26.6844 81.9795L23.7604 82.1327L23.0344 68.2797L17.9054 68.5485L17.7522 65.6245L30.9341 64.9337ZM40.7892 69.2238L43.7132 69.0706L44.3412 81.0541L41.4172 81.2073L41.2075 79.7283C40.908 80.2807 40.4954 80.7389 39.9698 81.103C39.4517 81.4586 38.8251 81.6556 38.0901 81.6941C37.2034 81.7406 36.3637 81.6164 35.5712 81.3215C34.7787 81.0265 34.0713 80.599 33.4491 80.0388C32.835 79.4781 32.3398 78.8191 31.9636 78.0618C31.5955 77.304 31.3882 76.4818 31.3417 75.595C31.2969 74.7401 31.4106 73.9291 31.6828 73.1618C31.963 72.3941 32.3719 71.7117 32.9094 71.1148C33.4469 70.5178 34.0787 70.0401 34.805 69.6816C35.5312 69.3231 36.3217 69.1215 37.1765 69.0767C37.9675 69.0352 38.6837 69.1739 39.3253 69.4928C39.9748 69.8112 40.5335 70.2306 41.0014 70.7508L40.7892 69.2238ZM37.8707 78.8818C38.4938 78.8491 39.0369 78.6644 39.4999 78.3277C39.9629 77.9911 40.3164 77.5519 40.5604 77.0104C40.804 76.4609 40.909 75.8666 40.8755 75.2275C40.8416 74.5804 40.675 74.0003 40.3758 73.4873C40.0761 72.9662 39.6744 72.5627 39.1708 72.2767C38.6751 71.9902 38.1197 71.8631 37.5045 71.8954C36.8894 71.9276 36.3345 72.1169 35.84 72.4633C35.353 72.8012 34.9715 73.2418 34.6956 73.785C34.4276 74.3277 34.3106 74.9227 34.3445 75.5698C34.3784 76.2169 34.561 76.7961 34.8922 77.3075C35.2234 77.8189 35.6488 78.2171 36.1685 78.5023C36.6961 78.7871 37.2635 78.9136 37.8707 78.8818ZM50.2756 80.9594C49.6503 80.9521 49.0407 80.8599 48.4466 80.6827C47.8601 80.4972 47.3335 80.2324 46.8669 79.8883C46.4002 79.5443 46.0336 79.1229 45.7672 78.6241L48.1805 77.4402C48.2848 77.595 48.4496 77.7586 48.6749 77.931C48.8998 78.0955 49.1632 78.2299 49.4651 78.3342C49.7749 78.4381 50.1096 78.4807 50.4691 78.4618C50.7727 78.4459 51.0582 78.3909 51.3257 78.2968C51.6007 78.1943 51.8175 78.0507 51.976 77.8662C52.1426 77.6812 52.2185 77.4489 52.2039 77.1693C52.1884 76.8737 52.0726 76.6514 51.8565 76.5025C51.648 76.3452 51.3858 76.2348 51.0701 76.1713C50.7619 76.0993 50.4621 76.0349 50.1707 75.9781C49.4038 75.866 48.6844 75.6674 48.0126 75.3822C47.3487 75.0965 46.8039 74.7125 46.3781 74.2302C45.9598 73.7394 45.7318 73.1345 45.6941 72.4155C45.6527 71.6245 45.8246 70.9306 46.2099 70.3336C46.6032 69.7362 47.1272 69.2641 47.7819 68.9174C48.4447 68.5702 49.1675 68.3761 49.9504 68.3351C50.9011 68.2853 51.7824 68.4394 52.5942 68.7974C53.4137 69.147 54.0739 69.6691 54.5749 70.3639L52.3337 71.8512C52.2118 71.6653 52.0468 71.4977 51.8387 71.3484C51.6302 71.1911 51.3954 71.0672 51.1343 70.9768C50.8728 70.8783 50.6018 70.8284 50.3214 70.8271C49.961 70.83 49.6351 70.8791 49.3437 70.9745C49.0523 71.0699 48.8198 71.2182 48.6461 71.4196C48.4804 71.6206 48.4059 71.8808 48.4226 72.2004C48.4385 72.504 48.5703 72.7254 48.8179 72.8646C49.0651 72.9958 49.3586 73.0926 49.6983 73.1549C50.046 73.2168 50.3782 73.2875 50.6948 73.3671C51.41 73.5619 52.0839 73.811 52.7167 74.1143C53.3574 74.4171 53.8783 74.8024 54.2793 75.2701C54.6803 75.7377 54.8906 76.3115 54.9103 76.9914C54.9509 77.7663 54.7548 78.4575 54.322 79.065C53.8888 79.6645 53.3126 80.1353 52.5935 80.4774C51.8824 80.8191 51.1098 80.9798 50.2756 80.9594ZM67.8458 79.8223L64.4785 79.9988L61.4994 75.4324L59.9266 77.5216L60.0685 80.2299L57.1445 80.3831L56.2025 62.4078L59.1265 62.2545L59.6885 72.9798L63.407 68.0384L67.2298 67.8381L63.3763 72.9548L67.8458 79.8223ZM75.7284 79.4092L74.8491 62.6322L80.4095 62.3408C81.5679 62.2801 82.662 62.443 83.6916 62.8297C84.7288 63.2079 85.6512 63.7644 86.4588 64.4992C87.2739 65.2255 87.9238 66.0847 88.4083 67.0767C88.9005 68.0602 89.1769 69.1312 89.2376 70.2897C89.2983 71.4481 89.1356 72.5461 88.7494 73.5837C88.3707 74.613 87.8142 75.5353 87.0799 76.3509C86.3531 77.158 85.494 77.8079 84.5024 78.3005C83.5184 78.7846 82.4472 79.0571 81.2888 79.1178L75.7284 79.4092ZM78.4991 76.3319L81.1355 76.1938C81.8785 76.1548 82.5702 75.9784 83.2107 75.6645C83.8587 75.3421 84.4214 74.9201 84.8987 74.3984C85.3756 73.8687 85.7407 73.2688 85.994 72.5986C86.2469 71.9204 86.3534 71.2019 86.3136 70.4429C86.2739 69.6839 86.093 68.9844 85.7711 68.3444C85.4491 67.7044 85.0233 67.1459 84.4936 66.669C83.9639 66.192 83.3642 65.8309 82.6945 65.5857C82.0243 65.3324 81.3137 65.2254 80.5628 65.2648L77.9264 65.4029L78.4991 76.3319ZM96.7459 78.6201C95.6434 78.6779 94.6219 78.447 93.6815 77.9276C92.749 77.4076 91.9862 76.6866 91.3931 75.7644C90.8076 74.8337 90.4845 73.7892 90.4238 72.6308C90.3777 71.752 90.4906 70.925 90.7624 70.1497C91.0338 69.3664 91.426 68.6729 91.9391 68.0692C92.4598 67.4571 93.0751 66.9683 93.7849 66.6026C94.4947 66.237 95.2611 66.0326 96.084 65.9895C97.1864 65.9317 98.2039 66.1627 99.1364 66.6827C100.077 67.2021 100.84 67.9272 101.425 68.8578C102.019 69.7881 102.346 70.8364 102.407 72.0028C102.453 72.8736 102.34 73.6966 102.068 74.4719C101.796 75.2472 101.4 75.9409 100.879 76.553C100.366 77.1566 99.7548 77.6413 99.045 78.007C98.3431 78.3722 97.5768 78.5766 96.7459 78.6201ZM96.5927 75.6961C97.1759 75.6656 97.691 75.4824 98.138 75.1465C98.585 74.8106 98.927 74.3802 99.1638 73.855C99.4087 73.3295 99.5152 72.7632 99.4833 72.156C99.4507 71.5329 99.2811 70.973 98.9747 70.4763C98.6759 69.9713 98.2828 69.5793 97.7956 69.3004C97.3159 69.0131 96.7964 68.8841 96.2372 68.9134C95.662 68.9436 95.1509 69.1266 94.7038 69.4624C94.2568 69.7983 93.9111 70.233 93.6667 70.7665C93.4222 71.3 93.3159 71.8704 93.3478 72.4775C93.3808 73.1087 93.5506 73.6726 93.857 74.1692C94.1634 74.6659 94.5563 75.0538 95.0355 75.3331C95.5224 75.604 96.0414 75.725 96.5927 75.6961ZM115.167 69.7479L115.564 77.3215L112.64 77.4747L112.283 70.6681C112.259 70.1967 112.121 69.7754 111.869 69.404C111.617 69.0247 111.289 68.7335 110.886 68.5303C110.49 68.3187 110.057 68.2252 109.585 68.25C109.114 68.2747 108.689 68.4131 108.309 68.6653C107.937 68.9091 107.646 69.2328 107.435 69.6364C107.231 70.0316 107.142 70.4649 107.166 70.9362L107.523 77.7429L104.599 77.8961L103.959 65.9132L106.883 65.76L106.951 66.8259C107.336 66.3731 107.805 66.008 108.36 65.7306C108.913 65.4453 109.518 65.2854 110.173 65.2511C111.044 65.2054 111.85 65.3795 112.592 65.7732C113.333 66.1589 113.934 66.7002 114.395 67.397C114.864 68.0855 115.121 68.8691 115.167 69.7479ZM123.007 77.2438C121.904 77.3016 120.883 77.0708 119.942 76.5513C119.01 76.0314 118.247 75.3063 117.653 74.3761C117.068 73.4455 116.745 72.4009 116.684 71.2425C116.638 70.3717 116.751 69.5487 117.023 68.7734C117.295 67.9901 117.687 67.2966 118.2 66.693C118.721 66.0809 119.336 65.592 120.046 65.2263C120.756 64.8607 121.522 64.6563 122.345 64.6132C123.28 64.5642 124.145 64.7191 124.941 65.078C125.744 65.4284 126.435 65.9329 127.015 66.5915C127.594 67.2501 128.03 68.0123 128.324 68.8781C128.618 69.7439 128.722 70.6597 128.636 71.6255L119.876 72.0846C120.012 72.5261 120.217 72.9199 120.491 73.2661C120.765 73.6042 121.104 73.8708 121.506 74.066C121.909 74.2532 122.358 74.3378 122.853 74.3199C123.365 74.3011 123.822 74.1569 124.225 73.8875C124.635 73.6097 124.968 73.2477 125.225 72.8017L128.246 73.3403C127.814 74.4284 127.133 75.3373 126.202 76.067C125.27 76.7888 124.205 77.181 123.007 77.2438ZM119.666 69.8966L125.562 69.5876C125.449 69.1129 125.238 68.6913 124.93 68.3229C124.63 67.9461 124.267 67.6528 123.839 67.4429C123.411 67.233 122.958 67.1406 122.479 67.1657C121.999 67.1908 121.562 67.3299 121.167 67.5829C120.771 67.828 120.439 68.1538 120.172 68.5603C119.913 68.9584 119.744 69.4039 119.666 69.8966Z" fill="#12C362"/>
<path d="M634.063 48.1453L633.404 35.5625L637.565 35.3445C638.434 35.2989 639.258 35.421 640.036 35.7107C640.814 35.9943 641.506 36.4117 642.111 36.9628C642.717 37.5078 643.201 38.1524 643.564 38.8964C643.934 39.634 644.141 40.4373 644.186 41.3061C644.232 42.1749 644.11 42.9984 643.82 43.7767C643.536 44.5486 643.122 45.2402 642.577 45.8516C642.032 46.4569 641.388 46.9443 640.644 47.3137C639.9 47.6772 639.094 47.8817 638.225 47.9272L634.063 48.1453ZM635.494 46.5562L638.146 46.4173C638.805 46.3827 639.415 46.2275 639.978 45.9517C640.546 45.6696 641.037 45.2984 641.452 44.8381C641.866 44.3778 642.181 43.8536 642.396 43.2655C642.618 42.6711 642.711 42.0443 642.676 41.3852C642.642 40.7261 642.484 40.1156 642.202 39.5536C641.926 38.9852 641.555 38.494 641.088 38.0798C640.628 37.6654 640.104 37.3504 639.516 37.1348C638.927 36.9133 638.304 36.8198 637.644 36.8544L634.993 36.9933L635.494 46.5562ZM652.738 38.1542L654.248 38.0751L654.719 47.0628L653.209 47.1419L653.066 45.6263C652.812 46.1623 652.445 46.6052 651.964 46.9548C651.49 47.3041 650.911 47.4966 650.228 47.5324C649.569 47.567 648.945 47.4765 648.357 47.261C647.769 47.0395 647.242 46.7216 646.775 46.3075C646.315 45.887 645.946 45.3956 645.671 44.8333C645.395 44.2709 645.239 43.6572 645.205 42.9921C645.171 42.351 645.259 41.7396 645.469 41.1578C645.679 40.576 645.985 40.0613 646.388 39.6135C646.797 39.1595 647.277 38.7979 647.828 38.5287C648.378 38.2536 648.977 38.099 649.624 38.0651C650.331 38.028 650.96 38.1633 651.511 38.4709C652.061 38.7725 652.515 39.1783 652.872 39.6883L652.738 38.1542ZM650.124 46.0689C650.718 46.0378 651.222 45.8671 651.639 45.5569C652.061 45.2404 652.375 44.8274 652.583 44.3178C652.797 43.8079 652.888 43.2534 652.856 42.6542C652.824 42.043 652.676 41.4981 652.41 41.0193C652.144 40.5346 651.785 40.1598 651.333 39.8952C650.886 39.6242 650.369 39.5041 649.782 39.5348C649.189 39.5659 648.657 39.741 648.187 40.06C647.717 40.379 647.352 40.7948 647.09 41.3071C646.834 41.8132 646.722 42.3689 646.754 42.974C646.785 43.5792 646.961 44.1227 647.281 44.6047C647.6 45.0806 648.01 45.4527 648.511 45.7208C649.011 45.983 649.549 46.099 650.124 46.0689ZM656.044 37.981L657.554 37.9018L658.025 46.8895L656.515 46.9686L656.044 37.981ZM656.74 36.4755C656.501 36.488 656.296 36.4207 656.126 36.2734C655.956 36.126 655.865 35.9355 655.853 35.7019C655.84 35.4682 655.911 35.2692 656.065 35.105C656.218 34.9407 656.412 34.8524 656.646 34.8402C656.879 34.8279 657.081 34.8955 657.251 35.0428C657.421 35.1901 657.512 35.3806 657.524 35.6143C657.536 35.8479 657.466 36.0469 657.312 36.2112C657.165 36.3751 656.974 36.4632 656.74 36.4755ZM660.237 46.7736L659.53 33.2921L661.04 33.213L661.746 46.6945L660.237 46.7736ZM669.24 37.2894L670.84 37.2056L666.63 50.9447L665.03 51.0286L666.421 46.4495L662.724 37.6309L664.377 37.5442L667.067 44.3338L669.24 37.2894Z" fill="#D1DAE8"/>
<path d="M696.624 44.8667L692.747 32.4526L694.301 32.3711L697.356 42.1696L699.361 32.1059L700.719 32.0348L703.774 41.8333L705.779 31.7696L707.334 31.6881L704.793 44.4385L703.032 44.5308L700.226 35.5393L698.376 44.7748L696.624 44.8667ZM712.5 44.2689C711.673 44.3122 710.907 44.1391 710.202 43.7495C709.503 43.3596 708.931 42.8188 708.486 42.1271C708.047 41.4291 707.804 40.6457 707.759 39.7769C707.724 39.1178 707.809 38.4975 708.013 37.9161C708.216 37.3286 708.51 36.8085 708.895 36.3557C709.286 35.8967 709.747 35.53 710.28 35.2558C710.812 34.9815 711.387 34.8283 712.004 34.7959C712.681 34.7604 713.308 34.8657 713.886 35.1118C714.469 35.3516 714.974 35.7037 715.401 36.168C715.834 36.632 716.166 37.1793 716.398 37.8101C716.635 38.4405 716.746 39.1227 716.73 39.8565L709.396 40.2408C709.495 40.7464 709.686 41.193 709.971 41.5806C710.256 41.9622 710.608 42.2592 711.027 42.4715C711.453 42.6836 711.918 42.7794 712.421 42.759C712.96 42.7307 713.442 42.5673 713.864 42.2688C714.287 41.9642 714.621 41.5622 714.865 41.0628L716.42 41.3417C716.103 42.1575 715.595 42.839 714.896 43.3863C714.198 43.9276 713.399 44.2218 712.5 44.2689ZM709.289 39.0568L715.149 38.7497C715.075 38.2489 714.889 37.799 714.592 37.4C714.294 36.9951 713.926 36.6779 713.487 36.4485C713.049 36.2192 712.578 36.1177 712.075 36.1441C711.571 36.1704 711.116 36.3175 710.71 36.5851C710.303 36.8527 709.973 37.2035 709.719 37.6374C709.471 38.0649 709.328 38.5381 709.289 39.0568ZM722.366 43.7519C721.539 43.7952 720.773 43.6221 720.067 43.2325C719.368 42.8425 718.796 42.3017 718.351 41.6101C717.912 40.9121 717.67 40.1287 717.624 39.2599C717.59 38.6008 717.674 37.9805 717.878 37.399C718.082 36.8116 718.376 36.2915 718.761 35.8387C719.151 35.3797 719.613 35.013 720.145 34.7388C720.677 34.4645 721.252 34.3112 721.869 34.2789C722.546 34.2434 723.174 34.3487 723.751 34.5948C724.335 34.8346 724.84 35.1867 725.267 35.651C725.7 36.1149 726.032 36.6623 726.263 37.2931C726.5 37.9235 726.611 38.6056 726.596 39.3395L719.262 39.7238C719.36 40.2294 719.552 40.6759 719.837 41.0636C720.121 41.4452 720.473 41.7422 720.893 41.9545C721.318 42.1665 721.783 42.2623 722.287 42.242C722.826 42.2137 723.307 42.0503 723.73 41.7518C724.153 41.4472 724.486 41.0452 724.73 40.5458L726.286 40.8247C725.968 41.6405 725.46 42.322 724.762 42.8693C724.063 43.4106 723.264 43.7048 722.366 43.7519ZM719.154 38.5398L725.014 38.2327C724.94 37.7319 724.754 37.282 724.457 36.883C724.159 36.478 723.791 36.1609 723.353 35.9315C722.914 35.7022 722.443 35.6007 721.94 35.627C721.437 35.6534 720.982 35.8004 720.575 36.0681C720.169 36.3357 719.838 36.6865 719.585 37.1203C719.337 37.5479 719.193 38.0211 719.154 38.5398ZM735.518 42.8283L733.783 42.9192L731.177 38.9191L729.626 40.9831L729.739 43.1311L728.229 43.2103L727.523 29.7288L729.033 29.6496L729.504 38.6373L733.034 33.9461L735.002 33.843L732.137 37.6431L735.518 42.8283ZM737.269 42.7365L736.563 29.255L738.073 29.1759L738.779 42.6574L737.269 42.7365ZM746.273 33.2523L747.872 33.1685L743.663 46.9076L742.063 46.9915L743.454 42.4124L739.757 33.5938L741.41 33.5071L744.1 40.2966L746.273 33.2523Z" fill="#D1DAE8"/>
<mask id="path-11-inside-1_1_1361" fill="white">
<path d="M768.646 19.062L833.557 15.6602L835.388 50.6122L770.478 54.0141L768.646 19.062Z"/>
</mask>
<path d="M835.388 50.6122L835.336 49.6136L770.425 53.0154L770.478 54.0141L770.53 55.0127L835.441 51.6109L835.388 50.6122Z" fill="white" mask="url(#path-11-inside-1_1_1361)"/>
<path d="M770.876 40.9754L772.652 28.265L773.811 28.2042L777.677 36.9599L780.597 27.8486L781.756 27.7878L784.861 40.2424L783.324 40.323L781.075 31.2843L778.327 39.8999L777.329 39.9522L773.696 31.671L772.413 40.8948L770.876 40.9754ZM790.202 40.1968C789.375 40.2401 788.609 40.067 787.904 39.6774C787.205 39.2875 786.633 38.7466 786.188 38.055C785.749 37.357 785.506 36.5736 785.461 35.7048C785.426 35.0457 785.511 34.4254 785.715 33.844C785.918 33.2565 786.212 32.7364 786.597 32.2836C786.988 31.8246 787.449 31.4579 787.982 31.1837C788.514 30.9094 789.089 30.7562 789.706 30.7238C790.533 30.6805 791.296 30.8538 791.995 31.2437C792.701 31.6333 793.273 32.1771 793.712 32.8751C794.157 33.5728 794.403 34.359 794.448 35.2338C794.483 35.8869 794.398 36.5042 794.194 37.0856C793.99 37.6671 793.693 38.1874 793.302 38.6464C792.918 39.0992 792.459 39.4627 791.927 39.7369C791.4 40.0109 790.825 40.1642 790.202 40.1968ZM790.123 38.6869C790.686 38.6574 791.185 38.484 791.619 38.1669C792.059 37.8434 792.395 37.4323 792.627 36.9334C792.865 36.4283 792.969 35.8881 792.938 35.3129C792.908 34.7257 792.745 34.1935 792.449 33.7163C792.16 33.2388 791.783 32.865 791.318 32.595C790.853 32.325 790.342 32.2045 789.785 32.2337C789.222 32.2633 788.723 32.4396 788.29 32.7627C787.856 33.0799 787.52 33.491 787.282 33.9962C787.044 34.5013 786.94 35.0445 786.971 35.6257C787.002 36.2249 787.165 36.763 787.461 37.2402C787.756 37.7114 788.139 38.0789 788.609 38.3427C789.079 38.6004 789.584 38.7151 790.123 38.6869ZM803.823 33.643L804.116 39.2333L802.606 39.3124L802.331 34.0546C802.307 33.5993 802.174 33.1916 801.933 32.8318C801.692 32.4719 801.38 32.1938 800.997 31.9976C800.614 31.7954 800.195 31.7062 799.739 31.7301C799.29 31.7536 798.882 31.8861 798.517 32.1276C798.156 32.3628 797.875 32.6719 797.673 33.055C797.471 33.4381 797.382 33.8574 797.405 34.3128L797.681 39.5705L796.171 39.6497L795.7 30.662L797.21 30.5829L797.269 31.7063C797.564 31.2703 797.948 30.9167 798.421 30.6456C798.893 30.3685 799.414 30.215 799.983 30.1852C800.654 30.15 801.274 30.2828 801.842 30.5834C802.417 30.8778 802.88 31.2921 803.232 31.8264C803.591 32.3604 803.788 32.9659 803.823 33.643ZM810.177 31.4174L808.137 31.5243L808.52 39.0025L807.01 39.0816L806.627 31.6034L805.081 31.6844L805.002 30.1745L806.548 30.0935L806.391 27.2718L807.901 27.1927L808.058 30.0144L810.098 29.9074L810.177 31.4174ZM819.832 32.804L820.125 38.3943L818.616 38.4734L818.34 33.2156C818.316 32.7603 818.184 32.3526 817.942 31.9928C817.701 31.6329 817.389 31.3548 817.007 31.1586C816.623 30.9564 816.204 30.8672 815.749 30.8911C815.299 30.9146 814.892 31.0471 814.526 31.2886C814.166 31.5238 813.885 31.8329 813.682 32.216C813.48 32.5991 813.391 33.0184 813.415 33.4738L813.69 38.7315L812.18 38.8107L811.474 25.3292L812.984 25.25L813.278 30.8673C813.574 30.4313 813.958 30.0777 814.43 29.8066C814.902 29.5295 815.423 29.376 815.992 29.3462C816.663 29.311 817.283 29.4438 817.852 29.7444C818.426 30.0388 818.889 30.4531 819.242 30.9874C819.6 31.5214 819.797 32.1269 819.832 32.804ZM822.028 38.2946L821.322 24.8131L822.832 24.7339L823.538 38.2154L822.028 38.2946ZM831.031 28.8104L832.631 28.7265L828.422 42.4657L826.822 42.5495L828.213 37.9704L824.515 29.1519L826.169 29.0652L828.859 35.8547L831.031 28.8104Z" fill="#FF9F1C"/>
<g clip-path="url(#clip2_1_1361)">
<line x1="65.8336" y1="116.19" x2="836.708" y2="75.7903" stroke="#1B2A41"/>
<line x1="68.6522" y1="169.972" x2="839.527" y2="129.572" stroke="#1B2A41"/>
<line x1="71.4708" y1="223.754" x2="842.345" y2="183.354" stroke="#1B2A41"/>
<line x1="74.2894" y1="277.536" x2="845.164" y2="237.136" stroke="#1B2A41"/>
<path d="M71.1349 279.709C78.02 279.061 93.9575 272.396 102.626 250.92C113.462 224.075 136.368 188.237 185.711 235.219C235.053 282.201 239.683 182.524 242.445 166.851C245.207 151.179 261.059 49.1225 292.411 88.9851C323.764 128.848 320.735 145.131 342.786 149.947C364.836 154.764 367.533 149.248 393.306 185.222C419.08 221.197 459.071 175.206 460.937 170.928C462.803 166.65 492.368 138.226 518.048 172.414C543.728 206.602 569.75 253.015 597.826 156.289C615.189 94.4642 628.849 127.192 660.044 95.6966C691.24 64.2015 705.723 55.6788 742.228 114.083C751.706 129.711 778.54 117.555 794.049 151.38C809.557 185.205 815.254 219.843 830.094 229.517C841.966 237.255 856.47 235.201 862.238 233.207" stroke="#FFC107" stroke-width="2"/>
<path d="M73.6841 296.928C79.3208 298.126 93.1971 295.488 103.608 275.354C116.622 250.186 128.19 243.011 147.217 241.416C166.244 239.822 178.951 186.005 192.51 176.933C206.069 167.862 217.32 177.425 228.262 164.011C239.205 150.598 255.245 120.494 272.954 122.254C290.664 124.013 298.218 125.707 311.283 152.793C324.348 179.878 337.478 196.807 364.828 188.805C392.179 180.802 392.982 161.948 425.033 163.852C449.356 166.459 458.558 228.086 467.614 241.347C476.67 254.608 488.012 277.305 524.643 258.365C561.274 239.424 561.353 235.24 602.96 254.26C644.567 273.28 664.193 254.634 676.124 237.287C688.055 219.94 715.183 224.789 730.814 203.964C746.444 183.138 766.995 165.041 791.143 181.393C815.291 197.745 808.989 202.853 829.551 207.747C846 211.663 856.925 209.697 860.332 208.224" stroke="#FFC107" stroke-width="2"/>
<path d="M102.031 250.951C93.3618 272.427 77.4244 279.092 70.5392 279.74L74.3137 351.76L865.68 310.287L861.642 233.238C855.874 235.232 841.37 237.286 829.499 229.548C814.659 219.874 808.962 185.236 793.453 151.411C777.945 117.586 751.11 129.742 741.632 114.114C705.128 55.7098 690.644 64.2325 659.448 95.7276C628.253 127.223 614.594 94.4952 597.23 156.32C569.154 253.046 543.132 206.633 517.453 172.445C491.773 138.257 462.208 166.681 460.342 170.959C458.476 175.237 418.484 221.228 392.711 185.253C366.937 149.279 364.24 154.795 342.19 149.978C320.14 145.162 323.168 128.879 291.816 89.0161C260.464 49.1535 244.611 151.21 241.85 166.882C239.088 182.555 234.458 282.232 185.115 235.25C135.772 188.268 112.866 224.106 102.031 250.951Z" fill="url(#paint0_linear_1_1361)"/>
<circle cx="109.628" cy="265.673" r="5" transform="rotate(-3 109.628 265.673)" fill="#FFC107"/>
<circle cx="119.866" cy="221.718" r="5" transform="rotate(-3 119.866 221.718)" fill="#FFC107"/>
<circle cx="214.931" cy="246.596" r="5" transform="rotate(-3 214.931 246.596)" fill="#FFC107"/>
<circle cx="229.014" cy="162.068" r="5" transform="rotate(-3 229.014 162.068)" fill="#FFC107"/>
<circle cx="305.406" cy="104.135" r="5" transform="rotate(-3 305.406 104.135)" fill="#FFC107"/>
<circle cx="352.954" cy="190.925" r="5" transform="rotate(-3 352.954 190.925)" fill="#FFC107"/>
<circle cx="462.663" cy="169.675" r="5" transform="rotate(-3 462.663 169.675)" fill="#FFC107"/>
<circle cx="529.272" cy="255.699" r="5" transform="rotate(-3 529.272 255.699)" fill="#FFC107"/>
<circle cx="583.021" cy="197.445" r="5" transform="rotate(-3 583.021 197.445)" fill="#FFC107"/>
<circle cx="649.874" cy="102.327" r="5" transform="rotate(-3 649.874 102.327)" fill="#FFC107"/>
<circle cx="667.467" cy="246.949" r="5" transform="rotate(-3 667.467 246.949)" fill="#FFC107"/>
<circle cx="743.786" cy="189.02" r="5" transform="rotate(-3 743.786 189.02)" fill="#FFC107"/>
<circle cx="780.12" cy="133.186" r="5" transform="rotate(-3 780.12 133.186)" fill="#FFC107"/>
</g>
</g>
</g>
<rect x="0.525483" y="45.2727" width="855" height="355" rx="19.5" transform="rotate(-3 0.525483 45.2727)" stroke="#1B2A41"/>
<defs>
<linearGradient id="paint0_linear_1_1361" x1="456.342" y1="70.477" x2="469.997" y2="331.023" gradientUnits="userSpaceOnUse">
<stop stop-color="#FFC107" stop-opacity="0.15"/>
<stop offset="1" stop-color="#FF9F1C" stop-opacity="0"/>
</linearGradient>
<clipPath id="clip0_1_1361">
<rect y="44.7996" width="856" height="356" rx="20" transform="rotate(-3 0 44.7996)" fill="white"/>
</clipPath>
<clipPath id="clip1_1_1361">
<rect width="856" height="356" fill="white" transform="translate(0 44.7996) rotate(-3)"/>
</clipPath>
<clipPath id="clip2_1_1361">
<rect width="772" height="252" fill="white" transform="translate(64.5892 87.4778) rotate(-3)"/>
</clipPath>
</defs>
</svg>
