<svg width="363" height="293" viewBox="0 0 363 293" fill="none" xmlns="http://www.w3.org/2000/svg">
<rect width="347" height="301" transform="translate(-0.0379028 18.1606) rotate(-3)" fill="#0A0F17"/>
<path d="M18.7285 53.7528L17.9958 39.7719L22.989 39.5103C23.7479 39.4705 24.4436 39.6243 25.076 39.9717C25.715 40.3187 26.231 40.8024 26.624 41.4226C27.017 42.0429 27.2336 42.7359 27.2737 43.5015C27.3149 44.2871 27.1658 45.0092 26.8265 45.6679C26.4935 46.3195 26.0273 46.8513 25.4281 47.2632C24.8285 47.6685 24.1625 47.8903 23.4302 47.9287L20.8737 48.0627L21.1652 53.6251L18.7285 53.7528ZM20.746 45.626L23.0428 45.5057C23.389 45.4875 23.7007 45.3844 23.9779 45.1963C24.2551 45.0082 24.4693 44.7633 24.6203 44.4617C24.7781 44.1597 24.8475 43.8289 24.8287 43.4694C24.8095 43.1032 24.7057 42.7782 24.5172 42.4944C24.3355 42.2102 24.0969 41.989 23.8015 41.8309C23.5062 41.6728 23.1854 41.6028 22.8392 41.621L20.5424 41.7414L20.746 45.626ZM29.349 53.1962L28.8156 43.2104L31.2523 43.0827L31.3088 43.9709C31.6295 43.5936 32.0208 43.2894 32.4827 43.0583C32.9442 42.8204 33.4479 42.6872 33.9938 42.6586C34.36 42.6394 34.729 42.6735 35.1007 42.7608L34.2708 45.2677C34.0125 45.1811 33.7569 45.1444 33.5039 45.1577C33.1112 45.1783 32.7567 45.2936 32.4406 45.5038C32.1308 45.707 31.8879 45.9767 31.712 46.3131C31.5423 46.6424 31.4678 47.0034 31.4883 47.3962L31.7856 53.0685L29.349 53.1962ZM40.6901 52.8621C39.7714 52.9103 38.9202 52.7179 38.1364 52.285C37.3594 51.8517 36.7237 51.2509 36.2295 50.4823C35.7416 49.7068 35.4723 48.8364 35.4217 47.871C35.3833 47.1387 35.4774 46.4495 35.7039 45.8034C35.93 45.1507 36.2569 44.5728 36.6845 44.0697C37.1184 43.5597 37.6311 43.1523 38.2226 42.8476C38.8142 42.5429 39.4528 42.3725 40.1385 42.3366C41.0573 42.2884 41.9052 42.481 42.6822 42.9143C43.466 43.3472 44.1018 43.9514 44.5897 44.7269C45.0843 45.5021 45.3571 46.3757 45.408 47.3477C45.446 48.0733 45.3518 48.7592 45.1253 49.4053C44.8988 50.0514 44.5686 50.6294 44.1347 51.1395C43.7071 51.6426 43.1976 52.0465 42.606 52.3512C42.0212 52.6555 41.3825 52.8259 40.6901 52.8621ZM40.5624 50.4255C41.0484 50.4 41.4777 50.2473 41.8502 49.9675C42.2228 49.6876 42.5077 49.3288 42.7051 48.8913C42.9091 48.4533 42.9979 47.9813 42.9713 47.4754C42.9441 46.9561 42.8029 46.4895 42.5475 46.0756C42.2985 45.6548 41.9709 45.3281 41.5649 45.0957C41.1651 44.8563 40.7322 44.7488 40.2662 44.7732C39.7869 44.7984 39.3609 44.9509 38.9884 45.2308C38.6159 45.5106 38.3278 45.8729 38.1241 46.3175C37.9204 46.7621 37.8318 47.2374 37.8584 47.7433C37.8859 48.2693 38.0274 48.7392 38.2827 49.1531C38.5381 49.5669 38.8654 49.8902 39.2648 50.123C39.6705 50.3487 40.1031 50.4496 40.5624 50.4255ZM49.6515 40.0155L49.7614 42.1127L52.4877 41.9698L52.6154 44.4064L49.8891 44.5493L50.2848 52.099L47.8481 52.2267L47.4524 44.677L46.3639 44.7341L46.2362 42.2974L47.3247 42.2404L47.2148 40.1432C47.1848 39.5707 47.2972 39.0407 47.5521 38.5534C47.8132 38.0591 48.1762 37.6595 48.6409 37.3548C49.1052 37.0434 49.627 36.8725 50.2062 36.8422C50.6256 36.8202 51.0462 36.8849 51.4681 37.0364C51.8899 37.1878 52.27 37.435 52.6084 37.7777L50.9409 39.5875C50.875 39.4774 50.7841 39.3988 50.6681 39.3514C50.5585 39.2971 50.447 39.2729 50.3339 39.2788C50.1408 39.2889 49.9747 39.3677 49.8356 39.5152C49.7027 39.6557 49.6414 39.8225 49.6515 40.0155ZM54.0544 41.8877L56.4911 41.76L57.0144 51.7463L54.5778 51.874L54.0544 41.8877ZM55.2252 40.5345C54.8657 40.5534 54.5567 40.4528 54.2981 40.2327C54.0392 40.0059 53.9004 39.7128 53.8815 39.3532C53.863 39.0004 53.9707 38.6977 54.2044 38.4451C54.4382 38.1925 54.7315 38.057 55.0844 38.0385C55.4372 38.02 55.7398 38.1243 55.992 38.3514C56.2509 38.5782 56.3896 38.868 56.4081 39.2208C56.4269 39.5803 56.3228 39.8862 56.0957 40.1384C55.8682 40.384 55.578 40.5161 55.2252 40.5345ZM59.4539 51.6184L58.6689 36.639L61.1055 36.5113L61.8905 51.4907L59.4539 51.6184ZM68.5425 51.4025C67.6238 51.4506 66.7726 51.2582 65.9888 50.8253C65.2118 50.3921 64.5759 49.7878 64.0814 49.0127C63.5934 48.2371 63.3242 47.3667 63.2736 46.4014C63.2356 45.6757 63.3298 44.9898 63.5563 44.3438C63.7824 43.691 64.1093 43.1131 64.5369 42.6101C64.9708 42.1 65.4835 41.6926 66.075 41.3879C66.6666 41.0832 67.3052 40.9128 67.9909 40.8769C68.7699 40.8361 69.4909 40.9652 70.1542 41.2642C70.8237 41.5563 71.3998 41.9767 71.8825 42.5255C72.3653 43.0743 72.729 43.7095 72.9738 44.431C73.2185 45.1525 73.3053 45.9157 73.2339 46.7205L65.934 47.1031C66.0467 47.471 66.2174 47.7992 66.4462 48.0876C66.6746 48.3694 66.9566 48.5916 67.2922 48.7543C67.6275 48.9103 68.0017 48.9808 68.4148 48.9658C68.8413 48.9501 69.2222 48.83 69.5576 48.6055C69.8992 48.374 70.1772 48.0724 70.3913 47.7006L72.9083 48.1495C72.5486 49.0563 71.9808 49.8137 71.2049 50.4218C70.4286 51.0232 69.5412 51.3501 68.5425 51.4025ZM65.7583 45.2798L70.6716 45.0223C70.5774 44.6267 70.4021 44.2754 70.1457 43.9684C69.8956 43.6544 69.5924 43.4099 69.236 43.235C68.8797 43.0601 68.5019 42.9831 68.1024 43.004C67.7029 43.0249 67.3385 43.1408 67.0091 43.3517C66.6793 43.5559 66.4032 43.8274 66.1806 44.1662C65.9643 44.4979 65.8236 44.8691 65.7583 45.2798ZM84.7927 50.2905L78.987 36.5755L81.5734 36.44L86.2014 47.3627L89.6723 36.0155L92.2488 35.8805L87.9084 50.1272L84.7927 50.2905ZM93.629 39.8137L96.0657 39.686L96.589 49.6723L94.1524 49.8L93.629 39.8137ZM94.7998 38.4605C94.4403 38.4794 94.1313 38.3787 93.8727 38.1586C93.6138 37.9319 93.475 37.6387 93.4561 37.2792C93.4376 36.9264 93.5453 36.6237 93.779 36.3711C94.0128 36.1185 94.3061 35.983 94.659 35.9645C95.0118 35.946 95.3144 36.0503 95.5666 36.2774C95.8255 36.5042 95.9642 36.794 95.9827 37.1468C96.0015 37.5063 95.8974 37.8122 95.6703 38.0644C95.4428 38.31 95.1526 38.442 94.7998 38.4605ZM101.789 49.58C101.268 49.5739 100.76 49.4971 100.265 49.3494C99.7759 49.1948 99.3371 48.9741 98.9482 48.6874C98.5593 48.4007 98.2539 48.0496 98.0318 47.634L100.043 46.6473C100.13 46.7763 100.267 46.9126 100.455 47.0563C100.642 47.1934 100.862 47.3054 101.113 47.3923C101.372 47.4789 101.651 47.5144 101.95 47.4987C102.203 47.4854 102.441 47.4396 102.664 47.3612C102.893 47.2757 103.074 47.1561 103.206 47.0023C103.345 46.8482 103.408 46.6546 103.396 46.4216C103.383 46.1752 103.286 45.99 103.106 45.866C102.932 45.7349 102.714 45.6428 102.451 45.5899C102.194 45.5299 101.944 45.4762 101.701 45.4289C101.062 45.3355 100.463 45.17 99.903 44.9323C99.3498 44.6943 98.8957 44.3743 98.5409 43.9723C98.1923 43.5633 98.0024 43.0592 97.971 42.46C97.9364 41.8009 98.0797 41.2227 98.4008 40.7252C98.7285 40.2273 99.1652 39.8339 99.7108 39.545C100.263 39.2557 100.865 39.0939 101.518 39.0598C102.31 39.0182 103.045 39.1466 103.721 39.445C104.404 39.7363 104.954 40.1714 105.372 40.7504L103.504 41.9898C103.402 41.8349 103.265 41.6953 103.091 41.5708C102.918 41.4398 102.722 41.3365 102.504 41.2611C102.287 41.1791 102.061 41.1375 101.827 41.1364C101.527 41.1388 101.255 41.1797 101.012 41.2592C100.769 41.3387 100.576 41.4624 100.431 41.6302C100.293 41.7976 100.231 42.0145 100.245 42.2808C100.258 42.5338 100.368 42.7183 100.574 42.8343C100.78 42.9437 101.025 43.0243 101.308 43.0763C101.598 43.1278 101.874 43.1868 102.138 43.253C102.734 43.4154 103.296 43.623 103.823 43.8757C104.357 44.1281 104.791 44.4492 105.125 44.8389C105.459 45.2286 105.635 45.7067 105.651 46.2733C105.685 46.9191 105.521 47.4951 105.161 48.0014C104.8 48.5009 104.32 48.8933 103.72 49.1783C103.128 49.4631 102.484 49.597 101.789 49.58ZM106.756 39.1257L109.192 38.998L109.716 48.9843L107.279 49.112L106.756 39.1257ZM107.926 37.7726C107.567 37.7914 107.258 37.6908 106.999 37.4707C106.74 37.2439 106.601 36.9508 106.583 36.5913C106.564 36.2385 106.672 35.9357 106.906 35.6832C107.139 35.4306 107.433 35.295 107.785 35.2765C108.138 35.2581 108.441 35.3624 108.693 35.5895C108.952 35.8162 109.091 36.106 109.109 36.4589C109.128 36.8184 109.024 37.1243 108.797 37.3765C108.569 37.6221 108.279 37.7541 107.926 37.7726ZM117.073 41.0284L115.136 41.1299L115.531 48.6795L113.095 48.8072L112.699 41.2576L111.221 41.335L111.093 38.8984L112.571 38.8209L112.407 35.6852L114.844 35.5575L115.008 38.6932L116.945 38.5917L117.073 41.0284ZM122.073 48.5169C121.552 48.5108 121.044 48.434 120.549 48.2864C120.061 48.1317 119.622 47.9111 119.233 47.6244C118.844 47.3377 118.539 46.9865 118.316 46.5709L120.328 45.5843C120.414 45.7132 120.552 45.8496 120.74 45.9933C120.927 46.1303 121.147 46.2423 121.398 46.3293C121.656 46.4159 121.935 46.4513 122.235 46.4356C122.488 46.4224 122.726 46.3765 122.949 46.2981C123.178 46.2126 123.358 46.093 123.491 45.9392C123.629 45.7851 123.693 45.5915 123.68 45.3585C123.667 45.1122 123.571 44.927 123.391 44.8029C123.217 44.6718 122.999 44.5798 122.736 44.5268C122.479 44.4668 122.229 44.4132 121.986 44.3658C121.347 44.2725 120.748 44.1069 120.188 43.8692C119.634 43.6312 119.18 43.3112 118.826 42.9092C118.477 42.5002 118.287 41.9961 118.256 41.397C118.221 40.7379 118.364 40.1596 118.685 39.6621C119.013 39.1643 119.45 38.7709 119.995 38.4819C120.548 38.1926 121.15 38.0309 121.803 37.9967C122.595 37.9552 123.329 38.0836 124.006 38.3819C124.689 38.6732 125.239 39.1084 125.656 39.6873L123.789 40.9268C123.687 40.7719 123.55 40.6322 123.376 40.5078C123.202 40.3767 123.007 40.2734 122.789 40.1981C122.571 40.116 122.345 40.0745 122.112 40.0733C121.811 40.0757 121.54 40.1167 121.297 40.1962C121.054 40.2756 120.86 40.3993 120.716 40.5671C120.577 40.7345 120.515 40.9514 120.529 41.2177C120.543 41.4707 120.652 41.6552 120.859 41.7712C121.065 41.8806 121.309 41.9613 121.592 42.0132C121.882 42.0648 122.159 42.1237 122.423 42.19C123.019 42.3523 123.58 42.5599 124.108 42.8126C124.642 43.065 125.076 43.3861 125.41 43.7758C125.744 44.1655 125.919 44.6437 125.936 45.2103C125.97 45.856 125.806 46.432 125.445 46.9383C125.084 47.4379 124.604 47.8302 124.005 48.1153C123.413 48.4 122.769 48.5339 122.073 48.5169Z" fill="white"/>
<path d="M48.0311 109.771L47.9025 107.317L43.9949 107.522L43.9371 106.418L47.2822 100.697L48.6454 100.626L48.9359 106.169L49.8381 106.122L49.8953 107.212L48.993 107.26L49.1216 109.713L48.0311 109.771ZM45.2158 106.351L47.8454 106.226L47.6157 102.216L45.2158 106.351ZM54.3092 109.611C53.7683 109.639 53.2773 109.543 52.8362 109.323C52.3948 109.099 52.0092 108.779 51.6793 108.362C51.3494 107.946 51.0895 107.458 50.8997 106.899C50.7096 106.337 50.5976 105.731 50.5636 105.082C50.5295 104.432 50.5776 103.818 50.7078 103.239C50.838 102.659 51.0455 102.147 51.3303 101.702C51.6148 101.253 51.965 100.897 52.3807 100.632C52.7962 100.363 53.2744 100.214 53.8153 100.186C54.3519 100.158 54.8409 100.256 55.2822 100.48C55.7276 100.699 56.111 101.018 56.4323 101.435C56.7576 101.847 57.0153 102.335 57.2054 102.898C57.3998 103.461 57.514 104.066 57.548 104.716C57.582 105.365 57.5318 105.979 57.3972 106.559C57.2668 107.134 57.0615 107.646 56.7813 108.095C56.5054 108.543 56.1575 108.902 55.7377 109.171C55.322 109.436 54.8458 109.583 54.3092 109.611ZM54.2521 108.52C54.793 108.492 55.2365 108.302 55.5825 107.949C55.9327 107.593 56.1842 107.135 56.3372 106.575C56.4901 106.016 56.5497 105.414 56.5159 104.77C56.4803 104.09 56.353 103.483 56.134 102.948C55.9191 102.408 55.6194 101.987 55.2348 101.686C54.8545 101.385 54.4004 101.249 53.8724 101.276C53.457 101.298 53.0986 101.414 52.7972 101.625C52.5002 101.836 52.2588 102.116 52.0731 102.464C51.8874 102.812 51.7541 103.208 51.6732 103.65C51.5963 104.088 51.5705 104.547 51.5956 105.028C51.6294 105.672 51.7539 106.267 51.969 106.811C52.1839 107.351 52.4818 107.778 52.8628 108.092C53.2481 108.406 53.7112 108.549 54.2521 108.52ZM61.8906 109.213C61.3497 109.242 60.8587 109.146 60.4176 108.926C59.9762 108.702 59.5906 108.382 59.2607 107.965C58.9308 107.548 58.6709 107.061 58.4811 106.502C58.291 105.939 58.179 105.333 58.145 104.684C58.1109 104.035 58.159 103.421 58.2892 102.841C58.4194 102.262 58.6269 101.75 58.9117 101.305C59.1962 100.856 59.5464 100.499 59.9621 100.235C60.3776 99.9655 60.8558 99.8167 61.3967 99.7884C61.9333 99.7603 62.4222 99.8583 62.8636 100.083C63.309 100.302 63.6924 100.621 64.0136 101.038C64.339 101.45 64.5967 101.938 64.7868 102.501C64.9812 103.063 65.0954 103.669 65.1294 104.318C65.1634 104.967 65.1131 105.582 64.9786 106.162C64.8482 106.737 64.6429 107.249 64.3627 107.697C64.0868 108.146 63.7389 108.505 63.3191 108.774C62.9034 109.039 62.4272 109.185 61.8906 109.213ZM61.8335 108.123C62.3744 108.095 62.8179 107.904 63.1639 107.552C63.5141 107.195 63.7656 106.737 63.9186 106.178C64.0715 105.619 64.1311 105.017 64.0973 104.372C64.0617 103.693 63.9344 103.086 63.7154 102.55C63.5005 102.01 63.2008 101.59 62.8162 101.289C62.4359 100.988 61.9818 100.851 61.4538 100.879C61.0384 100.901 60.68 101.017 60.3786 101.228C60.0816 101.439 59.8402 101.718 59.6545 102.067C59.4688 102.415 59.3355 102.81 59.2546 103.253C59.1777 103.691 59.1519 104.15 59.177 104.63C59.2108 105.275 59.3353 105.869 59.5504 106.414C59.7653 106.953 60.0632 107.38 60.4442 107.695C60.8294 108.009 61.2926 108.151 61.8335 108.123Z" fill="#EEF1F6"/>
<rect x="43.2705" y="121.035" width="24" height="158" rx="12" transform="rotate(-3 43.2705 121.035)" fill="#FF9F1C"/>
<path d="M53.6392 297.735L54.8233 289.261L55.4345 289.229L58.1067 295.277L60.12 288.983L60.7312 288.951L62.8006 297.255L61.9438 297.299L60.3672 290.947L58.4576 296.929L57.9184 296.958L55.394 291.208L54.49 297.69L53.6392 297.735ZM66.4065 297.222C65.8553 297.251 65.3446 297.135 64.8743 296.875C64.4081 296.616 64.0267 296.255 63.7301 295.794C63.4374 295.329 63.2758 294.806 63.2455 294.227C63.2225 293.788 63.2789 293.374 63.4148 292.987C63.5505 292.595 63.7466 292.248 64.0032 291.946C64.2635 291.64 64.5711 291.396 64.926 291.213C65.281 291.03 65.6641 290.928 66.0756 290.906C66.6268 290.878 67.1356 290.993 67.6018 291.253C68.072 291.513 68.4535 291.875 68.7463 292.341C69.043 292.806 69.2067 293.33 69.2373 293.913C69.2601 294.348 69.2035 294.76 69.0676 295.148C68.9317 295.535 68.7336 295.882 68.4733 296.188C68.2167 296.49 67.911 296.732 67.5561 296.915C67.2051 297.098 66.822 297.2 66.4065 297.222ZM66.3626 296.383C66.77 296.362 67.13 296.237 67.4424 296.008C67.7587 295.775 68.0015 295.478 68.1708 295.117C68.3441 294.755 68.42 294.368 68.3984 293.957C68.3764 293.538 68.2604 293.157 68.0502 292.816C67.8398 292.47 67.5653 292.2 67.2267 292.006C66.892 291.811 66.523 291.724 66.1195 291.745C65.7121 291.767 65.3502 291.894 65.034 292.127C64.7215 292.355 64.4787 292.65 64.3053 293.012C64.136 293.373 64.0623 293.764 64.0843 294.183C64.1069 294.615 64.2253 295.001 64.4395 295.342C64.6534 295.679 64.9296 295.943 65.268 296.134C65.6063 296.32 65.9711 296.403 66.3626 296.383ZM75.4396 292.873L75.634 296.582L74.7951 296.626L74.6095 293.085C74.5924 292.757 74.4969 292.464 74.3231 292.205C74.1493 291.945 73.9243 291.743 73.6483 291.597C73.3723 291.451 73.0706 291.387 72.743 291.404C72.4194 291.421 72.126 291.517 71.8628 291.691C71.6035 291.864 71.401 292.089 71.2553 292.365C71.1095 292.641 71.0452 292.943 71.0624 293.271L71.248 296.812L70.4091 296.856L70.0951 290.864L70.934 290.82L70.9773 291.647C71.1731 291.332 71.436 291.076 71.7662 290.879C72.0963 290.681 72.4611 290.572 72.8605 290.551C73.3119 290.527 73.7291 290.615 74.1121 290.816C74.4951 291.016 74.8062 291.296 75.0453 291.656C75.2845 292.016 75.4159 292.422 75.4396 292.873Z" fill="#97ABCB"/>
<path d="M88.2316 185.68L88.1809 184.713C88.4985 184.397 88.8553 184.044 89.2515 183.655C89.6474 183.261 90.0404 182.852 90.4304 182.428C90.8245 181.999 91.1842 181.577 91.5096 181.16C91.8349 180.744 92.0943 180.353 92.2877 179.987C92.4809 179.617 92.5705 179.298 92.5564 179.029C92.5397 178.709 92.4465 178.421 92.2768 178.165C92.107 177.905 91.8859 177.702 91.6135 177.556C91.3455 177.409 91.0514 177.344 90.7311 177.361C90.4109 177.378 90.1208 177.473 89.8609 177.647C89.6054 177.821 89.4045 178.047 89.2585 178.323C89.1165 178.596 89.0539 178.892 89.0707 179.212L87.9802 179.269C87.9523 178.737 88.057 178.25 88.2942 177.808C88.5311 177.361 88.8572 177.001 89.2725 176.728C89.6875 176.45 90.1547 176.298 90.674 176.271C91.1933 176.243 91.6716 176.346 92.1091 176.579C92.5509 176.812 92.9108 177.138 93.1888 177.558C93.4666 177.973 93.6193 178.444 93.647 178.972C93.6628 179.275 93.6064 179.606 93.4776 179.964C93.3486 180.318 93.1661 180.685 92.9301 181.067C92.694 181.448 92.4236 181.835 92.1188 182.229C91.8137 182.618 91.4911 183.003 91.151 183.386C90.8109 183.768 90.4721 184.135 90.1348 184.487L94.0424 184.282L94.0996 185.373L88.2316 185.68ZM98.331 185.32C97.79 185.349 97.2902 185.251 96.8316 185.028C96.3773 184.804 96.0074 184.494 95.7218 184.097C95.4404 183.695 95.2866 183.243 95.2603 182.741C95.2358 182.273 95.3366 181.839 95.5629 181.436C95.7889 181.03 96.095 180.701 96.4811 180.451C96.1456 180.26 95.8629 179.999 95.633 179.669C95.4071 179.333 95.2836 178.964 95.2626 178.562C95.2381 178.095 95.337 177.664 95.5594 177.271C95.7861 176.877 96.0969 176.557 96.4919 176.311C96.891 176.06 97.3394 175.921 97.837 175.895C98.3347 175.869 98.7929 175.96 99.2117 176.168C99.6346 176.372 99.9772 176.657 100.239 177.025C100.506 177.393 100.652 177.811 100.676 178.278C100.697 178.681 100.613 179.061 100.423 179.418C100.234 179.77 99.9775 180.059 99.6552 180.284C100.078 180.492 100.421 180.787 100.684 181.168C100.951 181.544 101.097 181.966 101.122 182.434C101.148 182.931 101.04 183.395 100.798 183.824C100.555 184.253 100.218 184.603 99.785 184.873C99.3566 185.143 98.8719 185.292 98.331 185.32ZM98.2738 184.23C98.6027 184.212 98.8953 184.123 99.1515 183.962C99.4121 183.801 99.616 183.593 99.7632 183.338C99.9101 183.079 99.9757 182.797 99.9598 182.495C99.9437 182.187 99.8491 181.915 99.6761 181.676C99.503 181.438 99.2785 181.252 99.0025 181.119C98.7308 180.986 98.4306 180.928 98.1017 180.945C97.7771 180.962 97.4845 181.051 97.224 181.212C96.9634 181.374 96.7595 181.582 96.6123 181.837C96.4651 182.092 96.3996 182.373 96.4157 182.68C96.4315 182.983 96.5261 183.256 96.6994 183.499C96.8724 183.737 97.0969 183.923 97.373 184.056C97.649 184.189 97.9492 184.247 98.2738 184.23ZM98.0445 179.855C98.3301 179.84 98.5864 179.761 98.8132 179.619C99.0401 179.477 99.2171 179.294 99.3443 179.071C99.4757 178.847 99.5345 178.603 99.5207 178.339C99.5066 178.071 99.4227 177.834 99.2687 177.63C99.1189 177.42 98.9238 177.257 98.6833 177.14C98.4428 177.022 98.1798 176.971 97.8942 176.986C97.6085 177.001 97.3523 177.079 97.1254 177.221C96.8986 177.363 96.7194 177.546 96.5879 177.77C96.4606 177.989 96.4039 178.233 96.418 178.501C96.4318 178.765 96.5136 179.002 96.6634 179.211C96.8176 179.42 97.0149 179.583 97.2554 179.701C97.4959 179.818 97.7589 179.87 98.0445 179.855ZM105.254 184.957C104.691 184.987 104.173 184.877 103.7 184.629C103.227 184.38 102.845 184.036 102.553 183.595C102.265 183.15 102.106 182.653 102.077 182.104L103.168 182.047C103.186 182.397 103.29 182.715 103.478 183C103.667 183.281 103.91 183.5 104.209 183.658C104.513 183.816 104.842 183.885 105.197 183.867C105.547 183.849 105.863 183.745 106.144 183.557C106.424 183.369 106.644 183.125 106.802 182.826C106.959 182.523 107.029 182.196 107.011 181.845C106.992 181.495 106.893 181.177 106.713 180.891C106.538 180.605 106.29 180.384 105.969 180.227C105.648 180.066 105.265 179.997 104.819 180.02L102.58 180.138L103.237 175.781L107.547 175.555L107.604 176.646L104.177 176.826L103.866 178.977L104.808 178.934C105.427 178.915 105.978 179.025 106.459 179.264C106.944 179.499 107.331 179.834 107.618 180.271C107.91 180.702 108.071 181.208 108.101 181.788C108.123 182.199 108.065 182.593 107.929 182.969C107.792 183.34 107.592 183.672 107.33 183.963C107.068 184.255 106.759 184.488 106.403 184.663C106.052 184.837 105.669 184.936 105.254 184.957Z" fill="#EEF1F6"/>
<rect opacity="0.3" x="86.9603" y="196.762" width="24" height="80.0906" rx="12" transform="rotate(-3 86.9603 196.762)" fill="#FF9F1C"/>
<path d="M100.994 286.841L101.038 287.68L98.1624 287.831L98.558 295.381L97.7192 295.425L97.3235 287.875L94.4535 288.025L94.4095 287.186L100.994 286.841ZM101.423 292.929L101.229 289.232L102.068 289.188L102.253 292.718C102.27 293.045 102.366 293.339 102.539 293.598C102.713 293.857 102.938 294.06 103.214 294.205C103.494 294.351 103.796 294.415 104.119 294.398C104.447 294.381 104.738 294.286 104.994 294.112C105.253 293.938 105.455 293.713 105.601 293.437C105.747 293.161 105.811 292.86 105.794 292.532L105.609 289.003L106.448 288.959L106.768 294.95L105.929 294.994L105.879 294.156C105.683 294.47 105.42 294.727 105.09 294.924C104.764 295.121 104.401 295.231 104.002 295.252C103.55 295.275 103.133 295.187 102.75 294.987C102.367 294.786 102.056 294.506 101.817 294.146C101.578 293.786 101.446 293.381 101.423 292.929ZM110.559 294.908C110.008 294.937 109.498 294.821 109.027 294.562C108.561 294.302 108.18 293.941 107.883 293.48C107.59 293.015 107.429 292.492 107.398 291.913C107.375 291.474 107.432 291.06 107.568 290.673C107.703 290.281 107.9 289.934 108.156 289.632C108.416 289.326 108.724 289.082 109.079 288.899C109.434 288.716 109.817 288.614 110.229 288.593C110.672 288.569 111.084 288.636 111.465 288.792C111.849 288.948 112.184 289.177 112.468 289.479C112.756 289.78 112.979 290.139 113.137 290.555C113.299 290.971 113.381 291.425 113.383 291.918L108.302 292.184C108.37 292.561 108.507 292.894 108.715 293.184C108.926 293.473 109.186 293.698 109.495 293.858C109.808 294.014 110.148 294.084 110.516 294.069C110.915 294.048 111.269 293.925 111.578 293.701C111.89 293.476 112.135 293.177 112.312 292.803L113.173 292.956C112.961 293.5 112.622 293.955 112.157 294.319C111.691 294.68 111.159 294.876 110.559 294.908ZM108.242 291.508L112.503 291.285C112.455 290.915 112.323 290.582 112.108 290.284C111.896 289.983 111.629 289.749 111.308 289.581C110.986 289.41 110.64 289.334 110.268 289.353C109.897 289.373 109.562 289.483 109.264 289.682C108.966 289.878 108.727 290.137 108.548 290.459C108.368 290.777 108.266 291.127 108.242 291.508Z" fill="#97ABCB"/>
<path d="M127.749 122.494C127.2 122.523 126.704 122.426 126.263 122.201C125.826 121.973 125.475 121.657 125.211 121.254C124.947 120.847 124.801 120.388 124.774 119.878L125.865 119.82C125.881 120.128 125.967 120.405 126.123 120.653C126.279 120.897 126.491 121.087 126.759 121.225C127.026 121.363 127.337 121.423 127.692 121.404C128 121.388 128.281 121.297 128.537 121.132C128.798 120.966 129.003 120.754 129.155 120.494C129.306 120.23 129.373 119.945 129.357 119.637C129.337 119.252 129.221 118.937 129.008 118.692C128.8 118.443 128.517 118.265 128.16 118.157C127.807 118.046 127.408 118.002 126.962 118.025L126.916 117.149C127.531 117.117 128.015 116.963 128.369 116.689C128.728 116.414 128.895 116.027 128.868 115.53C128.855 115.266 128.771 115.027 128.616 114.814C128.462 114.601 128.264 114.435 128.024 114.318C127.788 114.196 127.537 114.142 127.273 114.155C127.005 114.169 126.751 114.25 126.511 114.397C126.272 114.54 126.08 114.726 125.935 114.955C125.791 115.183 125.726 115.43 125.74 115.694L124.649 115.751C124.631 115.4 124.685 115.068 124.812 114.753C124.943 114.438 125.128 114.157 125.366 113.91C125.61 113.663 125.888 113.466 126.201 113.32C126.514 113.169 126.848 113.084 127.203 113.066C127.666 113.041 128.103 113.133 128.513 113.342C128.923 113.55 129.259 113.841 129.522 114.213C129.789 114.586 129.935 115.005 129.959 115.473C129.981 115.892 129.895 116.285 129.702 116.651C129.508 117.017 129.234 117.281 128.878 117.443C129.199 117.535 129.474 117.689 129.703 117.907C129.931 118.121 130.107 118.372 130.23 118.661C130.358 118.949 130.431 119.256 130.448 119.58C130.474 120.087 130.366 120.556 130.124 120.99C129.887 121.423 129.558 121.777 129.139 122.051C128.723 122.32 128.26 122.468 127.749 122.494ZM134.43 122.144C133.889 122.173 133.389 122.075 132.93 121.852C132.476 121.628 132.106 121.318 131.821 120.921C131.539 120.519 131.385 120.067 131.359 119.565C131.335 119.098 131.435 118.663 131.662 118.26C131.888 117.854 132.194 117.525 132.58 117.275C132.244 117.084 131.962 116.824 131.732 116.493C131.506 116.157 131.382 115.789 131.361 115.386C131.337 114.919 131.436 114.488 131.658 114.095C131.885 113.701 132.196 113.381 132.591 113.135C132.99 112.884 133.438 112.745 133.936 112.719C134.433 112.693 134.892 112.784 135.31 112.992C135.733 113.196 136.076 113.481 136.338 113.85C136.605 114.217 136.75 114.635 136.775 115.102C136.796 115.505 136.712 115.885 136.522 116.242C136.332 116.594 136.076 116.883 135.754 117.109C136.177 117.316 136.52 117.611 136.783 117.992C137.05 118.369 137.196 118.79 137.22 119.258C137.247 119.755 137.138 120.219 136.896 120.648C136.654 121.077 136.317 121.427 135.884 121.697C135.455 121.967 134.971 122.116 134.43 122.144ZM134.373 121.054C134.701 121.037 134.994 120.947 135.25 120.787C135.511 120.625 135.715 120.417 135.862 120.162C136.009 119.903 136.074 119.622 136.059 119.319C136.042 119.011 135.948 118.739 135.775 118.5C135.602 118.262 135.377 118.076 135.101 117.943C134.83 117.81 134.529 117.752 134.2 117.769C133.876 117.786 133.583 117.875 133.323 118.037C133.062 118.198 132.858 118.406 132.711 118.661C132.564 118.916 132.498 119.197 132.514 119.504C132.53 119.807 132.625 120.08 132.798 120.323C132.971 120.561 133.196 120.747 133.472 120.88C133.748 121.013 134.048 121.071 134.373 121.054ZM134.143 116.679C134.429 116.664 134.685 116.585 134.912 116.443C135.139 116.301 135.316 116.118 135.443 115.895C135.574 115.671 135.633 115.427 135.619 115.163C135.605 114.895 135.521 114.658 135.367 114.454C135.218 114.245 135.023 114.081 134.782 113.964C134.542 113.846 134.279 113.795 133.993 113.81C133.707 113.825 133.451 113.903 133.224 114.045C132.997 114.187 132.818 114.37 132.687 114.594C132.559 114.813 132.503 115.057 132.517 115.326C132.531 115.59 132.612 115.826 132.762 116.035C132.916 116.244 133.114 116.407 133.354 116.525C133.595 116.642 133.858 116.694 134.143 116.679ZM138.39 121.768L138.339 120.8C138.657 120.484 139.014 120.131 139.41 119.742C139.806 119.348 140.199 118.939 140.589 118.515C140.983 118.086 141.343 117.664 141.668 117.248C141.993 116.832 142.253 116.44 142.446 116.074C142.639 115.704 142.729 115.385 142.715 115.117C142.698 114.796 142.605 114.508 142.435 114.253C142.266 113.992 142.044 113.789 141.772 113.643C141.504 113.496 141.21 113.432 140.89 113.448C140.569 113.465 140.279 113.561 140.019 113.735C139.764 113.909 139.563 114.134 139.417 114.411C139.275 114.683 139.213 114.979 139.229 115.299L138.139 115.356C138.111 114.824 138.216 114.337 138.453 113.895C138.69 113.449 139.016 113.089 139.431 112.815C139.846 112.538 140.313 112.385 140.833 112.358C141.352 112.331 141.83 112.434 142.268 112.667C142.709 112.899 143.069 113.226 143.347 113.645C143.625 114.06 143.778 114.531 143.806 115.059C143.821 115.362 143.765 115.693 143.636 116.051C143.507 116.405 143.325 116.773 143.089 117.154C142.853 117.535 142.582 117.922 142.277 118.316C141.972 118.705 141.65 119.091 141.31 119.473C140.969 119.855 140.631 120.222 140.293 120.574L144.201 120.37L144.258 121.46L138.39 121.768Z" fill="#EEF1F6"/>
<rect x="123.37" y="133.57" width="24" height="141.29" rx="12" transform="rotate(-3 123.37 133.57)" fill="#FF9F1C"/>
<path d="M134.513 293.496L131.928 285.22L132.791 285.175L134.929 292.026L136.332 284.989L137.075 284.95L139.213 291.802L140.616 284.765L141.479 284.72L139.786 293.22L138.791 293.272L136.806 286.917L135.496 293.445L134.513 293.496ZM144.976 293.104C144.425 293.133 143.914 293.017 143.444 292.758C142.977 292.498 142.596 292.137 142.299 291.676C142.007 291.211 141.845 290.689 141.815 290.109C141.792 289.67 141.848 289.256 141.984 288.869C142.12 288.477 142.316 288.13 142.572 287.829C142.833 287.523 143.14 287.278 143.495 287.095C143.85 286.912 144.233 286.81 144.645 286.789C145.088 286.765 145.5 286.832 145.881 286.988C146.266 287.144 146.6 287.373 146.884 287.675C147.172 287.976 147.396 288.335 147.554 288.751C147.716 289.167 147.797 289.622 147.799 290.114L142.718 290.38C142.786 290.757 142.924 291.091 143.131 291.38C143.342 291.67 143.603 291.894 143.911 292.054C144.224 292.21 144.564 292.28 144.932 292.265C145.331 292.244 145.685 292.122 145.994 291.897C146.307 291.672 146.551 291.373 146.728 290.999L147.589 291.153C147.377 291.696 147.039 292.151 146.573 292.516C146.107 292.876 145.575 293.073 144.976 293.104ZM142.659 289.705L146.919 289.481C146.871 289.111 146.74 288.778 146.524 288.481C146.312 288.179 146.045 287.945 145.724 287.778C145.403 287.606 145.056 287.53 144.685 287.55C144.313 287.569 143.978 287.679 143.681 287.879C143.382 288.074 143.144 288.333 142.964 288.655C142.785 288.973 142.683 289.323 142.659 289.705ZM153.368 283.496L154.207 283.452L154.678 292.439L153.839 292.483L153.781 291.363C153.593 291.757 153.324 292.082 152.973 292.336C152.625 292.587 152.204 292.725 151.708 292.751C151.273 292.774 150.861 292.713 150.473 292.57C150.085 292.426 149.738 292.218 149.431 291.945C149.128 291.669 148.885 291.345 148.701 290.974C148.518 290.603 148.414 290.2 148.392 289.765C148.369 289.329 148.429 288.918 148.573 288.529C148.717 288.137 148.925 287.79 149.198 287.487C149.474 287.18 149.797 286.935 150.168 286.752C150.539 286.568 150.942 286.465 151.378 286.442C151.873 286.416 152.307 286.511 152.679 286.728C153.054 286.941 153.356 287.231 153.583 287.6L153.368 283.496ZM151.672 291.936C152.099 291.914 152.461 291.79 152.758 291.567C153.054 291.339 153.275 291.043 153.42 290.679C153.57 290.314 153.633 289.919 153.61 289.491C153.587 289.052 153.483 288.661 153.297 288.318C153.11 287.971 152.858 287.702 152.539 287.51C152.221 287.319 151.85 287.234 151.427 287.256C151.003 287.279 150.623 287.405 150.287 287.635C149.95 287.86 149.687 288.157 149.498 288.523C149.309 288.889 149.226 289.288 149.248 289.72C149.271 290.155 149.398 290.545 149.628 290.889C149.858 291.23 150.153 291.495 150.511 291.684C150.873 291.874 151.26 291.958 151.672 291.936Z" fill="#97ABCB"/>
<path d="M168.243 135.898C167.693 135.926 167.198 135.829 166.757 135.604C166.319 135.376 165.969 135.06 165.705 134.657C165.44 134.25 165.295 133.791 165.268 133.281L166.358 133.223C166.374 133.531 166.461 133.808 166.617 134.056C166.773 134.3 166.985 134.49 167.252 134.628C167.52 134.766 167.831 134.826 168.186 134.807C168.493 134.791 168.775 134.7 169.031 134.535C169.291 134.369 169.497 134.157 169.648 133.897C169.799 133.633 169.867 133.348 169.851 133.04C169.83 132.655 169.714 132.34 169.502 132.095C169.293 131.846 169.011 131.668 168.654 131.561C168.301 131.449 167.901 131.405 167.455 131.428L167.41 130.552C168.024 130.52 168.508 130.366 168.863 130.092C169.222 129.817 169.388 129.431 169.362 128.933C169.348 128.669 169.264 128.43 169.11 128.217C168.955 128.004 168.758 127.839 168.517 127.721C168.281 127.599 168.031 127.545 167.767 127.558C167.499 127.573 167.245 127.653 167.005 127.8C166.765 127.943 166.573 128.129 166.429 128.358C166.285 128.586 166.219 128.833 166.233 129.097L165.143 129.154C165.124 128.803 165.179 128.471 165.305 128.156C165.436 127.841 165.621 127.56 165.86 127.313C166.103 127.066 166.381 126.87 166.695 126.723C167.008 126.572 167.342 126.487 167.697 126.469C168.16 126.444 168.596 126.537 169.006 126.745C169.417 126.953 169.753 127.244 170.015 127.616C170.282 127.989 170.428 128.408 170.452 128.876C170.474 129.295 170.389 129.688 170.195 130.054C170.002 130.42 169.727 130.684 169.371 130.846C169.693 130.938 169.968 131.092 170.196 131.31C170.424 131.524 170.6 131.775 170.724 132.064C170.852 132.352 170.924 132.659 170.941 132.983C170.968 133.49 170.86 133.96 170.618 134.393C170.38 134.827 170.052 135.18 169.632 135.454C169.217 135.723 168.754 135.871 168.243 135.898ZM174.949 135.546C174.374 135.576 173.84 135.461 173.349 135.2C172.858 134.94 172.458 134.579 172.147 134.118C171.836 133.652 171.666 133.13 171.635 132.55C171.618 132.225 171.64 131.94 171.701 131.694C171.766 131.447 171.867 131.18 172.004 130.89L174.341 126.296L175.606 126.23L173.937 129.513C174.303 129.377 174.67 129.316 175.04 129.332C175.41 129.347 175.763 129.428 176.101 129.576C176.443 129.723 176.748 129.924 177.018 130.178C177.287 130.433 177.504 130.734 177.67 131.082C177.836 131.424 177.929 131.803 177.951 132.219C177.974 132.656 177.911 133.069 177.762 133.459C177.618 133.848 177.408 134.196 177.133 134.501C176.863 134.806 176.54 135.05 176.163 135.235C175.787 135.42 175.382 135.523 174.949 135.546ZM174.892 134.456C175.29 134.435 175.64 134.319 175.941 134.108C176.247 133.896 176.48 133.628 176.641 133.303C176.806 132.977 176.879 132.635 176.861 132.276C176.841 131.9 176.73 131.56 176.527 131.259C176.329 130.957 176.067 130.721 175.742 130.551C175.42 130.377 175.069 130.3 174.688 130.32C174.29 130.341 173.94 130.457 173.639 130.668C173.338 130.879 173.104 131.145 172.939 131.466C172.778 131.787 172.707 132.129 172.726 132.493C172.746 132.887 172.86 133.234 173.067 133.536C173.274 133.837 173.537 134.071 173.859 134.236C174.184 134.402 174.528 134.475 174.892 134.456ZM181.947 135.179C181.406 135.208 180.906 135.11 180.447 134.887C179.993 134.663 179.623 134.353 179.338 133.956C179.056 133.554 178.902 133.102 178.876 132.6C178.852 132.133 178.952 131.698 179.179 131.295C179.405 130.889 179.711 130.56 180.097 130.31C179.761 130.119 179.479 129.859 179.249 129.528C179.023 129.192 178.899 128.824 178.878 128.421C178.854 127.954 178.953 127.523 179.175 127.13C179.402 126.736 179.713 126.416 180.108 126.17C180.507 125.919 180.955 125.78 181.453 125.754C181.95 125.728 182.409 125.819 182.827 126.027C183.25 126.231 183.593 126.516 183.855 126.885C184.122 127.252 184.267 127.67 184.292 128.137C184.313 128.54 184.229 128.92 184.039 129.277C183.849 129.629 183.593 129.918 183.271 130.144C183.694 130.351 184.037 130.646 184.3 131.027C184.567 131.403 184.713 131.825 184.737 132.293C184.764 132.79 184.656 133.254 184.413 133.683C184.171 134.112 183.834 134.462 183.401 134.732C182.972 135.002 182.488 135.151 181.947 135.179ZM181.89 134.089C182.218 134.072 182.511 133.982 182.767 133.822C183.028 133.66 183.232 133.452 183.379 133.197C183.526 132.938 183.591 132.657 183.576 132.354C183.559 132.046 183.465 131.774 183.292 131.535C183.119 131.297 182.894 131.111 182.618 130.978C182.347 130.845 182.046 130.787 181.717 130.804C181.393 130.821 181.1 130.91 180.84 131.072C180.579 131.233 180.375 131.441 180.228 131.696C180.081 131.951 180.015 132.232 180.031 132.539C180.047 132.842 180.142 133.115 180.315 133.358C180.488 133.596 180.713 133.782 180.989 133.915C181.265 134.048 181.565 134.106 181.89 134.089ZM181.66 129.714C181.946 129.699 182.202 129.62 182.429 129.478C182.656 129.336 182.833 129.153 182.96 128.93C183.092 128.706 183.15 128.462 183.136 128.198C183.122 127.93 183.038 127.693 182.885 127.489C182.735 127.28 182.54 127.116 182.299 126.999C182.059 126.881 181.796 126.83 181.51 126.845C181.224 126.86 180.968 126.938 180.741 127.08C180.514 127.222 180.335 127.405 180.204 127.629C180.076 127.848 180.02 128.092 180.034 128.361C180.048 128.625 180.129 128.861 180.279 129.07C180.433 129.279 180.631 129.442 180.871 129.56C181.112 129.677 181.375 129.729 181.66 129.714Z" fill="#EEF1F6"/>
<rect opacity="0.3" x="163.793" y="146.977" width="24" height="125.786" rx="12" transform="rotate(-3 163.793 146.977)" fill="#FF9F1C"/>
<path d="M179.903 282.706L179.947 283.545L177.071 283.695L177.467 291.245L176.628 291.289L176.232 283.739L173.362 283.89L173.318 283.051L179.903 282.706ZM186.576 287.049L186.77 290.757L185.932 290.801L185.746 287.26C185.729 286.933 185.633 286.639 185.46 286.38C185.286 286.121 185.061 285.918 184.785 285.773C184.509 285.627 184.207 285.563 183.88 285.58C183.556 285.597 183.263 285.692 182.999 285.866C182.74 286.04 182.538 286.265 182.392 286.541C182.246 286.817 182.182 287.119 182.199 287.446L182.385 290.987L181.546 291.031L181.075 282.044L181.913 282L182.114 285.822C182.31 285.508 182.573 285.252 182.903 285.054C183.233 284.857 183.598 284.747 183.997 284.726C184.448 284.703 184.866 284.791 185.249 284.991C185.632 285.191 185.943 285.472 186.182 285.832C186.421 286.192 186.552 286.597 186.576 287.049ZM187.611 288.412L187.417 284.715L188.256 284.671L188.441 288.201C188.458 288.528 188.553 288.822 188.727 289.081C188.901 289.34 189.126 289.543 189.402 289.688C189.682 289.834 189.984 289.898 190.307 289.881C190.635 289.864 190.926 289.769 191.181 289.595C191.441 289.421 191.643 289.196 191.789 288.92C191.935 288.644 191.999 288.343 191.982 288.015L191.797 284.486L192.636 284.442L192.956 290.433L192.117 290.477L192.067 289.639C191.871 289.953 191.608 290.21 191.278 290.407C190.952 290.604 190.589 290.714 190.19 290.735C189.738 290.758 189.321 290.67 188.938 290.47C188.555 290.269 188.244 289.989 188.005 289.629C187.766 289.269 187.634 288.864 187.611 288.412Z" fill="#97ABCB"/>
<path d="M206.115 107.765C205.565 107.794 205.07 107.696 204.628 107.472C204.191 107.243 203.84 106.928 203.576 106.525C203.312 106.118 203.166 105.659 203.14 105.148L204.23 105.091C204.246 105.398 204.332 105.676 204.489 105.924C204.645 106.167 204.856 106.358 205.124 106.496C205.391 106.634 205.703 106.693 206.058 106.675C206.365 106.659 206.646 106.568 206.902 106.403C207.163 106.237 207.369 106.025 207.52 105.765C207.671 105.501 207.738 105.215 207.722 104.908C207.702 104.523 207.586 104.208 207.373 103.963C207.165 103.714 206.882 103.535 206.525 103.428C206.172 103.317 205.773 103.272 205.327 103.296L205.281 102.42C205.896 102.387 206.38 102.234 206.735 101.959C207.093 101.685 207.26 101.298 207.234 100.801C207.22 100.537 207.136 100.298 206.981 100.085C206.827 99.8716 206.63 99.7063 206.389 99.5887C206.153 99.4665 205.903 99.4124 205.639 99.4262C205.37 99.4403 205.116 99.5209 204.877 99.6679C204.637 99.8107 204.445 99.9965 204.301 100.225C204.156 100.454 204.091 100.701 204.105 100.965L203.014 101.022C202.996 100.671 203.05 100.339 203.177 100.024C203.308 99.7089 203.493 99.428 203.732 99.1812C203.975 98.9341 204.253 98.7373 204.566 98.5907C204.88 98.4398 205.214 98.355 205.568 98.3364C206.031 98.3121 206.468 98.4043 206.878 98.6127C207.288 98.8212 207.625 99.1117 207.887 99.4841C208.154 99.8563 208.3 100.276 208.324 100.743C208.346 101.163 208.26 101.556 208.067 101.922C207.874 102.288 207.599 102.552 207.243 102.714C207.564 102.805 207.839 102.96 208.068 103.178C208.296 103.392 208.472 103.643 208.595 103.932C208.723 104.22 208.796 104.526 208.813 104.851C208.839 105.357 208.732 105.827 208.49 106.261C208.252 106.694 207.923 107.048 207.504 107.321C207.088 107.591 206.625 107.738 206.115 107.765ZM211.514 107.313L213.279 103.862C212.832 104.02 212.385 104.067 211.939 104.004C211.497 103.936 211.09 103.779 210.717 103.534C210.344 103.285 210.038 102.962 209.801 102.567C209.563 102.171 209.431 101.725 209.405 101.227C209.383 100.803 209.442 100.401 209.582 100.02C209.723 99.6396 209.927 99.3013 210.193 99.0053C210.46 98.7093 210.773 98.4716 211.132 98.2922C211.496 98.1126 211.89 98.0116 212.314 97.9894C212.876 97.9599 213.394 98.0716 213.868 98.3246C214.345 98.5772 214.735 98.93 215.036 99.3828C215.342 99.8311 215.509 100.339 215.539 100.906C215.555 101.213 215.53 101.488 215.465 101.73C215.404 101.967 215.305 102.228 215.168 102.513L212.773 107.247L211.514 107.313ZM212.566 103.047C212.951 103.026 213.288 102.918 213.577 102.72C213.87 102.518 214.093 102.261 214.246 101.95C214.404 101.638 214.473 101.309 214.455 100.962C214.435 100.586 214.327 100.253 214.129 99.9641C213.932 99.6707 213.677 99.4454 213.365 99.2882C213.053 99.1266 212.721 99.055 212.371 99.0734C211.986 99.0936 211.646 99.2047 211.353 99.4066C211.064 99.6083 210.842 99.8674 210.685 100.184C210.532 100.495 210.464 100.824 210.482 101.171C210.501 101.534 210.605 101.863 210.794 102.157C210.988 102.446 211.238 102.671 211.546 102.833C211.858 102.995 212.198 103.066 212.566 103.047ZM220.146 107.03C219.605 107.058 219.114 106.962 218.673 106.743C218.231 106.518 217.846 106.198 217.516 105.781C217.186 105.365 216.926 104.877 216.736 104.319C216.546 103.756 216.434 103.15 216.4 102.501C216.366 101.852 216.414 101.237 216.544 100.658C216.675 100.078 216.882 99.566 217.167 99.1215C217.451 98.6726 217.801 98.3158 218.217 98.051C218.633 97.7819 219.111 97.6332 219.652 97.6048C220.188 97.5767 220.677 97.6748 221.119 97.899C221.564 98.1186 221.948 98.437 222.269 98.8541C222.594 99.2666 222.852 99.7543 223.042 100.317C223.236 100.88 223.35 101.486 223.385 102.135C223.419 102.784 223.368 103.398 223.234 103.978C223.103 104.553 222.898 105.065 222.618 105.514C222.342 105.962 221.994 106.321 221.574 106.591C221.159 106.855 220.682 107.002 220.146 107.03ZM220.089 105.939C220.63 105.911 221.073 105.721 221.419 105.368C221.769 105.012 222.021 104.554 222.174 103.995C222.327 103.436 222.386 102.834 222.352 102.189C222.317 101.509 222.19 100.902 221.971 100.367C221.756 99.8269 221.456 99.4066 221.071 99.1056C220.691 98.8044 220.237 98.6677 219.709 98.6953C219.294 98.7171 218.935 98.8335 218.634 99.0446C218.337 99.2554 218.095 99.5349 217.91 99.8831C217.724 100.231 217.591 100.627 217.51 101.069C217.433 101.507 217.407 101.966 217.432 102.447C217.466 103.091 217.59 103.686 217.806 104.23C218.02 104.77 218.318 105.197 218.699 105.511C219.085 105.825 219.548 105.968 220.089 105.939Z" fill="#EEF1F6"/>
<rect x="202.039" y="118.825" width="24" height="151.898" rx="12" transform="rotate(-3 202.039 118.825)" fill="#FF9F1C"/>
<path d="M217.682 289.138L217.243 280.749L222.15 280.492L222.194 281.331L218.125 281.544L218.264 284.18L221.757 283.997L221.801 284.836L218.308 285.019L218.521 289.094L217.682 289.138ZM223.206 288.848L222.892 282.856L223.731 282.812L223.774 283.639C223.97 283.324 224.233 283.068 224.563 282.871C224.893 282.673 225.258 282.564 225.657 282.543C225.889 282.531 226.114 282.549 226.333 282.598L226.035 283.449C225.865 283.405 225.7 283.388 225.54 283.396C225.216 283.413 224.923 283.509 224.66 283.683C224.4 283.857 224.198 284.082 224.052 284.358C223.906 284.634 223.842 284.935 223.859 285.263L224.045 288.804L223.206 288.848ZM227.093 282.636L227.932 282.592L228.246 288.584L227.407 288.628L227.093 282.636ZM227.464 281.565C227.328 281.572 227.21 281.534 227.109 281.452C227.013 281.365 226.961 281.253 226.954 281.117C226.946 280.982 226.986 280.867 227.074 280.775C227.165 280.678 227.278 280.626 227.414 280.619C227.546 280.612 227.66 280.652 227.757 280.739C227.857 280.822 227.911 280.931 227.918 281.067C227.925 281.203 227.885 281.319 227.798 281.416C227.711 281.508 227.599 281.558 227.464 281.565Z" fill="#97ABCB"/>
<path d="M248.593 161.103C248.043 161.132 247.548 161.034 247.107 160.81C246.669 160.581 246.319 160.265 246.055 159.863C245.79 159.456 245.645 158.997 245.618 158.486L246.708 158.429C246.724 158.736 246.811 159.014 246.967 159.262C247.123 159.505 247.335 159.696 247.602 159.834C247.87 159.971 248.181 160.031 248.536 160.012C248.843 159.996 249.125 159.906 249.381 159.74C249.641 159.575 249.847 159.362 249.998 159.103C250.149 158.839 250.217 158.553 250.201 158.246C250.18 157.861 250.064 157.546 249.852 157.301C249.643 157.051 249.361 156.873 249.004 156.766C248.651 156.654 248.251 156.61 247.805 156.634L247.76 155.757C248.374 155.725 248.858 155.572 249.213 155.297C249.572 155.022 249.738 154.636 249.712 154.138C249.698 153.874 249.614 153.636 249.46 153.423C249.305 153.209 249.108 153.044 248.867 152.926C248.631 152.804 248.381 152.75 248.117 152.764C247.849 152.778 247.595 152.859 247.355 153.006C247.115 153.148 246.923 153.334 246.779 153.563C246.635 153.792 246.569 154.038 246.583 154.302L245.493 154.359C245.474 154.009 245.529 153.676 245.655 153.362C245.786 153.047 245.971 152.766 246.21 152.519C246.453 152.272 246.731 152.075 247.045 151.928C247.358 151.777 247.692 151.693 248.047 151.674C248.51 151.65 248.946 151.742 249.356 151.95C249.767 152.159 250.103 152.449 250.365 152.822C250.632 153.194 250.778 153.614 250.802 154.081C250.824 154.501 250.739 154.894 250.545 155.26C250.352 155.626 250.077 155.89 249.721 156.051C250.043 156.143 250.318 156.298 250.546 156.516C250.774 156.73 250.95 156.981 251.074 157.269C251.202 157.558 251.274 157.864 251.291 158.189C251.318 158.695 251.21 159.165 250.968 159.599C250.73 160.032 250.402 160.385 249.982 160.659C249.567 160.928 249.104 161.076 248.593 161.103ZM255.715 160.73C255.174 160.758 254.683 160.662 254.242 160.442C253.8 160.218 253.415 159.898 253.085 159.481C252.755 159.064 252.495 158.577 252.305 158.018C252.115 157.456 252.003 156.85 251.969 156.201C251.935 155.551 251.983 154.937 252.113 154.357C252.243 153.778 252.451 153.266 252.736 152.821C253.02 152.372 253.37 152.016 253.786 151.751C254.201 151.482 254.68 151.333 255.221 151.305C255.757 151.277 256.246 151.375 256.688 151.599C257.133 151.818 257.516 152.137 257.838 152.554C258.163 152.966 258.421 153.454 258.611 154.017C258.805 154.58 258.919 155.185 258.953 155.834C258.987 156.484 258.937 157.098 258.803 157.678C258.672 158.253 258.467 158.765 258.187 159.214C257.911 159.662 257.563 160.021 257.143 160.29C256.727 160.555 256.251 160.702 255.715 160.73ZM255.657 159.639C256.198 159.611 256.642 159.421 256.988 159.068C257.338 158.711 257.59 158.254 257.742 157.694C257.895 157.135 257.955 156.533 257.921 155.889C257.886 155.209 257.758 154.602 257.539 154.067C257.324 153.527 257.025 153.106 256.64 152.805C256.26 152.504 255.806 152.367 255.278 152.395C254.862 152.417 254.504 152.533 254.203 152.744C253.906 152.955 253.664 153.235 253.478 153.583C253.293 153.931 253.159 154.326 253.078 154.769C253.002 155.207 252.976 155.666 253.001 156.146C253.035 156.791 253.159 157.386 253.374 157.93C253.589 158.47 253.887 158.897 254.268 159.211C254.653 159.525 255.116 159.668 255.657 159.639ZM260.44 160.313L264.629 152.074L259.417 152.347L259.36 151.257L265.831 150.918L265.889 152.008L261.686 160.248L260.44 160.313Z" fill="#EEF1F6"/>
<rect opacity="0.3" x="244.555" y="172.16" width="24" height="96.4104" rx="12" transform="rotate(-3 244.555 172.16)" fill="#FF9F1C"/>
<path d="M257.073 287.229C256.626 287.253 256.189 287.206 255.762 287.088C255.339 286.97 254.965 286.789 254.64 286.546C254.315 286.303 254.079 286.004 253.932 285.652L254.702 285.317C254.803 285.56 254.973 285.765 255.215 285.933C255.459 286.096 255.74 286.218 256.057 286.297C256.377 286.377 256.701 286.408 257.029 286.391C257.413 286.37 257.767 286.288 258.092 286.143C258.416 285.997 258.675 285.806 258.866 285.567C259.058 285.325 259.146 285.048 259.129 284.736C259.113 284.421 258.993 284.167 258.771 283.974C258.549 283.781 258.267 283.636 257.925 283.538C257.587 283.435 257.235 283.362 256.868 283.317C256.291 283.247 255.771 283.138 255.307 282.99C254.846 282.842 254.476 282.619 254.196 282.321C253.916 282.02 253.762 281.611 253.735 281.096C253.71 280.612 253.828 280.186 254.089 279.815C254.35 279.445 254.703 279.15 255.148 278.931C255.597 278.711 256.087 278.587 256.619 278.559C257.054 278.537 257.483 278.582 257.906 278.696C258.328 278.81 258.704 278.989 259.033 279.232C259.366 279.475 259.613 279.78 259.772 280.148L258.99 280.478C258.889 280.231 258.716 280.026 258.471 279.862C258.23 279.695 257.951 279.573 257.635 279.497C257.319 279.418 256.994 279.387 256.663 279.404C256.283 279.42 255.931 279.503 255.606 279.652C255.286 279.797 255.029 279.99 254.838 280.233C254.646 280.471 254.558 280.744 254.574 281.052C254.593 281.411 254.702 281.684 254.9 281.87C255.101 282.052 255.368 282.182 255.701 282.26C256.034 282.339 256.408 282.406 256.823 282.46C257.363 282.524 257.868 282.642 258.338 282.813C258.807 282.981 259.19 283.219 259.487 283.528C259.783 283.833 259.943 284.221 259.968 284.692C259.993 285.172 259.875 285.599 259.615 285.973C259.354 286.343 258.999 286.638 258.55 286.858C258.104 287.077 257.612 287.201 257.073 287.229ZM265.978 280.598L266.817 280.554L267.131 286.546L266.292 286.59L266.204 285.477C266.028 285.867 265.771 286.189 265.431 286.443C265.092 286.693 264.679 286.831 264.191 286.856C263.752 286.879 263.336 286.819 262.944 286.675C262.552 286.528 262.202 286.316 261.896 286.039C261.589 285.763 261.343 285.437 261.159 285.063C260.976 284.688 260.872 284.281 260.849 283.841C260.826 283.41 260.885 283 261.025 282.612C261.169 282.224 261.375 281.879 261.644 281.576C261.916 281.274 262.236 281.033 262.603 280.853C262.974 280.67 263.375 280.566 263.807 280.544C264.306 280.518 264.748 280.615 265.132 280.835C265.515 281.051 265.827 281.345 266.067 281.717L265.978 280.598ZM264.131 286.042C264.558 286.02 264.92 285.897 265.217 285.673C265.513 285.445 265.734 285.149 265.879 284.785C266.028 284.421 266.092 284.025 266.069 283.598C266.046 283.158 265.942 282.767 265.756 282.424C265.569 282.078 265.317 281.809 264.998 281.617C264.68 281.425 264.309 281.341 263.885 281.363C263.462 281.385 263.08 281.511 262.74 281.741C262.403 281.967 262.14 282.263 261.951 282.63C261.766 282.996 261.685 283.395 261.707 283.826C261.73 284.262 261.857 284.652 262.087 284.996C262.317 285.336 262.612 285.601 262.97 285.791C263.332 285.98 263.719 286.064 264.131 286.042ZM271.122 281.17L269.69 281.245L269.954 286.398L269.115 286.442L268.851 281.289L267.767 281.346L267.723 280.507L268.807 280.45L268.703 278.569L269.541 278.525L269.646 280.406L271.078 280.331L271.122 281.17Z" fill="#97ABCB"/>
<path d="M287.188 86.1875L287.059 83.7339L283.151 83.9387L283.094 82.8352L286.439 77.1143L287.802 77.0428L288.092 82.5862L288.995 82.5389L289.052 83.6294L288.15 83.6767L288.278 86.1303L287.188 86.1875ZM284.372 82.7682L287.002 82.6434L286.772 78.6329L284.372 82.7682ZM291.5 85.9615L291.081 77.9645L290.062 78.0179L290.31 76.9114L292.114 76.8168L292.591 85.9043L291.5 85.9615ZM294.145 85.8229L294.094 84.8557C294.412 84.5397 294.769 84.1868 295.165 83.7972C295.561 83.4033 295.954 82.9943 296.344 82.5703C296.738 82.1418 297.098 81.7194 297.423 81.3031C297.748 80.8869 298.008 80.4958 298.201 80.1298C298.394 79.7595 298.484 79.4402 298.47 79.1719C298.453 78.8517 298.36 78.5637 298.19 78.3079C298.02 78.0477 297.799 77.8445 297.527 77.6982C297.259 77.5517 296.965 77.4869 296.644 77.5037C296.324 77.5204 296.034 77.6159 295.774 77.7901C295.519 77.964 295.318 78.1894 295.172 78.4661C295.03 78.7382 294.967 79.0344 294.984 79.3546L293.894 79.4117C293.866 78.8795 293.97 78.3923 294.208 77.9503C294.444 77.504 294.771 77.1441 295.186 76.8706C295.601 76.5929 296.068 76.4404 296.587 76.4132C297.107 76.3859 297.585 76.4889 298.022 76.722C298.464 76.9548 298.824 77.2809 299.102 77.7003C299.38 78.1153 299.533 78.5868 299.56 79.1148C299.576 79.4177 299.52 79.7483 299.391 80.1065C299.262 80.4604 299.079 80.8279 298.843 81.2092C298.607 81.5904 298.337 81.9777 298.032 82.3712C297.727 82.7604 297.404 83.1461 297.064 83.5284C296.724 83.9108 296.385 84.2778 296.048 84.6296L299.956 84.4248L300.013 85.5154L294.145 85.8229Z" fill="#EEF1F6"/>
<rect x="280.367" y="97.5601" width="24" height="169.034" rx="12" transform="rotate(-3 280.367 97.5601)" fill="#FF9F1C"/>
<path d="M295.919 285.193C295.471 285.217 295.034 285.17 294.608 285.052C294.185 284.934 293.811 284.753 293.486 284.51C293.16 284.267 292.925 283.968 292.778 283.616L293.547 283.281C293.648 283.524 293.819 283.729 294.06 283.897C294.305 284.06 294.586 284.182 294.903 284.261C295.223 284.341 295.547 284.372 295.875 284.355C296.258 284.334 296.612 284.252 296.937 284.107C297.262 283.961 297.52 283.77 297.712 283.531C297.904 283.289 297.991 283.012 297.975 282.7C297.959 282.385 297.839 282.131 297.617 281.938C297.394 281.745 297.112 281.6 296.771 281.502C296.433 281.399 296.081 281.326 295.714 281.281C295.137 281.211 294.617 281.102 294.152 280.954C293.692 280.806 293.322 280.583 293.042 280.285C292.762 279.984 292.608 279.575 292.581 279.06C292.556 278.576 292.674 278.15 292.935 277.779C293.196 277.409 293.549 277.114 293.994 276.895C294.443 276.675 294.933 276.551 295.464 276.523C295.9 276.501 296.329 276.546 296.751 276.66C297.174 276.774 297.55 276.953 297.879 277.196C298.212 277.439 298.458 277.744 298.618 278.112L297.836 278.442C297.735 278.195 297.562 277.99 297.317 277.826C297.076 277.659 296.797 277.537 296.481 277.461C296.164 277.382 295.84 277.351 295.509 277.368C295.129 277.384 294.777 277.467 294.452 277.616C294.131 277.761 293.875 277.954 293.684 278.197C293.492 278.435 293.404 278.708 293.42 279.016C293.439 279.375 293.547 279.648 293.745 279.834C293.947 280.016 294.214 280.146 294.547 280.224C294.879 280.303 295.253 280.37 295.669 280.424C296.209 280.488 296.714 280.606 297.183 280.777C297.653 280.945 298.036 281.183 298.332 281.492C298.629 281.797 298.789 282.185 298.814 282.656C298.839 283.136 298.721 283.563 298.46 283.937C298.199 284.307 297.844 284.602 297.395 284.822C296.95 285.041 296.458 285.165 295.919 285.193ZM299.876 282.529L299.683 278.832L300.521 278.788L300.706 282.317C300.724 282.644 300.819 282.938 300.993 283.197C301.167 283.456 301.392 283.659 301.668 283.805C301.948 283.95 302.249 284.014 302.573 283.998C302.9 283.98 303.192 283.885 303.447 283.711C303.706 283.538 303.909 283.313 304.055 283.037C304.2 282.761 304.265 282.459 304.248 282.131L304.063 278.602L304.901 278.558L305.221 284.55L304.383 284.594L304.333 283.755C304.137 284.07 303.874 284.326 303.544 284.523C303.218 284.721 302.855 284.83 302.455 284.851C302.004 284.875 301.587 284.786 301.204 284.586C300.821 284.386 300.51 284.106 300.271 283.746C300.031 283.386 299.9 282.98 299.876 282.529ZM311.446 280.504L311.64 284.213L310.801 284.257L310.616 280.716C310.599 280.389 310.503 280.095 310.329 279.836C310.155 279.577 309.931 279.374 309.655 279.228C309.379 279.083 309.077 279.018 308.749 279.035C308.426 279.052 308.132 279.148 307.869 279.322C307.61 279.496 307.407 279.721 307.261 279.997C307.116 280.273 307.051 280.574 307.069 280.902L307.254 284.443L306.415 284.487L306.101 278.495L306.94 278.451L306.983 279.278C307.179 278.964 307.442 278.707 307.772 278.51C308.102 278.312 308.467 278.203 308.867 278.182C309.318 278.159 309.735 278.247 310.118 278.447C310.501 278.647 310.812 278.927 311.052 279.287C311.291 279.647 311.422 280.053 311.446 280.504Z" fill="#97ABCB"/>
<path d="M116.411 74.5452L116.266 71.777L113.498 71.9221L113.422 70.4681L116.19 70.323L116.045 67.5548L117.499 67.4786L117.644 70.2468L120.412 70.1017L120.489 71.5557L117.72 71.7008L117.865 74.469L116.411 74.5452ZM122.957 74.9031L122.521 66.5706L121.353 66.6317L121.675 65.1569L123.898 65.0404L124.411 74.8269L122.957 74.9031ZM126.862 74.8807C126.648 74.892 126.462 74.8269 126.305 74.6856C126.153 74.5441 126.071 74.3661 126.06 74.1517C126.049 73.942 126.112 73.7588 126.248 73.6021C126.39 73.4452 126.567 73.3611 126.782 73.3498C126.996 73.3386 127.182 73.4036 127.339 73.5449C127.496 73.6863 127.58 73.8618 127.591 74.0715C127.602 74.2859 127.537 74.4715 127.396 74.6285C127.254 74.7854 127.076 74.8695 126.862 74.8807ZM133.213 74.3656L133.082 71.8631L128.895 72.0825L128.818 70.6215L132.351 64.5974L134.154 64.5029L134.46 70.3329L135.355 70.286L135.431 71.74L134.536 71.7869L134.667 74.2894L133.213 74.3656ZM130.51 70.5329L133.006 70.4091L132.792 66.586L130.51 70.5329ZM139.932 74.1958C139.34 74.2268 138.802 74.1171 138.317 73.8669C137.836 73.6163 137.449 73.2675 137.154 72.8203C136.86 72.3731 136.698 71.8675 136.668 71.3036L138.122 71.2274C138.138 71.521 138.221 71.7853 138.374 72.0203C138.526 72.2553 138.73 72.4386 138.985 72.5701C139.239 72.7016 139.53 72.7589 139.856 72.7418C140.149 72.7264 140.418 72.6399 140.662 72.4822C140.906 72.3245 141.099 72.1205 141.24 71.8701C141.381 71.6197 141.444 71.3477 141.429 71.0541C141.409 70.6813 141.295 70.3742 141.086 70.1328C140.877 69.8914 140.595 69.7193 140.239 69.6164C139.887 69.5087 139.486 69.4666 139.033 69.4903L138.973 68.3439C139.589 68.3117 140.074 68.1647 140.429 67.9031C140.785 67.6415 140.95 67.2707 140.925 66.7907C140.912 66.539 140.832 66.3142 140.686 66.1162C140.545 65.9133 140.361 65.7571 140.136 65.6474C139.915 65.5328 139.681 65.482 139.434 65.4949C139.178 65.5083 138.934 65.5842 138.703 65.7225C138.476 65.8559 138.294 66.0313 138.156 66.2488C138.017 66.4617 137.955 66.694 137.968 66.9456L136.514 67.0218C136.494 66.635 136.554 66.2674 136.694 65.9189C136.839 65.5655 137.043 65.2534 137.304 64.9827C137.57 64.707 137.876 64.4877 138.223 64.3247C138.574 64.1567 138.945 64.0625 139.337 64.042C139.849 64.0151 140.331 64.1184 140.783 64.3517C141.239 64.5802 141.611 64.9018 141.899 65.3167C142.191 65.7266 142.351 66.1925 142.379 66.7145C142.401 67.1292 142.319 67.5284 142.133 67.912C141.952 68.2906 141.686 68.5662 141.335 68.7388C141.653 68.8343 141.924 68.9977 142.146 69.2291C142.373 69.4555 142.548 69.7221 142.672 70.0287C142.795 70.3306 142.865 70.6471 142.883 70.9779C142.912 71.5372 142.797 72.0572 142.537 72.5382C142.277 73.0144 141.916 73.4025 141.455 73.7024C140.999 74.002 140.491 74.1665 139.932 74.1958ZM144.786 73.7591L149.921 63.6765L151.599 63.5886L146.464 73.6712L144.786 73.7591ZM145.67 68.014C145.315 68.0326 144.985 67.9634 144.677 67.8066C144.375 67.6449 144.127 67.4219 143.934 67.1376C143.742 66.8486 143.636 66.5247 143.617 66.1659C143.598 65.7931 143.669 65.4552 143.83 65.1523C143.997 64.8492 144.222 64.6061 144.507 64.4229C144.796 64.2349 145.116 64.1317 145.465 64.1134C145.824 64.0946 146.155 64.166 146.458 64.3277C146.76 64.4847 147.008 64.7054 147.2 64.9897C147.393 65.2741 147.499 65.598 147.518 65.9615C147.537 66.3296 147.464 66.6653 147.297 66.9684C147.135 67.2713 146.91 67.5167 146.621 67.7048C146.336 67.8926 146.019 67.9957 145.67 68.014ZM145.616 66.9864C145.877 66.9727 146.091 66.8727 146.259 66.6863C146.427 66.4953 146.504 66.2716 146.49 66.0153C146.476 65.7543 146.376 65.54 146.19 65.3721C146.003 65.1997 145.78 65.1203 145.519 65.134C145.262 65.1474 145.048 65.2497 144.876 65.441C144.708 65.6274 144.631 65.8511 144.645 66.112C144.658 66.3684 144.758 66.5827 144.945 66.7552C145.136 66.9228 145.359 66.9998 145.616 66.9864ZM150.935 73.2476C150.571 73.2667 150.236 73.1931 149.928 73.027C149.624 72.856 149.377 72.6283 149.184 72.344C148.996 72.0548 148.893 71.7377 148.875 71.3929C148.856 71.0294 148.929 70.6961 149.096 70.393C149.262 70.0852 149.487 69.8374 149.772 69.6496C150.061 69.4568 150.38 69.3513 150.73 69.333C151.098 69.3137 151.433 69.3872 151.737 69.5536C152.04 69.72 152.285 69.9478 152.473 70.237C152.661 70.5262 152.764 70.8432 152.783 71.1881C152.801 71.5469 152.73 71.8801 152.569 72.1877C152.411 72.4903 152.188 72.738 151.9 72.9307C151.615 73.1232 151.294 73.2288 150.935 73.2476ZM150.881 72.22C151.133 72.2068 151.345 72.1046 151.517 71.9133C151.689 71.7221 151.768 71.4983 151.755 71.242C151.741 70.9856 151.639 70.7714 151.448 70.5991C151.257 70.4269 151.035 70.3474 150.783 70.3606C150.527 70.374 150.311 70.4765 150.134 70.668C149.961 70.8593 149.882 71.0831 149.895 71.3394C149.909 71.5957 150.011 71.81 150.203 71.9822C150.398 72.1542 150.625 72.2335 150.881 72.22Z" fill="#02DF82"/>
<path d="M163.437 72.9639C163.092 72.9819 162.751 72.9414 162.414 72.8422C162.082 72.7428 161.777 72.5859 161.499 72.3715L162.37 71.2043C162.492 71.296 162.636 71.3726 162.803 71.4339C162.97 71.4953 163.155 71.5206 163.36 71.5099C163.64 71.4952 163.89 71.4097 164.111 71.2532C164.336 71.0919 164.513 70.8887 164.64 70.6437C164.767 70.3941 164.823 70.1317 164.809 69.8568L164.445 62.9153L165.899 62.8391L166.263 69.7806C166.292 70.3258 166.183 70.8362 165.937 71.3118C165.69 71.7826 165.348 72.1697 164.911 72.473C164.478 72.7714 163.987 72.935 163.437 72.9639ZM167.675 69.9309L167.446 65.5619L168.9 65.4857L169.111 69.4982C169.127 69.8104 169.219 70.0906 169.386 70.3389C169.553 70.5872 169.769 70.7815 170.033 70.9218C170.298 71.0575 170.583 71.1173 170.891 71.1012C171.203 71.0848 171.481 70.9955 171.725 70.8332C171.973 70.6659 172.165 70.4503 172.301 70.1861C172.441 69.9218 172.503 69.6335 172.487 69.3212L172.277 65.3087L173.731 65.2325L174.104 72.2226L172.65 72.2988L172.604 71.5442C172.381 71.8456 172.097 72.0894 171.752 72.2758C171.406 72.4621 171.031 72.5659 170.625 72.5871C170.108 72.6142 169.631 72.5131 169.194 72.2836C168.756 72.0542 168.401 71.7341 168.127 71.3232C167.853 70.9123 167.702 70.4482 167.675 69.9309ZM175.561 72.1462L175.011 61.6606L176.465 61.5844L177.015 72.07L175.561 72.1462ZM182.727 64.761L184.279 64.6797L180.998 75.3661L179.453 75.4471L180.535 71.8855L177.659 65.0267L179.246 64.9435L181.157 69.8552L182.727 64.761ZM190.293 71.3742L189.856 63.0416L188.689 63.1028L189.011 61.6279L191.234 61.5114L191.747 71.298L190.293 71.3742ZM197.092 71.2001C196.514 71.2304 195.985 71.1272 195.505 70.8907C195.03 70.6492 194.612 70.3043 194.252 69.8558C193.892 69.4074 193.608 68.8826 193.399 68.2814C193.189 67.6755 193.066 67.023 193.03 66.324C192.993 65.6249 193.047 64.9632 193.192 64.3388C193.337 63.7143 193.565 63.1626 193.876 62.6837C194.188 62.2001 194.567 61.8157 195.015 61.5305C195.467 61.2405 195.982 61.0803 196.56 61.05C197.128 61.0202 197.652 61.1259 198.132 61.3671C198.612 61.6037 199.027 61.9464 199.378 62.3954C199.733 62.8394 200.015 63.3643 200.224 63.9702C200.434 64.5761 200.557 65.2286 200.593 65.9276C200.63 66.6266 200.576 67.2884 200.431 67.9128C200.286 68.5326 200.06 69.0842 199.754 69.5675C199.452 70.0506 199.075 70.4372 198.623 70.7273C198.171 71.0127 197.66 71.1703 197.092 71.2001ZM197.015 69.7461C197.551 69.718 197.988 69.5269 198.324 69.1728C198.665 68.8138 198.91 68.3547 199.058 67.7955C199.206 67.2363 199.264 66.6375 199.23 65.999C199.195 65.328 199.07 64.7247 198.855 64.1892C198.644 63.6488 198.351 63.2272 197.976 62.9245C197.604 62.6168 197.158 62.4767 196.636 62.504C196.221 62.5258 195.865 62.6426 195.568 62.8544C195.275 63.066 195.037 63.3472 194.855 63.6979C194.677 64.0483 194.548 64.4429 194.468 64.8817C194.393 65.3203 194.368 65.7772 194.393 66.2525C194.426 66.891 194.548 67.4804 194.759 68.0208C194.97 68.5612 195.263 68.9921 195.64 69.3135C196.021 69.63 196.479 69.7742 197.015 69.7461ZM205.203 65.658L209.677 65.4235L209.753 66.8775L205.279 67.112L205.203 65.658ZM213.762 73.649L213.686 72.195C213.98 72.1796 214.24 72.0982 214.465 71.9508C214.696 71.8079 214.873 71.6164 214.996 71.3763C215.124 71.1359 215.18 70.8736 215.165 70.5894L214.772 63.0817L216.226 63.0055L216.619 70.5132C216.648 71.0584 216.541 71.564 216.299 72.03C216.057 72.496 215.715 72.8737 215.272 73.1633C214.834 73.4573 214.331 73.6192 213.762 73.649ZM215.46 62.0292C215.236 62.0409 215.046 61.9785 214.889 61.8418C214.732 61.7052 214.648 61.5273 214.637 61.3083C214.625 61.0939 214.691 60.9106 214.832 60.7583C214.973 60.6014 215.154 60.5172 215.373 60.5057C215.587 60.4944 215.773 60.5595 215.93 60.7008C216.086 60.8374 216.17 61.013 216.182 61.2273C216.193 61.4464 216.128 61.632 215.986 61.7843C215.85 61.9363 215.674 62.018 215.46 62.0292ZM217.673 67.3106L217.444 62.9416L218.898 62.8654L219.108 66.8779C219.125 67.1901 219.217 67.4704 219.384 67.7186C219.551 67.9669 219.767 68.1612 220.031 68.3015C220.295 68.4372 220.581 68.497 220.889 68.4809C221.201 68.4645 221.479 68.3752 221.723 68.2129C221.971 68.0457 222.163 67.83 222.299 67.5659C222.439 67.3015 222.501 67.0132 222.485 66.7009L222.275 62.6884L223.729 62.6122L224.102 69.6023L222.648 69.6785L222.601 68.9239C222.379 69.2253 222.095 69.4691 221.749 69.6555C221.404 69.8418 221.029 69.9456 220.623 69.9668C220.106 69.994 219.629 69.8928 219.191 69.6634C218.754 69.4339 218.399 69.1138 218.125 68.7029C217.851 68.292 217.7 67.8279 217.673 67.3106ZM225.558 69.526L225.009 59.0403L226.463 58.9641L227.012 69.4498L225.558 69.526ZM232.725 62.1408L234.277 62.0594L230.995 72.7458L229.451 72.8268L230.533 69.2653L227.657 62.4064L229.244 62.3232L231.155 67.2349L232.725 62.1408ZM235.764 68.9911L235.697 67.6979C236.013 67.4056 236.376 67.0664 236.786 66.6805C237.195 66.2898 237.611 65.8779 238.032 65.4445C238.453 65.0066 238.839 64.5728 239.19 64.1431C239.541 63.7088 239.822 63.3016 240.031 62.9215C240.244 62.5365 240.344 62.2065 240.329 61.9315C240.313 61.6193 240.221 61.339 240.054 61.0908C239.891 60.8376 239.677 60.6408 239.413 60.5005C239.148 60.3555 238.86 60.2911 238.548 60.3075C238.236 60.3239 237.953 60.4181 237.7 60.5902C237.452 60.7575 237.256 60.9757 237.111 61.245C236.971 61.5094 236.909 61.7977 236.925 62.1099L235.471 62.1861C235.44 61.5943 235.556 61.0531 235.82 60.5626C236.089 60.0672 236.453 59.6672 236.914 59.3627C237.379 59.0533 237.898 58.8835 238.472 58.8535C239.049 58.8232 239.584 58.9378 240.074 59.1971C240.564 59.4565 240.964 59.8187 241.273 60.2838C241.582 60.7443 241.752 61.2681 241.783 61.8553C241.8 62.1815 241.75 62.5206 241.633 62.8725C241.516 63.2245 241.346 63.5862 241.122 63.9578C240.903 64.3291 240.645 64.7071 240.348 65.0919C240.05 65.4766 239.729 65.8626 239.385 66.2498C239.041 66.6371 238.689 67.02 238.331 67.3986L242.147 67.1986L242.224 68.6526L235.764 68.9911ZM245.23 68.495L247.029 64.966C246.563 65.0793 246.102 65.0847 245.649 64.9823C245.199 64.875 244.789 64.6838 244.42 64.4088C244.05 64.1291 243.749 63.7827 243.517 63.3696C243.285 62.9565 243.156 62.496 243.129 61.988C243.105 61.5267 243.169 61.0887 243.32 60.6743C243.475 60.2549 243.699 59.8833 243.99 59.5596C244.282 59.2313 244.625 58.9703 245.022 58.7766C245.423 58.578 245.856 58.4665 246.322 58.4421C246.933 58.4101 247.5 58.5322 248.024 58.8085C248.547 59.0848 248.974 59.4713 249.304 59.9681C249.634 60.4602 249.815 61.0162 249.847 61.636C249.864 61.9575 249.84 62.2532 249.774 62.523C249.714 62.7925 249.61 63.0784 249.462 63.3805L246.914 68.4067L245.23 68.495ZM246.585 63.7206C246.958 63.701 247.284 63.5951 247.563 63.4029C247.843 63.206 248.057 62.9588 248.205 62.6613C248.357 62.359 248.424 62.04 248.407 61.7044C248.388 61.3409 248.282 61.0194 248.09 60.7397C247.898 60.4601 247.65 60.244 247.348 60.0917C247.05 59.939 246.734 59.8715 246.398 59.8891C246.025 59.9086 245.699 60.0168 245.42 60.2137C245.14 60.4106 244.924 60.6603 244.772 60.9627C244.619 61.2604 244.552 61.5747 244.569 61.9056C244.587 62.2551 244.688 62.5723 244.871 62.8571C245.059 63.137 245.302 63.3556 245.6 63.5128C245.898 63.6701 246.226 63.7394 246.585 63.7206Z" fill="#D1DAE8"/>
</svg>
