<svg width="78" height="36" viewBox="0 0 78 36" fill="none" xmlns="http://www.w3.org/2000/svg">
<path d="M19.5413 1.37132V27.4168C19.5413 28.1742 20.1552 28.7881 20.9126 28.7881C21.6699 28.7881 22.2839 28.1742 22.2839 27.4168V1.37132C22.2839 0.613956 21.6699 -3.8147e-06 20.9126 -3.8147e-06C20.1552 -3.8147e-06 19.5413 0.613956 19.5413 1.37132Z" fill="white"/>
<path d="M60.6674 9.51971L67.3036 27.7524C67.5626 28.4641 68.3495 28.831 69.0612 28.572C69.7729 28.313 70.1398 27.526 69.8808 26.8144L63.2447 8.58168C62.9856 7.86999 62.1987 7.50304 61.487 7.76207C60.7753 8.02111 60.4084 8.80803 60.6674 9.51971Z" fill="white"/>
<path d="M67.8782 34.7114L77.0476 9.51887C77.3066 8.80719 76.9396 8.02027 76.228 7.76124C75.5163 7.50221 74.7293 7.86915 74.4703 8.58084L65.301 33.7733C65.042 34.485 65.4089 35.272 66.1206 35.531C66.8323 35.79 67.6192 35.4231 67.8782 34.7114Z" fill="white"/>
<path d="M10.9911 28.758C4.9299 28.758 0 23.8281 0 17.7682C0 11.7083 4.93127 6.77706 10.9911 6.77706C17.051 6.77706 21.9823 11.7083 21.9823 17.7682C21.9823 23.8281 17.051 28.758 10.9911 28.758ZM10.9911 9.40177C6.37801 9.40177 2.62471 13.1551 2.62471 17.7682C2.62471 22.3813 6.37801 26.1332 10.9911 26.1332C15.6043 26.1332 19.3576 22.3813 19.3576 17.7682C19.3576 13.1551 15.6043 9.40177 10.9911 9.40177Z" fill="white"/>
<path d="M29.9688 27.9845C29.7357 27.9845 29.504 27.9228 29.2969 27.8049C28.5797 27.3976 27.9036 26.9067 27.2879 26.3486C25.0636 24.33 23.7581 21.5668 23.6128 18.5677C23.4674 15.5686 24.4986 12.6902 26.5158 10.4659C28.6428 8.12096 31.6802 6.7757 34.848 6.7757C37.7044 6.7757 40.4306 7.85081 42.5219 9.80494C46.9389 13.9312 47.268 20.9647 43.2528 25.4846C42.4616 26.376 41.5441 27.1302 40.528 27.7254C40.3264 27.8433 40.0974 27.9064 39.867 27.9064C39.3144 27.9064 38.8248 27.5731 38.6191 27.0589L38.6123 27.0411C38.3668 26.424 38.6123 25.726 39.1951 25.3804C39.9754 24.9183 40.6775 24.3341 41.2808 23.6443C44.2786 20.216 44.0125 14.8939 40.6871 11.7824C39.8917 11.0378 38.9811 10.4604 37.9787 10.0669C36.979 9.6733 35.9258 9.47308 34.8466 9.47308C33.4917 9.47308 32.141 9.79809 30.9411 10.4138C29.9812 10.9061 29.1296 11.5712 28.411 12.3913C25.3776 15.8552 25.6697 21.2061 29.0638 24.319C29.5478 24.7633 30.0799 25.15 30.6449 25.4695C31.1756 25.7685 31.4334 26.3938 31.2716 26.9903C31.1125 27.5759 30.5763 27.9845 29.9675 27.9845H29.9688Z" fill="white"/>
<path d="M37.6236 15.455L33.849 19.6164C33.5238 19.9749 33.5508 20.529 33.9093 20.8542C34.2678 21.1793 34.8219 21.1523 35.1471 20.7939L38.9217 16.6325C39.2469 16.274 39.2199 15.7198 38.8614 15.3947C38.5029 15.0695 37.9488 15.0966 37.6236 15.455Z" fill="#FE9203"/>
<path d="M34.8357 28.7744C35.593 28.7744 36.207 28.1605 36.207 27.4031C36.207 26.6457 35.593 26.0318 34.8357 26.0318C34.0783 26.0318 33.4644 26.6457 33.4644 27.4031C33.4644 28.1605 34.0783 28.7744 34.8357 28.7744Z" fill="#FE9203"/>
<path d="M31.8864 18.6795L33.8367 20.7946C34.1237 21.1058 34.6087 21.1254 34.9199 20.8385C35.2312 20.5515 35.2508 20.0665 34.9638 19.7552L33.0135 17.6402C32.7265 17.329 32.2415 17.3093 31.9303 17.5963C31.619 17.8833 31.5994 18.3683 31.8864 18.6795Z" fill="#FE9203"/>
<path d="M48.4323 24.8895C48.409 24.9265 48.3953 24.9731 48.3953 25.0211C48.3953 25.139 48.4776 25.2405 48.59 25.2666C48.6106 25.2734 48.6325 25.2762 48.6558 25.2762C48.6791 25.2762 48.7011 25.2734 48.723 25.2666H58.554C59.311 25.2666 59.9253 25.8672 59.9253 26.6091C59.9253 27.3496 59.311 27.9516 58.554 27.9516H48.6586C47.412 27.9516 46.3424 27.2111 45.8858 26.1538C45.7774 25.9042 45.7048 25.6368 45.6718 25.3598C45.6677 25.3283 45.665 25.2995 45.6622 25.268C45.654 25.1816 45.6499 25.0965 45.6499 25.0074C45.6499 24.8881 45.6568 24.7702 45.6718 24.655C45.6718 24.6509 45.6718 24.6481 45.6718 24.644C45.7322 24.1599 45.942 23.706 46.245 23.3207L46.6304 22.8311L46.6345 22.827L57.1196 10.7731C57.1196 10.7731 57.1278 10.7635 57.1306 10.758C57.1676 10.7045 57.1827 10.6332 57.1662 10.5619C57.1388 10.4412 57.0181 10.3631 56.892 10.3631H54.3591C54.3194 10.3603 54.281 10.3603 54.2412 10.3603C54.2014 10.3603 54.1631 10.3603 54.1233 10.3631H47.0185C46.2615 10.3631 45.6472 9.76243 45.6472 9.02055C45.6472 8.28004 46.2615 7.67802 47.0185 7.67802H56.9125C58.1358 7.67802 59.1876 8.39249 59.6579 9.41686C59.7841 9.68838 59.8664 9.9791 59.902 10.2863C59.9048 10.3123 59.9075 10.3356 59.9103 10.3617C59.9185 10.4481 59.9226 10.5345 59.9226 10.6236C59.9226 10.7402 59.9157 10.8554 59.902 10.9678C59.8472 11.4217 59.6881 11.8427 59.4481 12.2089L59.1217 12.6203L48.4693 24.8387C48.4693 24.8387 48.4638 24.8428 48.4625 24.8456C48.4501 24.8579 48.4392 24.873 48.4309 24.8867H48.4296L48.4323 24.8895Z" fill="white"/>
</svg>
