<svg width="1213" height="225" viewBox="0 0 1213 225" fill="none" xmlns="http://www.w3.org/2000/svg">
<path d="M395.017 117.5C395.017 85.7436 369.273 60 337.517 60C305.761 60 280.017 85.7436 280.017 117.5C280.017 149.256 305.761 175 337.517 175C369.273 175 395.017 149.256 395.017 117.5Z" fill="white"/>
<path fill-rule="evenodd" clip-rule="evenodd" d="M365.656 118.154C365.656 116.115 365.473 114.155 365.133 112.273H338.056V123.394H353.528C352.862 126.988 350.836 130.033 347.791 132.071V139.285H357.083C362.519 134.28 365.656 126.909 365.656 118.154Z" fill="#4285F4"/>
<path fill-rule="evenodd" clip-rule="evenodd" d="M338.055 146.25C345.817 146.25 352.325 143.676 357.082 139.285L347.79 132.071C345.216 133.796 341.923 134.815 338.055 134.815C330.567 134.815 324.228 129.758 321.968 122.962H312.362V130.411C317.093 139.807 326.816 146.25 338.055 146.25Z" fill="#34A853"/>
<path fill-rule="evenodd" clip-rule="evenodd" d="M321.969 122.962C321.394 121.237 321.067 119.395 321.067 117.5C321.067 115.605 321.394 113.762 321.969 112.037V104.588H312.364C310.416 108.47 309.306 112.861 309.306 117.5C309.306 122.139 310.416 126.53 312.364 130.411L321.969 122.962Z" fill="#FBBC05"/>
<path fill-rule="evenodd" clip-rule="evenodd" d="M338.055 100.185C342.276 100.185 346.065 101.635 349.045 104.484L357.291 96.2381C352.312 91.5989 345.804 88.75 338.055 88.75C326.816 88.75 317.093 95.1926 312.362 104.589L321.968 112.038C324.228 105.242 330.567 100.185 338.055 100.185Z" fill="#EA4335"/>
<path d="M472.631 80H472.369C440.694 80 415.017 105.685 415.017 137.369V137.631C415.017 169.315 440.694 195 472.369 195H472.631C504.306 195 529.983 169.315 529.983 137.631V137.369C529.983 105.685 504.306 80 472.631 80Z" fill="url(#paint0_linear_1_1611)"/>
<path d="M506.726 137.498V137.696C506.634 154.154 494.865 167.905 479.297 171.056C478.242 171.265 477.174 171.43 476.087 171.547C474.911 171.668 473.71 171.737 472.502 171.737C467.749 171.737 463.222 170.766 459.106 169.005L443.224 170.697C440.513 170.987 438.511 168.219 439.635 165.737L443.905 156.281C440.348 150.887 438.274 144.428 438.274 137.498C438.274 118.626 453.632 103.264 472.502 103.264C490.345 103.264 505.043 116.995 506.59 134.448C506.682 135.447 506.726 136.475 506.726 137.498Z" fill="white"/>
<path d="M488.956 127.502C490.49 126.245 492.597 128.126 491.517 129.79L484.332 140.878L480.529 146.744C479.72 147.993 478.02 148.292 476.832 147.393L470.528 142.611L466.642 139.666C466.327 139.428 465.888 139.436 465.582 139.686L456.044 147.47C454.51 148.723 452.407 146.841 453.487 145.177L460.217 134.798L464.019 128.932C464.829 127.683 466.529 127.385 467.717 128.284L473.835 132.921L477.718 135.862C478.036 136.1 478.475 136.092 478.781 135.842L488.956 127.498V127.502Z" fill="url(#paint1_linear_1_1611)"/>
<path d="M607.614 100H607.352C575.668 100 549.983 125.685 549.983 157.369V157.631C549.983 189.315 575.668 215 607.352 215H607.614C639.298 215 664.983 189.315 664.983 157.631V157.369C664.983 125.685 639.298 100 607.614 100Z" fill="#5865F2"/>
<path d="M636.26 131.1C630.966 128.67 625.293 126.881 619.359 125.858C619.25 125.838 619.141 125.886 619.089 125.987C618.359 127.284 617.55 128.98 616.986 130.31C610.604 129.355 604.254 129.355 598.001 130.31C597.433 128.948 596.595 127.284 595.861 125.987C595.805 125.89 595.696 125.842 595.592 125.858C589.661 126.881 583.984 128.67 578.69 131.1C578.646 131.12 578.605 131.152 578.577 131.196C567.812 147.28 564.862 162.969 566.309 178.465C566.317 178.541 566.357 178.614 566.417 178.658C573.521 183.876 580.402 187.043 587.155 189.142C587.264 189.174 587.376 189.134 587.445 189.045C589.04 186.865 590.467 184.565 591.687 182.143C591.76 182.002 591.687 181.833 591.542 181.777C589.282 180.918 587.135 179.875 585.064 178.69C584.899 178.594 584.887 178.36 585.036 178.247C585.471 177.921 585.906 177.582 586.321 177.24C586.397 177.175 586.502 177.163 586.591 177.204C600.181 183.408 614.895 183.408 628.323 177.204C628.412 177.159 628.517 177.175 628.593 177.236C629.008 177.578 629.443 177.921 629.882 178.247C630.031 178.36 630.024 178.594 629.858 178.69C627.791 179.899 625.64 180.922 623.376 181.777C623.227 181.833 623.162 182.002 623.235 182.147C624.484 184.561 625.906 186.861 627.473 189.045C627.538 189.138 627.654 189.178 627.763 189.146C634.548 187.047 641.43 183.88 648.533 178.662C648.593 178.618 648.633 178.545 648.642 178.473C650.374 160.56 645.741 145 636.365 131.205C636.341 131.16 636.305 131.124 636.256 131.104L636.26 131.1ZM593.71 169.029C589.616 169.029 586.248 165.274 586.248 160.661C586.248 156.047 589.556 152.292 593.71 152.292C597.864 152.292 601.24 156.084 601.172 160.661C601.172 165.274 597.864 169.029 593.71 169.029ZM621.305 169.029C617.211 169.029 613.843 165.274 613.843 160.661C613.843 156.047 617.151 152.292 621.305 152.292C625.459 152.292 628.835 156.084 628.766 160.661C628.766 165.274 625.495 169.029 621.305 169.029Z" fill="white"/>
<path d="M799.983 137.502C799.983 166.543 778.456 190.552 750.491 194.448C747.876 194.811 745.201 195 742.485 195C739.35 195 736.272 194.75 733.275 194.267C705.894 189.859 684.983 166.12 684.983 137.502C684.983 105.745 710.728 80 742.481 80C774.234 80 799.983 105.745 799.983 137.502Z" fill="#1877F2"/>
<path d="M750.491 126.169V138.695H765.986L763.533 155.568H750.491V194.444C747.876 194.807 745.201 194.996 742.485 194.996C739.35 194.996 736.272 194.746 733.275 194.263V155.568H718.984V138.695H733.275V123.368C733.275 113.86 740.982 106.148 750.495 106.148V106.156C750.523 106.156 750.547 106.148 750.575 106.148H765.99V120.742H755.918C752.924 120.742 750.495 123.171 750.495 126.165L750.491 126.169Z" fill="white"/>
<path d="M934.983 117.5C934.983 85.7436 909.239 60 877.483 60C845.727 60 819.983 85.7436 819.983 117.5C819.983 149.256 845.727 175 877.483 175C909.239 175 934.983 149.256 934.983 117.5Z" fill="#FF0209"/>
<path d="M901.892 142.967C900.179 143.153 898.425 143.185 896.744 143.181C883.633 143.169 870.521 143.157 857.414 143.149C853.289 143.149 848.796 143.016 845.608 140.393C842.016 137.432 841.268 132.296 840.977 127.65C840.573 121.282 840.541 114.894 840.872 108.522C841.054 105.023 841.373 101.439 842.88 98.2714C843.963 95.9966 845.769 93.9521 848.081 92.8774C850.767 91.6289 853.58 91.8511 856.473 91.847C863.398 91.839 870.323 91.8349 877.249 91.8268C884.449 91.8188 891.653 91.8147 898.853 91.8066C902.255 91.8066 905.908 91.8753 908.684 93.843C912.268 96.3805 913.241 101.209 913.69 105.577C914.518 113.621 914.53 121.751 913.722 129.795C913.387 133.112 912.829 136.62 910.643 139.137C908.478 141.634 905.265 142.595 901.896 142.963L901.892 142.967Z" fill="white"/>
<path d="M889.209 117.5L869.669 106.219V128.781L889.209 117.5Z" fill="#FF0209"/>
<defs>
<linearGradient id="paint0_linear_1_1611" x1="431.813" y1="178.199" x2="513.207" y2="96.829" gradientUnits="userSpaceOnUse">
<stop stop-color="#0498FA"/>
<stop offset="0.34" stop-color="#5C5EFE"/>
<stop offset="0.73" stop-color="#F44E90"/>
<stop offset="1" stop-color="#FA8679"/>
</linearGradient>
<linearGradient id="paint1_linear_1_1611" x1="458.236" y1="151.877" x2="486.894" y2="123.228" gradientUnits="userSpaceOnUse">
<stop stop-color="#0498FA"/>
<stop offset="0.34" stop-color="#5C5EFE"/>
<stop offset="0.73" stop-color="#F44E90"/>
<stop offset="1" stop-color="#FA8679"/>
</linearGradient>
</defs>
</svg>
