<svg width="60" height="60" viewBox="0 0 60 60" fill="none" xmlns="http://www.w3.org/2000/svg">
<path d="M50.3906 30C50.3906 32.8125 49.8438 35.4492 48.75 37.9102C47.6953 40.4102 46.25 42.5781 44.4141 44.4141C42.5781 46.25 40.4102 47.6953 37.9102 48.75C35.4492 49.8438 32.8125 50.3906 30 50.3906C27.3828 50.3906 24.9121 49.9219 22.5879 48.9844C20.2637 48.0469 18.2031 46.7773 16.4062 45.1758L12.0703 49.5117C11.9531 49.5898 11.8359 49.6582 11.7188 49.7168C11.6016 49.7754 11.4844 49.8047 11.3672 49.8047C10.8984 49.8047 10.5762 49.5996 10.4004 49.1895C10.2246 48.7793 10.3125 48.3984 10.6641 48.0469L14.9414 43.7695C13.3008 41.9336 12.002 39.8438 11.0449 37.5C10.0879 35.1562 9.60938 32.6562 9.60938 30C9.60938 27.1875 10.1562 24.5508 11.25 22.0898C12.3047 19.5898 13.75 17.4219 15.5859 15.5859C17.4219 13.75 19.5898 12.3047 22.0898 11.25C24.5508 10.1562 27.1875 9.60938 30 9.60938C32.8125 9.60938 35.4492 10.1562 37.9102 11.25C40.4102 12.3047 42.5781 13.75 44.4141 15.5859C46.25 17.4219 47.6953 19.5898 48.75 22.0898C49.8438 24.5508 50.3906 27.1875 50.3906 30ZM39.8438 29.0039C39.7266 26.8164 39.3359 24.8242 38.6719 23.0273C38.0078 21.2695 37.2168 19.707 36.2988 18.3398C35.3809 16.9727 34.4531 15.8008 33.5156 14.8242C32.5391 13.8477 31.6992 13.0859 30.9961 12.5391V29.0039H39.8438ZM29.0039 11.6602C26.6602 11.7773 24.4727 12.3047 22.4414 13.2422C20.3711 14.2188 18.5645 15.4785 17.0215 17.0215C15.4785 18.5645 14.2188 20.3711 13.2422 22.4414C12.3047 24.4727 11.7773 26.6602 11.6602 29.0039H18.1641C18.3203 25.6836 19.0332 22.8027 20.3027 20.3613C21.5723 17.9199 22.8711 15.9375 24.1992 14.4141C24.3555 14.2188 24.5703 14.1113 24.8438 14.0918C25.1172 14.0723 25.3711 14.1602 25.6055 14.3555C25.8008 14.5117 25.9082 14.7266 25.9277 15C25.9473 15.2734 25.8594 15.5273 25.6641 15.7617C24.4922 17.1289 23.3203 18.9258 22.1484 21.1523C20.9766 23.3789 20.3125 25.9961 20.1562 29.0039H29.0039V11.6602ZM11.6602 30.9961C11.7773 33.1445 12.2461 35.1758 13.0664 37.0898C13.8477 39.0039 14.9121 40.7129 16.2598 42.2168C17.6074 43.7207 19.1602 44.9805 20.918 45.9961C22.7148 47.0117 24.6289 47.6953 26.6602 48.0469C25.8398 47.3438 24.9609 46.4648 24.0234 45.4102C23.0859 44.3164 22.1973 43.0566 21.3574 41.6309C20.5176 40.2051 19.8047 38.6133 19.2188 36.8555C18.5938 35.0586 18.2422 33.1055 18.1641 30.9961H11.6602ZM20.1562 30.9961C20.2344 32.6758 20.5078 34.2969 20.9766 35.8594C21.4453 37.4219 22.0703 38.8965 22.8516 40.2832C23.6328 41.6699 24.5312 42.9688 25.5469 44.1797C26.6016 45.3516 27.7539 46.4258 29.0039 47.4023V30.9961H20.1562ZM30.9961 48.3398C33.418 48.2227 35.6836 47.6562 37.793 46.6406C39.9023 45.625 41.7383 44.2969 43.3008 42.6562C44.8633 41.0156 46.0938 39.1016 46.9922 36.9141C47.9297 34.7656 48.3984 32.4609 48.3984 30C48.3984 27.7344 48.0078 25.6055 47.2266 23.6133C46.4453 21.582 45.3906 19.7656 44.0625 18.1641C42.7344 16.5625 41.1523 15.2344 39.3164 14.1797C37.4805 13.0859 35.4883 12.3438 33.3398 11.9531C34.1602 12.6562 35.0391 13.5352 35.9766 14.5898C36.9531 15.6836 37.8516 16.9434 38.6719 18.3691C39.4922 19.7949 40.1953 21.3867 40.7812 23.1445C41.4062 24.9414 41.7578 26.8945 41.8359 29.0039H45C45.2734 29.0039 45.5078 29.1016 45.7031 29.2969C45.8984 29.4922 45.9961 29.7266 45.9961 30C45.9961 30.2734 45.8984 30.5078 45.7031 30.7031C45.5078 30.8984 45.2734 30.9961 45 30.9961H41.8359C41.6797 34.4336 40.9277 37.4121 39.5801 39.9316C38.2324 42.4512 36.8555 44.4727 35.4492 45.9961C35.2539 46.1914 35.0195 46.2988 34.7461 46.3184C34.4727 46.3379 34.2383 46.25 34.043 46.0547C33.8477 45.8594 33.7402 45.625 33.7207 45.3516C33.7012 45.0781 33.7891 44.8438 33.9844 44.6484C35.2344 43.2422 36.4844 41.3965 37.7344 39.1113C38.9844 36.8262 39.6875 34.1211 39.8438 30.9961H30.9961V48.3398ZM52.5 51.2109C54.0625 50.1172 55.7031 50.0195 57.4219 50.918C59.1406 51.8164 60 53.2422 60 55.1953C60 56.5234 59.5312 57.6562 58.5938 58.5938C57.6562 59.5312 56.5234 60 55.1953 60C53.3203 60 51.9238 59.1699 51.0059 57.5098C50.0879 55.8496 50.1172 54.2188 51.0938 52.6172L46.2305 47.7539C46.0352 47.5586 45.9375 47.3242 45.9375 47.0508C45.9375 46.7773 46.0352 46.543 46.2305 46.3477C46.4258 46.1523 46.6602 46.0547 46.9336 46.0547C47.207 46.0547 47.4414 46.1523 47.6367 46.3477L52.5 51.2109ZM55.1953 58.0078C55.9766 58.0078 56.6406 57.7344 57.1875 57.1875C57.7344 56.6406 58.0078 55.9766 58.0078 55.1953C58.0078 54.4141 57.7344 53.75 57.1875 53.2031C56.6406 52.6562 55.9766 52.3828 55.1953 52.3828C54.4141 52.3828 53.75 52.6562 53.2031 53.2031C52.6562 53.75 52.3828 54.4141 52.3828 55.1953C52.3828 55.9766 52.6562 56.6406 53.2031 57.1875C53.75 57.7344 54.4141 58.0078 55.1953 58.0078ZM7.38281 8.90625C5.78125 9.88281 4.15039 9.91211 2.49023 8.99414C0.830078 8.07617 0 6.67969 0 4.80469C0 3.47656 0.46875 2.34375 1.40625 1.40625C2.34375 0.46875 3.47656 0 4.80469 0C6.75781 0 8.18359 0.859375 9.08203 2.57812C9.98047 4.29688 9.88281 5.9375 8.78906 7.5L13.6523 12.3633C13.8477 12.5586 13.9453 12.793 13.9453 13.0664C13.9453 13.3398 13.8477 13.5742 13.6523 13.7695C13.457 13.9648 13.2227 14.0625 12.9492 14.0625C12.6758 14.0625 12.4414 13.9648 12.2461 13.7695L7.38281 8.90625ZM4.80469 1.99219C4.02344 1.99219 3.35938 2.26562 2.8125 2.8125C2.26562 3.35938 1.99219 4.02344 1.99219 4.80469C1.99219 5.58594 2.26562 6.25 2.8125 6.79688C3.35938 7.34375 4.02344 7.61719 4.80469 7.61719C5.58594 7.61719 6.25 7.34375 6.79688 6.79688C7.34375 6.25 7.61719 5.58594 7.61719 4.80469C7.61719 4.02344 7.34375 3.35938 6.79688 2.8125C6.25 2.26562 5.58594 1.99219 4.80469 1.99219ZM4.80469 50.3906C6.13281 50.3906 7.26562 50.8594 8.20312 51.7969C9.14062 52.7344 9.60938 53.8672 9.60938 55.1953C9.60938 56.5234 9.14062 57.6562 8.20312 58.5938C7.26562 59.5312 6.13281 60 4.80469 60C3.47656 60 2.34375 59.5312 1.40625 58.5938C0.46875 57.6562 0 56.5234 0 55.1953C0 53.8672 0.46875 52.7344 1.40625 51.7969C2.34375 50.8594 3.47656 50.3906 4.80469 50.3906ZM4.80469 58.0078C5.58594 58.0078 6.25 57.7344 6.79688 57.1875C7.34375 56.6406 7.61719 55.9766 7.61719 55.1953C7.61719 54.4141 7.34375 53.75 6.79688 53.2031C6.25 52.6562 5.58594 52.3828 4.80469 52.3828C4.02344 52.3828 3.35938 52.6562 2.8125 53.2031C2.26562 53.75 1.99219 54.4141 1.99219 55.1953C1.99219 55.9766 2.26562 56.6406 2.8125 57.1875C3.35938 57.7344 4.02344 58.0078 4.80469 58.0078ZM47.6367 13.6523C47.4414 13.8477 47.207 13.9453 46.9336 13.9453C46.6602 13.9453 46.4258 13.8477 46.2305 13.6523C46.0352 13.457 45.9375 13.2227 45.9375 12.9492C45.9375 12.6758 46.0352 12.4414 46.2305 12.2461L51.0938 7.38281C50.1172 5.78125 50.0879 4.15039 51.0059 2.49023C51.9238 0.830078 53.3203 0 55.1953 0C56.5234 0 57.6562 0.46875 58.5938 1.40625C59.5312 2.34375 60 3.47656 60 4.80469C60 6.75781 59.1406 8.18359 57.4219 9.08203C55.7031 9.98047 54.0625 9.88281 52.5 8.78906L47.6367 13.6523ZM55.1953 1.99219C54.4141 1.99219 53.75 2.26562 53.2031 2.8125C52.6562 3.35938 52.3828 4.02344 52.3828 4.80469C52.3828 5.58594 52.6562 6.25 53.2031 6.79688C53.75 7.34375 54.4141 7.61719 55.1953 7.61719C55.9766 7.61719 56.6406 7.34375 57.1875 6.79688C57.7344 6.25 58.0078 5.58594 58.0078 4.80469C58.0078 4.02344 57.7344 3.35938 57.1875 2.8125C56.6406 2.26562 55.9766 1.99219 55.1953 1.99219Z" fill="white"/>
</svg>
