<svg width="57" height="57" viewBox="0 0 57 57" fill="none" xmlns="http://www.w3.org/2000/svg">
<path d="M13.8867 47.8125H16.1133C16.3086 48.3594 16.6406 48.8086 17.1094 49.1602C17.5781 49.5117 18.125 49.6875 18.75 49.6875C19.5312 49.6875 20.1953 49.4141 20.7422 48.8672C21.2891 48.3203 21.5625 47.6562 21.5625 46.875C21.5625 46.0938 21.2891 45.4297 20.7422 44.8828C20.1953 44.3359 19.5312 44.0625 18.75 44.0625C18.125 44.0625 17.5781 44.2383 17.1094 44.5898C16.6406 44.9414 16.3086 45.3906 16.1133 45.9375H13.8867C13.6914 45.3906 13.3594 44.9414 12.8906 44.5898C12.4219 44.2383 11.875 44.0625 11.25 44.0625C10.4688 44.0625 9.80469 44.3359 9.25781 44.8828C8.71094 45.4297 8.4375 46.0938 8.4375 46.875C8.4375 47.6562 8.71094 48.3203 9.25781 48.8672C9.80469 49.4141 10.4688 49.6875 11.25 49.6875C11.875 49.6875 12.4219 49.5117 12.8906 49.1602C13.3594 48.8086 13.6914 48.3594 13.8867 47.8125ZM18.75 45.9375C19.0234 45.9375 19.248 46.0254 19.4238 46.2012C19.5996 46.377 19.6875 46.6016 19.6875 46.875C19.6875 47.1484 19.5996 47.373 19.4238 47.5488C19.248 47.7246 19.0234 47.8125 18.75 47.8125C18.4766 47.8125 18.252 47.7246 18.0762 47.5488C17.9004 47.373 17.8125 47.1484 17.8125 46.875C17.8125 46.6016 17.9004 46.377 18.0762 46.2012C18.252 46.0254 18.4766 45.9375 18.75 45.9375ZM10.3125 46.875C10.3125 46.6016 10.4004 46.377 10.5762 46.2012C10.752 46.0254 10.9766 45.9375 11.25 45.9375C11.5234 45.9375 11.748 46.0254 11.9238 46.2012C12.0996 46.377 12.1875 46.6016 12.1875 46.875C12.1875 47.1484 12.0996 47.373 11.9238 47.5488C11.748 47.7246 11.5234 47.8125 11.25 47.8125C10.9766 47.8125 10.752 47.7246 10.5762 47.5488C10.4004 47.373 10.3125 47.1484 10.3125 46.875ZM46.1133 44.0625C46.3086 44.6094 46.6406 45.0586 47.1094 45.4102C47.5781 45.7617 48.125 45.9375 48.75 45.9375C49.5312 45.9375 50.1953 45.6641 50.7422 45.1172C51.2891 44.5703 51.5625 43.9062 51.5625 43.125C51.5625 42.3438 51.2891 41.6797 50.7422 41.1328C50.1953 40.5859 49.5312 40.3125 48.75 40.3125C48.125 40.3125 47.5781 40.4883 47.1094 40.8398C46.6406 41.1914 46.3086 41.6406 46.1133 42.1875H40.3125C40.0391 42.1875 39.8145 42.2754 39.6387 42.4512C39.4629 42.627 39.375 42.8516 39.375 43.125V47.9883C38.8281 48.1836 38.3789 48.5156 38.0273 48.9844C37.6758 49.4531 37.5 50 37.5 50.625C37.5 51.4062 37.7734 52.0703 38.3203 52.6172C38.8672 53.1641 39.5312 53.4375 40.3125 53.4375C41.0938 53.4375 41.7578 53.1641 42.3047 52.6172C42.8516 52.0703 43.125 51.4062 43.125 50.625C43.125 50 42.9492 49.4531 42.5977 48.9844C42.2461 48.5156 41.7969 48.1836 41.25 47.9883V44.0625H46.1133ZM48.75 42.1875C49.0234 42.1875 49.248 42.2754 49.4238 42.4512C49.5996 42.627 49.6875 42.8516 49.6875 43.125C49.6875 43.3984 49.5996 43.623 49.4238 43.7988C49.248 43.9746 49.0234 44.0625 48.75 44.0625C48.4766 44.0625 48.252 43.9746 48.0762 43.7988C47.9004 43.623 47.8125 43.3984 47.8125 43.125C47.8125 42.8516 47.9004 42.627 48.0762 42.4512C48.252 42.2754 48.4766 42.1875 48.75 42.1875ZM40.3125 51.5625C40.0391 51.5625 39.8145 51.4746 39.6387 51.2988C39.4629 51.123 39.375 50.8984 39.375 50.625C39.375 50.3516 39.4629 50.127 39.6387 49.9512C39.8145 49.7754 40.0391 49.6875 40.3125 49.6875C40.5859 49.6875 40.8105 49.7754 40.9863 49.9512C41.1621 50.127 41.25 50.3516 41.25 50.625C41.25 50.8984 41.1621 51.123 40.9863 51.2988C40.8105 51.4746 40.5859 51.5625 40.3125 51.5625ZM28.125 0C24.2578 0 20.6055 0.742188 17.168 2.22656C13.7695 3.71094 10.8008 5.72266 8.26172 8.26172C5.72266 10.8008 3.71094 13.7695 2.22656 17.168C0.742187 20.6055 0 24.2578 0 28.125C0 28.3984 0.0878906 28.623 0.263672 28.7988C0.439453 28.9746 0.664062 29.0625 0.9375 29.0625H14.0625V32.0508C13.6719 32.207 13.3301 32.4316 13.0371 32.7246C12.7441 33.0176 12.5195 33.3594 12.3633 33.75H7.91016L5.33203 31.2305C5.25391 31.1133 5.15625 31.0352 5.03906 30.9961C4.92188 30.957 4.80469 30.9375 4.6875 30.9375H0.9375V32.8125H4.27734L6.85547 35.332C6.93359 35.4492 7.03125 35.5273 7.14844 35.5664C7.26562 35.6055 7.38281 35.625 7.5 35.625H12.3633C12.5195 36.0156 12.7441 36.3574 13.0371 36.6504C13.3301 36.9434 13.6719 37.168 14.0625 37.3242V39.375H8.26172C8.06641 38.8281 7.73438 38.3789 7.26562 38.0273C6.79688 37.6758 6.25 37.5 5.625 37.5C4.84375 37.5 4.17969 37.7734 3.63281 38.3203C3.08594 38.8672 2.8125 39.5312 2.8125 40.3125C2.8125 41.0938 3.08594 41.7578 3.63281 42.3047C4.17969 42.8516 4.84375 43.125 5.625 43.125C6.25 43.125 6.79688 42.9492 7.26562 42.5977C7.73438 42.2461 8.06641 41.7969 8.26172 41.25H15C15.2734 41.25 15.498 41.1621 15.6738 40.9863C15.8496 40.8105 15.9375 40.5859 15.9375 40.3125V37.3242C16.4844 37.1289 16.9336 36.7969 17.2852 36.3281C17.6367 35.8594 17.8125 35.3125 17.8125 34.6875C17.8125 34.0625 17.6367 33.5156 17.2852 33.0469C16.9336 32.5781 16.4844 32.2461 15.9375 32.0508V29.0625H19.6875V39.375C19.6875 39.4922 19.707 39.6094 19.7461 39.7266C19.7852 39.8438 19.8633 39.9414 19.9805 40.0195L23.4375 43.5352V50.8008C22.8906 50.9961 22.4414 51.3281 22.0898 51.7969C21.7383 52.2656 21.5625 52.8125 21.5625 53.4375C21.5625 54.2188 21.8359 54.8828 22.3828 55.4297C22.9297 55.9766 23.5938 56.25 24.375 56.25C25.1562 56.25 25.8203 55.9766 26.3672 55.4297C26.9141 54.8828 27.1875 54.2188 27.1875 53.4375C27.1875 52.8125 27.0117 52.2656 26.6602 51.7969C26.3086 51.3281 25.8594 50.9961 25.3125 50.8008V43.5352L26.8945 41.8945C27.0117 41.8164 27.0898 41.7188 27.1289 41.6016C27.168 41.4844 27.1875 41.3672 27.1875 41.25V36.3867C27.7344 36.1914 28.1836 35.8594 28.5352 35.3906C28.8867 34.9219 29.0625 34.375 29.0625 33.75C29.0625 33.125 28.8867 32.5781 28.5352 32.1094C28.1836 31.6406 27.7344 31.3086 27.1875 31.1133V29.0625H36.1523L34.043 31.2305C33.9258 31.3086 33.8477 31.4062 33.8086 31.5234C33.7695 31.6406 33.75 31.7578 33.75 31.875V33.9258C33.2031 34.1211 32.7539 34.4531 32.4023 34.9219C32.0508 35.3906 31.875 35.9375 31.875 36.5625C31.875 37.1875 32.0508 37.7344 32.4023 38.2031C32.7539 38.6719 33.2031 39.0039 33.75 39.1992V41.7773L32.168 43.418C32.0508 43.4961 31.9727 43.5938 31.9336 43.7109C31.8945 43.8281 31.875 43.9453 31.875 44.0625V49.8633C31.3281 50.0586 30.8789 50.3906 30.5273 50.8594C30.1758 51.3281 30 51.875 30 52.5C30 53.2812 30.2734 53.9453 30.8203 54.4922C31.3672 55.0391 32.0312 55.3125 32.8125 55.3125C33.5938 55.3125 34.2578 55.0391 34.8047 54.4922C35.3516 53.9453 35.625 53.2812 35.625 52.5C35.625 51.875 35.4492 51.3281 35.0977 50.8594C34.7461 50.3906 34.2969 50.0586 33.75 49.8633V44.4727L35.332 42.832C35.4492 42.7539 35.5273 42.6562 35.5664 42.5391C35.6055 42.4219 35.625 42.3047 35.625 42.1875V39.1992C36.0156 39.043 36.3574 38.8184 36.6504 38.5254C36.9434 38.2324 37.168 37.8906 37.3242 37.5H42.1875C42.3047 37.5 42.4219 37.4805 42.5391 37.4414C42.6562 37.4023 42.7539 37.3242 42.832 37.207L45.4102 34.6875H49.8633C50.0586 35.2344 50.3906 35.6836 50.8594 36.0352C51.3281 36.3867 51.875 36.5625 52.5 36.5625C53.2812 36.5625 53.9453 36.2891 54.4922 35.7422C55.0391 35.1953 55.3125 34.5312 55.3125 33.75C55.3125 33.125 55.1367 32.5781 54.7852 32.1094C54.4336 31.6406 53.9844 31.3086 53.4375 31.1133V29.0625H55.3125C55.5859 29.0625 55.8105 28.9746 55.9863 28.7988C56.1621 28.623 56.25 28.3984 56.25 28.125C56.25 24.2578 55.5078 20.6055 54.0234 17.168C52.5391 13.7695 50.5273 10.8008 47.9883 8.26172C45.4492 5.72266 42.4805 3.71094 39.082 2.22656C35.6445 0.742188 31.9922 0 28.125 0ZM5.625 41.25C5.35156 41.25 5.12695 41.1621 4.95117 40.9863C4.77539 40.8105 4.6875 40.5859 4.6875 40.3125C4.6875 40.0391 4.77539 39.8145 4.95117 39.6387C5.12695 39.4629 5.35156 39.375 5.625 39.375C5.89844 39.375 6.12305 39.4629 6.29883 39.6387C6.47461 39.8145 6.5625 40.0391 6.5625 40.3125C6.5625 40.5859 6.47461 40.8105 6.29883 40.9863C6.12305 41.1621 5.89844 41.25 5.625 41.25ZM15 35.625C14.7266 35.625 14.502 35.5371 14.3262 35.3613C14.1504 35.1855 14.0625 34.9609 14.0625 34.6875C14.0625 34.4141 14.1504 34.1895 14.3262 34.0137C14.502 33.8379 14.7266 33.75 15 33.75C15.2734 33.75 15.498 33.8379 15.6738 34.0137C15.8496 34.1895 15.9375 34.4141 15.9375 34.6875C15.9375 34.9609 15.8496 35.1855 15.6738 35.3613C15.498 35.5371 15.2734 35.625 15 35.625ZM32.8125 53.4375C32.5391 53.4375 32.3145 53.3496 32.1387 53.1738C31.9629 52.998 31.875 52.7734 31.875 52.5C31.875 52.2266 31.9629 52.002 32.1387 51.8262C32.3145 51.6504 32.5391 51.5625 32.8125 51.5625C33.0859 51.5625 33.3105 51.6504 33.4863 51.8262C33.6621 52.002 33.75 52.2266 33.75 52.5C33.75 52.7734 33.6621 52.998 33.4863 53.1738C33.3105 53.3496 33.0859 53.4375 32.8125 53.4375ZM50.8594 15C50.1172 15.3125 49.3457 15.5957 48.5449 15.8496C47.7441 16.1035 46.9141 16.3477 46.0547 16.582C45.6641 15.293 45.2051 14.0625 44.6777 12.8906C44.1504 11.7188 43.5547 10.625 42.8906 9.60938C43.3984 9.45312 43.8965 9.30664 44.3848 9.16992C44.873 9.0332 45.332 8.88672 45.7617 8.73047C46.7773 9.62891 47.7148 10.6055 48.5742 11.6602C49.4336 12.7148 50.1953 13.8281 50.8594 15ZM36.5625 27.1875C36.5625 26.0156 36.5332 24.8438 36.4746 23.6719C36.416 22.5 36.3281 21.3477 36.2109 20.2148C37.7344 20.0586 39.209 19.8633 40.6348 19.6289C42.0605 19.3945 43.4375 19.1211 44.7656 18.8086C45.1172 20.1367 45.3906 21.4941 45.5859 22.8809C45.7812 24.2676 45.8984 25.7031 45.9375 27.1875H36.5625ZM32.5195 9.25781C31.8164 9.29688 31.0938 9.32617 30.3516 9.3457C29.6094 9.36523 28.8672 9.375 28.125 9.375C27.3828 9.375 26.6406 9.36523 25.8984 9.3457C25.1562 9.32617 24.4336 9.29688 23.7305 9.25781C24.3945 6.875 25.1172 5.04883 25.8984 3.7793C26.6797 2.50977 27.4219 1.875 28.125 1.875C28.8281 1.875 29.5703 2.50977 30.3516 3.7793C31.1328 5.04883 31.8555 6.875 32.5195 9.25781ZM31.6992 2.40234C33.2227 2.87109 34.6777 3.61328 36.0645 4.62891C37.4512 5.64453 38.7109 6.89453 39.8438 8.37891C38.9844 8.53516 38.1055 8.67188 37.207 8.78906C36.3086 8.90625 35.3906 9.00391 34.4531 9.08203C34.0625 7.71484 33.6426 6.46484 33.1934 5.33203C32.7441 4.19922 32.2461 3.22266 31.6992 2.40234ZM32.9883 11.0742C33.2227 12.168 33.4473 13.3301 33.6621 14.5605C33.877 15.791 34.0625 17.1094 34.2188 18.5156C33.2031 18.5938 32.1875 18.6523 31.1719 18.6914C30.1562 18.7305 29.1406 18.75 28.125 18.75C27.1094 18.75 26.0938 18.7305 25.0781 18.6914C24.0625 18.6523 23.0469 18.5938 22.0312 18.5156C22.1875 17.1094 22.373 15.791 22.5879 14.5605C22.8027 13.3301 23.0273 12.168 23.2617 11.0742C24.043 11.1523 24.8438 11.2012 25.6641 11.2207C26.4844 11.2402 27.3047 11.25 28.125 11.25C28.9453 11.25 29.7656 11.2402 30.5859 11.2207C31.4062 11.2012 32.207 11.1523 32.9883 11.0742ZM21.7969 9.08203C20.8594 9.00391 19.9414 8.90625 19.043 8.78906C18.1445 8.67188 17.2656 8.53516 16.4062 8.37891C17.5391 6.89453 18.7988 5.64453 20.1855 4.62891C21.5723 3.61328 23.0273 2.87109 24.5508 2.40234C24.0039 3.22266 23.5059 4.19922 23.0566 5.33203C22.6074 6.46484 22.1875 7.71484 21.7969 9.08203ZM21.3867 10.8984C21.1133 12.0703 20.8789 13.2812 20.6836 14.5312C20.4883 15.7812 20.332 17.0508 20.2148 18.3398C18.7695 18.1836 17.3535 17.998 15.9668 17.7832C14.5801 17.5684 13.2617 17.3047 12.0117 16.9922C12.4023 15.7031 12.8711 14.4727 13.418 13.3008C13.9648 12.1289 14.5703 11.0352 15.2344 10.0195C16.2109 10.2148 17.207 10.3906 18.2227 10.5469C19.2383 10.7031 20.293 10.8203 21.3867 10.8984ZM20.0391 20.2148C19.9219 21.3477 19.834 22.5 19.7754 23.6719C19.7168 24.8438 19.6875 26.0156 19.6875 27.1875H10.3125C10.3516 25.7031 10.4688 24.2676 10.6641 22.8809C10.8594 21.4941 11.1328 20.1367 11.4844 18.8086C12.8125 19.1211 14.1895 19.3945 15.6152 19.6289C17.041 19.8633 18.5156 20.0586 20.0391 20.2148ZM21.8555 20.3906C22.9102 20.4688 23.9551 20.5273 24.9902 20.5664C26.0254 20.6055 27.0703 20.625 28.125 20.625C29.1797 20.625 30.2246 20.6055 31.2598 20.5664C32.2949 20.5273 33.3398 20.4688 34.3945 20.3906C34.4727 21.4453 34.541 22.5391 34.5996 23.6719C34.6582 24.8047 34.6875 25.9766 34.6875 27.1875H21.5625C21.5625 25.9766 21.5918 24.8047 21.6504 23.6719C21.709 22.5391 21.7773 21.4453 21.8555 20.3906ZM36.0352 18.3398C35.918 17.0508 35.7617 15.7812 35.5664 14.5312C35.3711 13.2812 35.1367 12.0703 34.8633 10.8984C35.957 10.8203 37.0117 10.7031 38.0273 10.5469C39.043 10.3906 40.0391 10.2148 41.0156 10.0195C41.6797 11.0352 42.2852 12.1289 42.832 13.3008C43.3789 14.4727 43.8477 15.7031 44.2383 16.9922C42.9883 17.3047 41.6699 17.5684 40.2832 17.7832C38.8965 17.998 37.4805 18.1836 36.0352 18.3398ZM44.1211 7.32422C43.7305 7.44141 43.3496 7.54883 42.9785 7.64648C42.6074 7.74414 42.2266 7.83203 41.8359 7.91016C41.25 7.12891 40.6348 6.39648 39.9902 5.71289C39.3457 5.0293 38.6719 4.39453 37.9688 3.80859C39.1016 4.23828 40.1758 4.75586 41.1914 5.36133C42.207 5.9668 43.1836 6.62109 44.1211 7.32422ZM14.4141 7.91016C14.0234 7.83203 13.6426 7.74414 13.2715 7.64648C12.9004 7.54883 12.5195 7.44141 12.1289 7.32422C13.0664 6.62109 14.043 5.9668 15.0586 5.36133C16.0742 4.75586 17.1484 4.23828 18.2812 3.80859C17.5781 4.39453 16.9043 5.0293 16.2598 5.71289C15.6152 6.39648 15 7.12891 14.4141 7.91016ZM10.4883 8.73047C10.918 8.88672 11.377 9.0332 11.8652 9.16992C12.3535 9.30664 12.8516 9.45312 13.3594 9.60938C12.6953 10.625 12.0996 11.7188 11.5723 12.8906C11.0449 14.0625 10.5859 15.293 10.1953 16.582C9.33594 16.3477 8.50586 16.1035 7.70508 15.8496C6.9043 15.5957 6.13281 15.3125 5.39062 15C6.05469 13.8281 6.81641 12.7148 7.67578 11.6602C8.53516 10.6055 9.47266 9.62891 10.4883 8.73047ZM4.51172 16.6992C5.29297 17.0117 6.11328 17.3047 6.97266 17.5781C7.83203 17.8516 8.73047 18.125 9.66797 18.3984C9.31641 19.7656 9.0332 21.1816 8.81836 22.6465C8.60352 24.1113 8.47656 25.625 8.4375 27.1875H1.875C1.95312 25.3125 2.2168 23.4961 2.66602 21.7383C3.11523 19.9805 3.73047 18.3008 4.51172 16.6992ZM24.375 54.375C24.1016 54.375 23.877 54.2871 23.7012 54.1113C23.5254 53.9355 23.4375 53.7109 23.4375 53.4375C23.4375 53.1641 23.5254 52.9395 23.7012 52.7637C23.877 52.5879 24.1016 52.5 24.375 52.5C24.6484 52.5 24.873 52.5879 25.0488 52.7637C25.2246 52.9395 25.3125 53.1641 25.3125 53.4375C25.3125 53.7109 25.2246 53.9355 25.0488 54.1113C24.873 54.2871 24.6484 54.375 24.375 54.375ZM26.25 34.6875C25.9766 34.6875 25.752 34.5996 25.5762 34.4238C25.4004 34.248 25.3125 34.0234 25.3125 33.75C25.3125 33.4766 25.4004 33.252 25.5762 33.0762C25.752 32.9004 25.9766 32.8125 26.25 32.8125C26.5234 32.8125 26.748 32.9004 26.9238 33.0762C27.0996 33.252 27.1875 33.4766 27.1875 33.75C27.1875 34.0234 27.0996 34.248 26.9238 34.4238C26.748 34.5996 26.5234 34.6875 26.25 34.6875ZM25.3125 31.1133C24.7656 31.3086 24.3164 31.6406 23.9648 32.1094C23.6133 32.5781 23.4375 33.125 23.4375 33.75C23.4375 34.375 23.6133 34.9219 23.9648 35.3906C24.3164 35.8594 24.7656 36.1914 25.3125 36.3867V40.8398L24.375 41.7773L21.5625 38.9648V29.0625H25.3125V31.1133ZM34.6875 37.5C34.4141 37.5 34.1895 37.4121 34.0137 37.2363C33.8379 37.0605 33.75 36.8359 33.75 36.5625C33.75 36.2891 33.8379 36.0645 34.0137 35.8887C34.1895 35.7129 34.4141 35.625 34.6875 35.625C34.9609 35.625 35.1855 35.7129 35.3613 35.8887C35.5371 36.0645 35.625 36.2891 35.625 36.5625C35.625 36.8359 35.5371 37.0605 35.3613 37.2363C35.1855 37.4121 34.9609 37.5 34.6875 37.5ZM52.5 34.6875C52.2266 34.6875 52.002 34.5996 51.8262 34.4238C51.6504 34.248 51.5625 34.0234 51.5625 33.75C51.5625 33.4766 51.6504 33.252 51.8262 33.0762C52.002 32.9004 52.2266 32.8125 52.5 32.8125C52.7734 32.8125 52.998 32.9004 53.1738 33.0762C53.3496 33.252 53.4375 33.4766 53.4375 33.75C53.4375 34.0234 53.3496 34.248 53.1738 34.4238C52.998 34.5996 52.7734 34.6875 52.5 34.6875ZM51.5625 31.1133C51.1719 31.2695 50.8301 31.4941 50.5371 31.7871C50.2441 32.0801 50.0195 32.4219 49.8633 32.8125H45C44.8828 32.8125 44.7656 32.832 44.6484 32.8711C44.5312 32.9102 44.4336 32.9883 44.3555 33.1055L41.7773 35.625H37.3242C37.168 35.2344 36.9434 34.8926 36.6504 34.5996C36.3574 34.3066 36.0156 34.082 35.625 33.9258V32.2852L38.8477 29.0625H51.5625V31.1133ZM47.8125 27.1875C47.7734 25.625 47.6465 24.1113 47.4316 22.6465C47.2168 21.1816 46.9336 19.7656 46.582 18.3984C47.5195 18.125 48.418 17.8516 49.2773 17.5781C50.1367 17.3047 50.957 17.0117 51.7383 16.6992C52.5195 18.3008 53.1348 19.9805 53.584 21.7383C54.0332 23.4961 54.2969 25.3125 54.375 27.1875H47.8125Z" fill="white"/>
</svg>
