<svg width="57" height="57" viewBox="0 0 57 57" fill="none" xmlns="http://www.w3.org/2000/svg">
<path d="M56.25 47.6953L54.7852 36.0352C54.6289 34.8242 54.1406 33.7793 53.3203 32.9004C52.5 32.0215 51.5039 31.4648 50.332 31.2305L42.6562 29.707L40.3125 27.7148V25.3125C41.3281 24.5312 42.168 23.584 42.832 22.4707C43.4961 21.3574 43.8867 20.1367 44.0039 18.8086V18.75H44.0625C45.1172 18.75 46.0059 18.3887 46.7285 17.666C47.4512 16.9434 47.8125 16.0547 47.8125 15C47.8125 13.9453 47.4512 13.0566 46.7285 12.334C46.0059 11.6113 45.1172 11.25 44.0625 11.25V5.74219C44.0625 4.64844 43.6719 3.71094 42.8906 2.92969C42.1094 2.14844 41.1719 1.75781 40.0781 1.75781C40.0391 1.75781 40 1.76758 39.9609 1.78711C39.9219 1.80664 39.8828 1.81641 39.8438 1.81641C39.4531 1.26953 38.9551 0.830078 38.3496 0.498047C37.7441 0.166016 37.0703 0 36.3281 0H30.9375C29.375 0 28.0469 0.546875 26.9531 1.64062C25.8594 2.73438 25.3125 4.0625 25.3125 5.625C25.3125 5.625 25.3125 5.64453 25.3125 5.68359C25.3125 5.68359 25.3125 5.69336 25.3125 5.71289C25.3125 5.73242 25.3125 5.74219 25.3125 5.74219V11.25C24.2578 11.25 23.3691 11.6113 22.6465 12.334C21.9238 13.0566 21.5625 13.9453 21.5625 15C21.5625 16.0547 21.9238 16.9434 22.6465 17.666C23.3691 18.3887 24.2578 18.75 25.3125 18.75H25.3711C25.4883 20.0781 25.8789 21.3086 26.543 22.4414C27.207 23.5742 28.0469 24.5312 29.0625 25.3125V27.7148L26.7188 29.707L18.8672 31.2891C18.4375 31.3672 18.0371 31.4844 17.666 31.6406C17.2949 31.7969 16.9531 31.9922 16.6406 32.2266H16.6992L16.875 31.1133C16.875 31.0742 16.875 31.0449 16.875 31.0254C16.875 31.0059 16.875 30.9766 16.875 30.9375C16.875 30.8594 16.8652 30.8008 16.8457 30.7617C16.8262 30.7227 16.8164 30.6641 16.8164 30.5859L12.7148 19.9219C12.832 19.7656 12.9297 19.5898 13.0078 19.3945C13.0859 19.1992 13.125 18.9844 13.125 18.75C13.125 18.2422 12.9395 17.8027 12.5684 17.4316C12.1973 17.0605 11.7578 16.875 11.25 16.875C10.7422 16.875 10.3027 17.0605 9.93164 17.4316C9.56055 17.8027 9.375 18.2422 9.375 18.75C9.375 19.1016 9.45312 19.4141 9.60938 19.6875C9.76562 19.9609 9.98047 20.1758 10.2539 20.332L8.49609 45.9375H8.37891L6.62109 20.332C6.89453 20.1758 7.10938 19.9609 7.26562 19.6875C7.42188 19.4141 7.5 19.1016 7.5 18.75C7.5 18.2422 7.31445 17.8027 6.94336 17.4316C6.57227 17.0605 6.13281 16.875 5.625 16.875C5.11719 16.875 4.67773 17.0605 4.30664 17.4316C3.93555 17.8027 3.75 18.2422 3.75 18.75C3.75 18.9844 3.78906 19.1992 3.86719 19.3945C3.94531 19.5898 4.04297 19.7656 4.16016 19.9219L0.0585938 30.5859C0.0585938 30.6641 0.0488281 30.7227 0.0292969 30.7617C0.00976562 30.8008 0 30.8594 0 30.9375C0 30.9766 0 31.0059 0 31.0254C0 31.0449 0 31.0742 0 31.1133L1.875 42.3633C1.91406 42.5586 2.01172 42.7246 2.16797 42.8613C2.32422 42.998 2.5 43.0859 2.69531 43.125C2.73438 43.125 2.76367 43.125 2.7832 43.125C2.80273 43.125 2.8125 43.125 2.8125 43.125C3.00781 43.125 3.18359 43.0664 3.33984 42.9492C3.49609 42.832 3.61328 42.6953 3.69141 42.5391L5.85938 37.0898L6.50391 45.9375H5.625C4.84375 45.9375 4.17969 46.2109 3.63281 46.7578C3.08594 47.3047 2.8125 47.9688 2.8125 48.75V49.8047C1.99219 50.0391 1.31836 50.4883 0.791016 51.1523C0.263672 51.8164 0 52.5781 0 53.4375V55.3125C0 55.5859 0.0878906 55.8105 0.263672 55.9863C0.439453 56.1621 0.664062 56.25 0.9375 56.25H51.5625C52.8516 56.25 53.9551 55.791 54.873 54.873C55.791 53.9551 56.25 52.8516 56.25 51.5625V47.8125C56.25 47.7734 56.25 47.7441 56.25 47.7246C56.25 47.7051 56.25 47.6953 56.25 47.6953ZM3.16406 38.7305L1.93359 31.0547L4.92188 23.2031L5.56641 32.8125L3.16406 38.7305ZM42.1875 38.6719L43.0664 41.9531L40.0781 45.8203L39.9023 45.7617L39.6094 44.4141C39.5703 44.2188 39.5117 44.043 39.4336 43.8867C39.3555 43.7305 39.2578 43.5742 39.1406 43.418L42.4219 32.9883L44.5898 36.9727L42.832 37.5586C42.6367 37.5977 42.4805 37.7051 42.3633 37.8809C42.2461 38.0566 42.1875 38.2422 42.1875 38.4375C42.1875 38.4766 42.1875 38.5156 42.1875 38.5547C42.1875 38.5938 42.207 38.6328 42.2461 38.6719H42.1875ZM42.1875 54.375H38.2617C38.3398 54.2188 38.3887 54.0625 38.4082 53.9062C38.4277 53.75 38.4375 53.5938 38.4375 53.4375V47.8125C38.4375 47.6953 38.4277 47.5879 38.4082 47.4902C38.3887 47.3926 38.3789 47.3047 38.3789 47.2266L42.1875 48.5156V54.375ZM26.543 37.5586L24.7852 36.9727L26.9531 32.9883L30.2344 43.418C30.1172 43.5742 30.0195 43.7305 29.9414 43.8867C29.8633 44.043 29.8047 44.2188 29.7656 44.4141L29.4727 45.7617L29.2969 45.8203L26.3086 41.9531L27.1875 38.6719C27.1875 38.6328 27.1875 38.5938 27.1875 38.5547C27.1875 38.5156 27.1875 38.4766 27.1875 38.4375C27.1875 38.2422 27.1289 38.0566 27.0117 37.8809C26.8945 37.7051 26.7383 37.5977 26.543 37.5586ZM30.9375 26.4258C31.4844 26.6602 32.0801 26.8457 32.7246 26.9824C33.3691 27.1191 34.0234 27.1875 34.6875 27.1875C35.3516 27.1875 36.0059 27.1191 36.6504 26.9824C37.2949 26.8457 37.9102 26.6406 38.4961 26.3672L38.4375 26.4258V27.7734L34.6875 32.2852L30.9375 27.7734V26.4258ZM34.6875 42.9492C34.5703 42.832 34.4336 42.7246 34.2773 42.627C34.1211 42.5293 33.9453 42.4414 33.75 42.3633V36.2695L34.6875 35.1562L35.625 36.2695V42.3633C35.4297 42.4414 35.2539 42.5293 35.0977 42.627C34.9414 42.7246 34.8047 42.832 34.6875 42.9492ZM37.5 45C37.4609 45 37.4121 45 37.3535 45C37.2949 45 37.2266 45 37.1484 45H35.625C35.625 45 35.625 44.9805 35.625 44.9414C35.625 44.707 35.7324 44.502 35.9473 44.3262C36.1621 44.1504 36.4062 44.0625 36.6797 44.0625C36.9531 44.0625 37.1875 44.1309 37.3828 44.2676C37.5781 44.4043 37.6953 44.5898 37.7344 44.8242L37.793 45.0586C37.7539 45.0586 37.7051 45.0586 37.6465 45.0586C37.5879 45.0586 37.5391 45.0391 37.5 45ZM37.5586 42.3047C37.5195 42.3047 37.5 42.3047 37.5 42.3047V38.3789L38.4375 39.4336L37.5586 42.3047ZM31.875 42.3047C31.875 42.3047 31.8555 42.3047 31.8164 42.3047L30.9375 39.4336L31.875 38.3789V42.3047ZM31.6406 44.8242C31.6797 44.5898 31.7969 44.4043 31.9922 44.2676C32.1875 44.1309 32.4219 44.0625 32.6953 44.0625C32.9688 44.0625 33.2129 44.1504 33.4277 44.3262C33.6426 44.502 33.75 44.707 33.75 44.9414C33.75 44.9805 33.75 45 33.75 45H31.875C31.8359 45 31.7871 45 31.7285 45C31.6699 45 31.6211 45.0195 31.582 45.0586L31.6406 44.8242ZM39.082 37.3828L35.918 33.75L39.4922 29.4727L41.1328 30.8789L39.082 37.3828ZM45.9375 15C45.9375 15.5078 45.752 15.9473 45.3809 16.3184C45.0098 16.6895 44.5703 16.875 44.0625 16.875V13.125C44.5703 13.125 45.0098 13.3105 45.3809 13.6816C45.752 14.0527 45.9375 14.4922 45.9375 15ZM42.1875 5.74219V9.14062C41.875 8.63281 41.5723 8.08594 41.2793 7.5C40.9863 6.91406 40.7031 6.30859 40.4297 5.68359L40.3125 5.44922V3.69141C40.8594 3.73047 41.3086 3.94531 41.6602 4.33594C42.0117 4.72656 42.1875 5.19531 42.1875 5.74219ZM30.9375 1.875H36.3281C36.7969 1.875 37.207 1.98242 37.5586 2.19727C37.9102 2.41211 38.2031 2.69531 38.4375 3.04688V4.6875H27.3047C27.5391 3.86719 27.9883 3.19336 28.6523 2.66602C29.3164 2.13867 30.0781 1.875 30.9375 1.875ZM27.1875 6.5625H28.5352C28.3789 6.91406 28.1836 7.31445 27.9492 7.76367C27.7148 8.21289 27.4609 8.67188 27.1875 9.14062V6.5625ZM23.4375 15C23.4375 14.4922 23.623 14.0527 23.9941 13.6816C24.3652 13.3105 24.8047 13.125 25.3125 13.125V16.875C24.8047 16.875 24.3652 16.6895 23.9941 16.3184C23.623 15.9473 23.4375 15.5078 23.4375 15ZM27.1875 17.8125V12.5391C27.9688 11.5234 28.6719 10.4199 29.2969 9.22852C29.9219 8.03711 30.3516 7.14844 30.5859 6.5625H38.7305C39.0039 7.14844 39.4531 8.03711 40.0781 9.22852C40.7031 10.4199 41.4062 11.5234 42.1875 12.5391V17.8125C42.1875 19.8828 41.4551 21.6504 39.9902 23.1152C38.5254 24.5801 36.7578 25.3125 34.6875 25.3125C32.6172 25.3125 30.8496 24.5801 29.3848 23.1152C27.9199 21.6504 27.1875 19.8828 27.1875 17.8125ZM29.8828 29.4727L33.457 33.75L30.293 37.3828L28.2422 30.8789L29.8828 29.4727ZM19.2188 33.1055L25.3711 31.875L22.6172 37.0312C22.5781 37.1094 22.5488 37.1875 22.5293 37.2656C22.5098 37.3438 22.5 37.4219 22.5 37.5C22.5 37.6953 22.5586 37.8809 22.6758 38.0566C22.793 38.2324 22.9492 38.3398 23.1445 38.3789L25.1367 39.0234L24.375 41.9531C24.375 41.9922 24.375 42.0312 24.375 42.0703C24.375 42.1094 24.375 42.1484 24.375 42.1875C24.375 42.3047 24.3945 42.4121 24.4336 42.5098C24.4727 42.6074 24.5117 42.6953 24.5508 42.7734L27.4219 46.4648L26.0742 46.875H23.4375V42.1875H21.5625V46.875H15.9375V48.75H21.5625V54.375H16.875V53.4375C16.875 52.5781 16.6113 51.8164 16.084 51.1523C15.5566 50.4883 14.8828 50.0391 14.0625 49.8047V48.75C14.0625 48.6328 14.0527 48.5254 14.0332 48.4277C14.0137 48.3301 14.0039 48.2227 14.0039 48.1055L16.2891 36.0938C16.4062 35.3516 16.7383 34.707 17.2852 34.1602C17.832 33.6133 18.4766 33.2617 19.2188 33.1055ZM13.7109 38.7305L11.3086 32.8125L11.9531 23.2031L14.9414 31.0547L13.7109 38.7305ZM11.0156 37.0898L13.1836 42.4805L12.4219 46.2305C12.2656 46.1133 12.0898 46.0352 11.8945 45.9961C11.6992 45.957 11.4844 45.9375 11.25 45.9375H10.3711L11.0156 37.0898ZM4.6875 48.75C4.6875 48.4766 4.77539 48.252 4.95117 48.0762C5.12695 47.9004 5.35156 47.8125 5.625 47.8125H11.25C11.5234 47.8125 11.748 47.9004 11.9238 48.0762C12.0996 48.252 12.1875 48.4766 12.1875 48.75V49.6875H4.6875V48.75ZM13.125 54.375H1.875V53.4375C1.875 52.9297 2.06055 52.4902 2.43164 52.1191C2.80273 51.748 3.24219 51.5625 3.75 51.5625H13.125C13.6328 51.5625 14.0723 51.748 14.4434 52.1191C14.8145 52.4902 15 52.9297 15 53.4375V54.375H13.125ZM23.4375 48.75H25.3125V54.375H23.4375V48.75ZM27.1875 54.375V48.5156L32.0508 46.875H35.625C35.7031 46.875 35.7812 46.8848 35.8594 46.9043C35.9375 46.9238 36.0156 46.9531 36.0938 46.9922C36.1328 47.0312 36.1816 47.0703 36.2402 47.1094C36.2988 47.1484 36.3477 47.1875 36.3867 47.2266C36.4258 47.3047 36.4648 47.3926 36.5039 47.4902C36.543 47.5879 36.5625 47.6953 36.5625 47.8125V53.4375C36.5625 53.7109 36.4746 53.9355 36.2988 54.1113C36.123 54.2871 35.8984 54.375 35.625 54.375H27.1875ZM44.0625 54.375V48.75H45.9375V54.375H44.0625ZM54.375 51.5625C54.375 52.3438 54.1016 53.0078 53.5547 53.5547C53.0078 54.1016 52.3438 54.375 51.5625 54.375H47.8125V48.75H52.5V46.875H47.8125V42.1875H45.9375V46.875H43.3008L41.9531 46.4648L44.8242 42.7734C44.8633 42.6953 44.9023 42.6074 44.9414 42.5098C44.9805 42.4121 45 42.3047 45 42.1875C45 42.1484 45 42.1094 45 42.0703C45 42.0312 44.9805 41.9922 44.9414 41.9531H45L44.2383 39.0234L46.2305 38.3789C46.4258 38.3398 46.582 38.2324 46.6992 38.0566C46.8164 37.8809 46.875 37.6953 46.875 37.5C46.875 37.4219 46.8652 37.3438 46.8457 37.2656C46.8262 37.1875 46.7969 37.1094 46.7578 37.0312L44.0039 31.875L49.9219 33.0469C50.7422 33.2422 51.4258 33.6328 51.9727 34.2188C52.5195 34.8047 52.832 35.4883 52.9102 36.2695L54.375 47.8711V51.5625ZM31.875 21.1523H33.8672C34.5703 21.1523 35.2539 21.1035 35.918 21.0059C36.582 20.9082 37.2266 20.7617 37.8516 20.5664H37.793L37.207 18.8086C36.7383 18.9648 36.2109 19.082 35.625 19.1602C35.0391 19.2383 34.4531 19.2773 33.8672 19.2773H31.875V21.1523ZM30.4688 15C30.8594 15 31.1914 14.8633 31.4648 14.5898C31.7383 14.3164 31.875 13.9844 31.875 13.5938C31.875 13.2031 31.7383 12.8711 31.4648 12.5977C31.1914 12.3242 30.8594 12.1875 30.4688 12.1875C30.0781 12.1875 29.7461 12.3242 29.4727 12.5977C29.1992 12.8711 29.0625 13.2031 29.0625 13.5938C29.0625 13.9844 29.1992 14.3164 29.4727 14.5898C29.7461 14.8633 30.0781 15 30.4688 15ZM38.9062 15C39.2969 15 39.6289 14.8633 39.9023 14.5898C40.1758 14.3164 40.3125 13.9844 40.3125 13.5938C40.3125 13.2031 40.1758 12.8711 39.9023 12.5977C39.6289 12.3242 39.2969 12.1875 38.9062 12.1875C38.5156 12.1875 38.1836 12.3242 37.9102 12.5977C37.6367 12.8711 37.5 13.2031 37.5 13.5938C37.5 13.9844 37.6367 14.3164 37.9102 14.5898C38.1836 14.8633 38.5156 15 38.9062 15Z" fill="white"/>
</svg>
