<svg width="53" height="56" viewBox="0 0 53 56" fill="none" xmlns="http://www.w3.org/2000/svg">
<path d="M13.125 52.8516H4.86328C4.66797 52.8516 4.49219 52.7734 4.33594 52.6172C4.17969 52.4609 4.10156 52.2656 4.10156 52.0312V30.1172C4.10156 29.8828 4.17969 29.6875 4.33594 29.5312C4.49219 29.375 4.66797 29.2969 4.86328 29.2969H13.125C13.3594 29.2969 13.5547 29.375 13.7109 29.5312C13.8672 29.6875 13.9453 29.8828 13.9453 30.1172V52.0312C13.9453 52.2656 13.8672 52.4609 13.7109 52.6172C13.5547 52.7734 13.3594 52.8516 13.125 52.8516ZM5.68359 51.2109H12.3047V30.8789H5.68359V51.2109ZM47.4023 52.8516H39.1406C38.9062 52.8516 38.7109 52.7734 38.5547 52.6172C38.3984 52.4609 38.3203 52.2656 38.3203 52.0312V21.0938C38.3203 20.8594 38.3984 20.6641 38.5547 20.5078C38.7109 20.3516 38.9062 20.2734 39.1406 20.2734H47.4023C47.5977 20.2734 47.7734 20.3516 47.9297 20.5078C48.0859 20.6641 48.1641 20.8594 48.1641 21.0938V52.0312C48.1641 52.2656 48.0859 52.4609 47.9297 52.6172C47.7734 52.7734 47.5977 52.8516 47.4023 52.8516ZM39.9609 51.2109H46.582V21.9141H39.9609V51.2109ZM35.9766 52.8516H27.7148C27.4805 52.8516 27.2852 52.7734 27.1289 52.6172C26.9727 52.4609 26.8945 52.2656 26.8945 52.0312V33.3984C26.8945 33.1641 26.9727 32.9688 27.1289 32.8125C27.2852 32.6562 27.4805 32.5781 27.7148 32.5781H35.9766C36.1719 32.5781 36.3477 32.6562 36.5039 32.8125C36.6602 32.9688 36.7383 33.1641 36.7383 33.3984V52.0312C36.7383 52.2656 36.6602 52.4609 36.5039 52.6172C36.3477 52.7734 36.1719 52.8516 35.9766 52.8516ZM28.5352 51.2109H35.1562V34.2188H28.5352V51.2109ZM24.5508 52.8516H16.2891C16.0547 52.8516 15.8594 52.7734 15.7031 52.6172C15.5469 52.4609 15.4688 52.2656 15.4688 52.0312V26.1914C15.4688 25.957 15.5469 25.7617 15.7031 25.6055C15.8594 25.4492 16.0547 25.3711 16.2891 25.3711H24.5508C24.7852 25.3711 24.9805 25.4492 25.1367 25.6055C25.293 25.7617 25.3711 25.957 25.3711 26.1914V52.0312C25.3711 52.2656 25.293 52.4609 25.1367 52.6172C24.9805 52.7734 24.7852 52.8516 24.5508 52.8516ZM17.1094 51.2109H23.7305V26.9531H17.1094V51.2109ZM51.4453 55.8984H0.820312C0.585938 55.8984 0.390625 55.8203 0.234375 55.6641C0.078125 55.5078 0 55.332 0 55.1367V52.0312C0 51.8359 0.078125 51.6504 0.234375 51.4746C0.390625 51.2988 0.585938 51.2109 0.820312 51.2109H51.4453C51.6797 51.2109 51.875 51.2988 52.0312 51.4746C52.1875 51.6504 52.2656 51.8359 52.2656 52.0312V55.1367C52.2656 55.332 52.1875 55.5078 52.0312 55.6641C51.875 55.8203 51.6797 55.8984 51.4453 55.8984ZM1.64062 54.3164H50.625V52.8516H1.64062V54.3164ZM9.02344 25.7227C8.78906 25.7227 8.59375 25.6445 8.4375 25.4883C8.28125 25.332 8.20312 25.1562 8.20312 24.9609C8.20312 24.8438 8.23242 24.7168 8.29102 24.5801C8.34961 24.4434 8.41797 24.3359 8.49609 24.2578L19.9219 15.9375C20 15.8984 20.0879 15.8691 20.1855 15.8496C20.2832 15.8301 20.3516 15.8203 20.3906 15.8203C20.4688 15.8203 20.5371 15.8301 20.5957 15.8496C20.6543 15.8691 20.7227 15.8789 20.8008 15.8789L31.7578 21.4453L45.293 10.6055C45.3711 10.5664 45.459 10.5273 45.5566 10.4883C45.6543 10.4492 45.7422 10.4297 45.8203 10.4297C46.0547 10.4297 46.25 10.5176 46.4062 10.6934C46.5625 10.8691 46.6406 11.0547 46.6406 11.25C46.6406 11.3672 46.6113 11.4844 46.5527 11.6016C46.4941 11.7188 46.4062 11.8164 46.2891 11.8945L32.3438 23.0273C32.2656 23.0664 32.1777 23.1055 32.0801 23.1445C31.9824 23.1836 31.8945 23.2031 31.8164 23.2031C31.7773 23.2031 31.7188 23.1934 31.6406 23.1738C31.5625 23.1543 31.5039 23.125 31.4648 23.0859L20.5078 17.5781L9.49219 25.6055C9.41406 25.6445 9.32617 25.6738 9.22852 25.6934C9.13086 25.7129 9.0625 25.7227 9.02344 25.7227ZM44.8828 17.4023C44.8438 17.4023 44.8145 17.4023 44.7949 17.4023C44.7754 17.4023 44.7461 17.4023 44.707 17.4023C44.5117 17.3633 44.3555 17.2656 44.2383 17.1094C44.1211 16.9531 44.0625 16.7773 44.0625 16.582C44.0625 16.582 44.0625 16.5625 44.0625 16.5234C44.0625 16.4844 44.0625 16.4648 44.0625 16.4648L44.8828 12.0117L40.0195 11.6602C39.8242 11.6602 39.6484 11.582 39.4922 11.4258C39.3359 11.2695 39.2578 11.0742 39.2578 10.8398C39.2578 10.6445 39.3359 10.459 39.4922 10.2832C39.6484 10.1074 39.8438 10.0195 40.0781 10.0195C40.0781 10.0195 40.0879 10.0293 40.1074 10.0488C40.127 10.0684 40.1367 10.0781 40.1367 10.0781L45.8789 10.4297C46.0742 10.4688 46.25 10.5664 46.4062 10.7227C46.5625 10.8789 46.6406 11.0547 46.6406 11.25C46.6406 11.2891 46.6406 11.3184 46.6406 11.3379C46.6406 11.3574 46.6406 11.3867 46.6406 11.4258L45.6445 16.7578C45.6055 16.9141 45.5078 17.0605 45.3516 17.1973C45.1953 17.334 45.0391 17.4023 44.8828 17.4023ZM12.2461 17.4023C9.82422 17.4023 7.76367 16.5527 6.06445 14.8535C4.36523 13.1543 3.51562 11.0938 3.51562 8.67188C3.51562 6.28906 4.36523 4.24805 6.06445 2.54883C7.76367 0.849609 9.82422 0 12.2461 0C14.6289 0 16.6797 0.849609 18.3984 2.54883C20.1172 4.24805 20.9766 6.28906 20.9766 8.67188C20.9375 11.0938 20.0684 13.1543 18.3691 14.8535C16.6699 16.5527 14.6289 17.4023 12.2461 17.4023ZM12.2461 1.58203C10.293 1.58203 8.62305 2.27539 7.23633 3.66211C5.84961 5.04883 5.15625 6.71875 5.15625 8.67188C5.15625 10.625 5.84961 12.2949 7.23633 13.6816C8.62305 15.0684 10.293 15.7617 12.2461 15.7617C14.1992 15.7617 15.8691 15.0684 17.2559 13.6816C18.6426 12.2949 19.3359 10.625 19.3359 8.67188C19.3359 6.71875 18.6426 5.04883 17.2559 3.66211C15.8691 2.27539 14.1992 1.58203 12.2461 1.58203ZM12.2461 9.49219C12.0898 9.49219 11.9434 9.45312 11.8066 9.375C11.6699 9.29688 11.5625 9.17969 11.4844 9.02344L8.14453 1.875C8.10547 1.83594 8.07617 1.77734 8.05664 1.69922C8.03711 1.62109 8.02734 1.5625 8.02734 1.52344C8.02734 1.28906 8.10547 1.09375 8.26172 0.9375C8.41797 0.78125 8.61328 0.703125 8.84766 0.703125C9.00391 0.703125 9.15039 0.751953 9.28711 0.849609C9.42383 0.947266 9.53125 1.07422 9.60938 1.23047L12.6562 7.61719L19.2188 4.92188C19.2578 4.88281 19.3066 4.86328 19.3652 4.86328C19.4238 4.86328 19.4922 4.86328 19.5703 4.86328C19.7656 4.86328 19.9414 4.94141 20.0977 5.09766C20.2539 5.25391 20.332 5.44922 20.332 5.68359C20.332 5.80078 20.2832 5.9375 20.1855 6.09375C20.0879 6.25 19.9805 6.34766 19.8633 6.38672L12.5391 9.43359C12.5 9.47266 12.4512 9.49219 12.3926 9.49219C12.334 9.49219 12.2852 9.49219 12.2461 9.49219ZM19.6289 12.3047C19.5898 12.3047 19.541 12.2949 19.4824 12.2754C19.4238 12.2559 19.375 12.2461 19.3359 12.2461L11.9531 9.43359C11.7969 9.39453 11.6699 9.29688 11.5723 9.14062C11.4746 8.98438 11.4258 8.82812 11.4258 8.67188C11.4258 8.47656 11.5039 8.30078 11.6602 8.14453C11.8164 7.98828 12.0117 7.91016 12.2461 7.91016C12.2852 7.91016 12.334 7.91016 12.3926 7.91016C12.4512 7.91016 12.5 7.91016 12.5391 7.91016L19.9219 10.7227C20.0781 10.7617 20.2051 10.8594 20.3027 11.0156C20.4004 11.1719 20.4492 11.3281 20.4492 11.4844C20.4492 11.7188 20.3711 11.9141 20.2148 12.0703C20.0586 12.2266 19.8633 12.3047 19.6289 12.3047Z" fill="white"/>
</svg>
